<svg width="44" height="43" viewBox="0 0 44 43" fill="none" xmlns="http://www.w3.org/2000/svg">
<path d="M0 31.9999C0 25.0011 0 18.0024 0 11.0036C0.0261865 10.8814 0.0645934 10.7627 0.0768138 10.6387C0.579595 5.88324 4.01352 1.79465 8.63282 0.492306C9.40794 0.274085 10.2127 0.162356 11.0036 0C11.6478 0 12.2919 0 12.9361 0C13.0304 0.0244407 13.1212 0.0576103 13.2172 0.0698307C18.2991 0.778612 21.6912 3.56835 23.3741 8.39889C23.697 9.32414 23.8035 10.3245 24.02 11.337C24.1248 11.337 24.2906 11.337 24.4565 11.337C30.3449 11.337 36.2334 11.3405 42.1219 11.33C42.5077 11.33 42.8027 11.4243 43.0052 11.756C43.0052 22.1712 43.0052 32.5848 43.0052 43C32.3386 43 21.672 43 11.0053 43C10.8988 42.9756 10.7923 42.9372 10.6841 42.9267C5.95481 42.4483 1.81734 39.0144 0.513256 34.451C0.281069 33.6514 0.167594 32.8187 0 31.9999ZM1.26044 25.6052C3.69055 21.4293 7.18383 19.0952 11.9637 19.0917C16.7541 19.0882 20.2526 21.4345 22.6775 25.5999C22.6775 25.4289 22.6775 25.3468 22.6775 25.2665C22.6775 20.8165 22.6828 16.3666 22.6688 11.9149C22.667 11.3161 22.6007 10.7138 22.5064 10.1202C21.6161 4.50233 16.0261 0.464374 10.4048 1.37043C5.04876 2.23284 1.27092 6.64963 1.26044 12.0702C1.25521 14.6033 1.2587 17.1365 1.2587 19.6696C1.26044 21.6126 1.26044 23.5574 1.26044 25.6052ZM39.2222 12.6289C34.1001 12.6289 29.0286 12.6289 23.9362 12.6289C23.9362 12.8262 23.9362 12.992 23.9362 13.1596C23.9362 19.1214 23.9851 25.0849 23.9205 31.0467C23.8699 35.6433 21.7488 39.1069 17.819 41.4742C17.7056 41.5423 17.5886 41.6086 17.4734 41.6767C17.4786 41.6994 17.4821 41.7221 17.4874 41.7448C17.62 41.7448 17.751 41.7448 17.8836 41.7448C20.0955 41.7448 22.3057 41.7465 24.5176 41.7448C26.5566 41.743 27.8834 40.4198 27.8851 38.3859C27.8869 36.0484 27.8851 33.7108 27.8851 31.3732C27.8851 30.5736 28.0475 30.4078 28.8314 30.406C31.155 30.406 33.4786 30.406 35.8005 30.406C37.9216 30.406 39.2222 29.1019 39.2222 26.9739C39.2222 22.3546 39.2222 17.737 39.2222 13.1177C39.2222 12.9641 39.2222 12.8104 39.2222 12.6289ZM22.6758 31.0223C22.6705 25.1216 17.8592 20.319 11.9568 20.3242C6.05607 20.3295 1.25346 25.1408 1.2587 31.0415C1.26394 36.9404 6.07702 41.7465 11.976 41.7396C17.8784 41.7361 22.681 36.923 22.6758 31.0223ZM40.4826 12.6184C40.4826 12.8139 40.4826 12.9798 40.4826 13.1456C40.4826 17.7353 40.4686 22.3266 40.4913 26.9162C40.4983 28.374 40.0078 29.5716 38.9743 30.5981C35.3797 34.1682 31.8044 37.7575 28.2238 41.3415C28.1121 41.4533 28.0073 41.5685 27.8729 41.7099C32.5394 41.7099 37.1325 41.7099 41.7238 41.7099C41.7238 31.9982 41.7238 22.3179 41.7238 12.6184C41.3153 12.6184 40.9278 12.6184 40.4826 12.6184ZM35.9768 31.6927C33.73 31.6927 31.4483 31.6927 29.1683 31.6927C29.1683 33.9936 29.1683 36.2631 29.1683 38.5081C31.436 36.2386 33.7055 33.9657 35.9768 31.6927Z" fill="black"/>
<path d="M2.479 30.9995C2.5436 28.9622 3.13192 27.1152 4.33476 25.4707C4.6874 24.9871 5.25303 25.0151 5.47649 25.5056C5.61615 25.8111 5.4695 26.0416 5.30191 26.2772C4.49362 27.4172 4.0083 28.6777 3.83721 30.0691C3.31697 34.2659 6.20273 38.2532 10.3559 39.0598C15.6316 40.0845 20.4464 35.9488 20.1305 30.5841C19.9454 27.4452 18.3777 25.0849 15.5548 23.6987C12.7459 22.3213 9.97533 22.5762 7.34446 24.2766C7.25019 24.3377 7.16464 24.4093 7.06863 24.4686C6.72646 24.6781 6.38429 24.624 6.17654 24.3342C5.96879 24.0427 6.00371 23.6621 6.34413 23.4543C7.05815 23.0196 7.76693 22.55 8.53856 22.2445C14.9281 19.7097 21.8832 24.8056 21.3996 31.642C21.061 36.4289 17.215 40.2381 12.484 40.4756C7.69187 40.7147 3.52123 37.3995 2.67104 32.6668C2.57502 32.1133 2.54185 31.553 2.479 30.9995Z" fill="black"/>
<path d="M11.9743 24.1056C15.801 24.1073 18.9067 27.2288 18.8962 31.0607C18.8857 34.8648 15.7713 37.9652 11.962 37.9635C8.13706 37.9618 5.02959 34.8386 5.04007 31.0066C5.04879 27.2026 8.16324 24.1021 11.9743 24.1056ZM11.9673 36.7031C15.0852 36.7031 17.6323 34.1612 17.6375 31.045C17.641 27.9236 15.1062 25.373 11.99 25.3643C8.84933 25.3556 6.29527 27.9044 6.29876 31.0415C6.30226 34.1595 8.84933 36.7031 11.9673 36.7031Z" fill="black"/>
<path d="M16.377 31.031C16.3787 33.4542 14.3938 35.4408 11.9706 35.4426C9.54926 35.4443 7.56083 33.4577 7.55908 31.0363C7.55908 28.6114 9.54227 26.6265 11.9654 26.6265C14.3903 26.6247 16.3752 28.6062 16.377 31.031ZM8.81953 31.0083C8.80905 32.7419 10.2161 34.1717 11.9427 34.1821C13.6763 34.1926 15.1043 32.7873 15.1165 31.0572C15.127 29.3237 13.7216 27.8956 11.9933 27.8852C10.2598 27.8747 8.83 29.2818 8.81953 31.0083Z" fill="black"/>
</svg>
