<svg width="50" height="50" viewBox="0 0 50 50" fill="none" xmlns="http://www.w3.org/2000/svg">
<path d="M1.11108 36.6665C1.11108 28.8901 1.11108 21.1137 1.11108 13.3373C1.14018 13.2015 1.18285 13.0696 1.19643 12.9319C1.75508 7.64801 5.57055 3.10514 10.7031 1.65809C11.5644 1.41562 12.4586 1.29148 13.3373 1.11108C14.053 1.11108 14.7688 1.11108 15.4846 1.11108C15.5893 1.13824 15.6902 1.1751 15.7969 1.18867C21.4435 1.97621 25.2124 5.07592 27.0823 10.4432C27.4411 11.4712 27.5595 12.5827 27.8 13.7078C27.9164 13.7078 28.1007 13.7078 28.2849 13.7078C34.8277 13.7078 41.3704 13.7116 47.9132 13.7C48.3419 13.7 48.6697 13.8048 48.8947 14.1733C48.8947 25.7458 48.8947 37.3164 48.8947 48.8889C37.0429 48.8889 25.191 48.8889 13.3392 48.8889C13.2209 48.8617 13.1026 48.819 12.9823 48.8074C7.72754 48.2759 3.13036 44.4604 1.68137 39.3899C1.42338 38.5015 1.2973 37.5763 1.11108 36.6665ZM2.51158 29.5613C5.2117 24.9214 9.09312 22.328 14.4041 22.3241C19.7268 22.3202 23.614 24.9272 26.3083 29.5555C26.3083 29.3654 26.3083 29.2742 26.3083 29.185C26.3083 24.2406 26.3141 19.2962 26.2986 14.3498C26.2967 13.6845 26.223 13.0153 26.1182 12.3558C25.129 6.11368 18.9179 1.62706 12.6719 2.63378C6.72082 3.59201 2.52322 8.49956 2.51158 14.5225C2.50576 17.337 2.50964 20.1516 2.50964 22.9662C2.51158 25.1251 2.51158 27.286 2.51158 29.5613ZM44.6913 15.1432C39.0001 15.1432 33.3651 15.1432 27.7069 15.1432C27.7069 15.3624 27.7069 15.5466 27.7069 15.7329C27.7069 22.3571 27.7612 28.9832 27.6894 35.6075C27.6332 40.7148 25.2764 44.5632 20.91 47.1935C20.7839 47.2692 20.654 47.3429 20.526 47.4185C20.5318 47.4438 20.5357 47.469 20.5415 47.4942C20.6889 47.4942 20.8344 47.4942 20.9818 47.4942C23.4395 47.4942 25.8952 47.4961 28.3528 47.4942C30.6184 47.4923 32.0926 46.0219 32.0946 43.7621C32.0965 41.1648 32.0946 38.5675 32.0946 35.9702C32.0946 35.0818 32.275 34.8975 33.1459 34.8956C35.7277 34.8956 38.3095 34.8956 40.8894 34.8956C43.2462 34.8956 44.6913 33.4466 44.6913 31.082C44.6913 25.9495 44.6913 20.8189 44.6913 15.6863C44.6913 15.5156 44.6913 15.3449 44.6913 15.1432ZM26.3064 35.5803C26.3006 29.024 20.9546 23.6877 14.3964 23.6936C7.84005 23.6994 2.50382 29.0453 2.50964 35.6016C2.51546 42.156 7.86333 47.4961 14.4177 47.4884C20.976 47.4845 26.3122 42.1366 26.3064 35.5803ZM46.0918 15.1315C46.0918 15.3488 46.0918 15.5331 46.0918 15.7173C46.0918 20.8169 46.0762 25.9184 46.1015 31.018C46.1092 32.6377 45.5641 33.9684 44.4158 35.1089C40.4219 39.0757 36.4493 43.0638 32.4709 47.0461C32.3467 47.1703 32.2304 47.2983 32.081 47.4554C37.2659 47.4554 42.3694 47.4554 47.4709 47.4554C47.4709 36.6646 47.4709 25.9087 47.4709 15.1315C47.017 15.1315 46.5864 15.1315 46.0918 15.1315ZM41.0853 36.3252C38.5888 36.3252 36.0536 36.3252 33.5203 36.3252C33.5203 38.8817 33.5203 41.4034 33.5203 43.8979C36.04 41.3762 38.5617 38.8507 41.0853 36.3252Z" fill="#001B70"/>
<path d="M3.86548 35.5551C3.93725 33.2914 4.59094 31.2392 5.92742 29.4119C6.31925 28.8746 6.94773 28.9057 7.19602 29.4507C7.35119 29.7902 7.18826 30.0462 7.00204 30.3081C6.10394 31.5748 5.56469 32.9753 5.3746 34.5212C4.79655 39.1844 8.00295 43.6147 12.6176 44.5109C18.4795 45.6495 23.8293 41.0543 23.4782 35.0934C23.2726 31.6058 21.5307 28.9833 18.3941 27.4431C15.2731 25.9127 12.1947 26.1959 9.27154 28.0852C9.16679 28.1531 9.07174 28.2326 8.96506 28.2985C8.58487 28.5313 8.20468 28.4712 7.97385 28.1492C7.74302 27.8252 7.78182 27.4024 8.16007 27.1715C8.95342 26.6885 9.74096 26.1668 10.5983 25.8273C17.6978 23.0108 25.4257 28.6729 24.8884 36.2689C24.5121 41.5877 20.2388 45.8202 14.9821 46.084C9.65755 46.3498 5.0235 42.6662 4.07885 37.4076C3.97216 36.7927 3.93531 36.17 3.86548 35.5551Z" fill="#001B70"/>
<path d="M14.4157 27.895C18.6677 27.897 22.1185 31.3652 22.1068 35.623C22.0952 39.8497 18.6347 43.2946 14.4022 43.2927C10.1522 43.2908 6.69945 39.8206 6.71109 35.5628C6.72079 31.3361 10.1813 27.8911 14.4157 27.895ZM14.408 41.8922C17.8724 41.8922 20.7024 39.0679 20.7083 35.6055C20.7121 32.1372 17.8956 29.3033 14.4332 29.2936C10.9436 29.2839 8.10576 32.1159 8.10964 35.6016C8.11352 39.066 10.9436 41.8922 14.408 41.8922Z" fill="#001B70"/>
<path d="M19.3078 35.59C19.3097 38.2824 17.1042 40.4898 14.4119 40.4917C11.7214 40.4937 9.51207 38.2863 9.51013 35.5958C9.51013 32.9015 11.7137 30.696 14.406 30.696C17.1003 30.6941 19.3058 32.8957 19.3078 35.59ZM10.9106 35.5648C10.899 37.491 12.4624 39.0796 14.3808 39.0913C16.307 39.1029 17.8937 37.5414 17.9073 35.6191C17.9189 33.6929 16.3574 32.1062 14.4371 32.0946C12.5109 32.083 10.9223 33.6464 10.9106 35.5648Z" fill="#001B70"/>
</svg>
