<svg width="45" height="33" viewBox="0 0 45 33" fill="none" xmlns="http://www.w3.org/2000/svg">
<path d="M3.27466 10.8768C3.45165 10.2355 3.94127 9.84239 4.38491 9.39185C5.39402 8.36665 6.35485 7.29548 7.33408 6.2427C8.88107 4.58077 10.4281 2.91655 11.9751 1.25462C13.2462 -0.11078 14.7656 -0.303867 16.3195 0.716735C17.5102 1.49828 18.7009 2.28212 19.8801 3.08205C20.5927 3.56477 20.7973 4.30034 20.4801 5.07268C20.1537 5.86802 19.4066 6.33464 18.6274 6.18063C18.3538 6.12547 18.0826 5.98525 17.8435 5.83354C16.9287 5.24968 16.0299 4.64513 15.1219 4.05208C14.6461 3.74176 14.3243 3.77165 13.9473 4.17391C12.7382 5.46116 11.536 6.7553 10.3315 8.04714C10.2924 8.09081 10.2603 8.13909 10.1729 8.24942C10.5269 8.22643 10.8096 8.20805 11.0924 8.19195C14.1795 8.01726 17.2505 8.10461 20.2364 9.00568C21.2271 9.3045 22.2041 9.59873 23.2362 9.41944C24.089 9.27232 24.928 9.02866 25.7693 8.81949C28.5897 8.1207 31.4515 8.01036 34.3364 8.19425C34.5823 8.21034 34.826 8.22414 35.1731 8.24482C34.8903 7.9414 34.6789 7.71613 34.4674 7.48857C33.4514 6.39901 32.4377 5.30944 31.4194 4.22218C30.9872 3.76015 30.6861 3.72567 30.1574 4.07277C29.1966 4.7003 28.2472 5.34392 27.2772 5.95766C26.652 6.35303 25.967 6.29557 25.4107 5.84963C24.8222 5.3807 24.5165 4.56238 24.7878 3.92795C24.928 3.59925 25.1854 3.27054 25.4773 3.06596C26.6956 2.21316 27.9415 1.39714 29.1897 0.590309C30.4907 -0.248699 32.0515 -0.071703 33.1296 1.03855C33.9732 1.90744 34.7892 2.80391 35.6098 3.69349C35.9109 4.0199 35.9155 4.34401 35.6443 4.58537C35.3662 4.83132 35.0834 4.78995 34.7616 4.44745C33.9939 3.62683 33.2307 2.80621 32.4676 1.98099C31.6354 1.08452 30.67 0.96499 29.6586 1.6362C28.5667 2.36257 27.4726 3.08665 26.3807 3.81072C26.2865 3.87279 26.1876 3.93025 26.098 3.99921C25.8153 4.22218 25.767 4.57847 25.9739 4.8727C26.1578 5.13245 26.4037 5.17152 26.737 4.95775C27.6358 4.37619 28.5277 3.78084 29.4241 3.19238C30.5689 2.43843 31.4033 2.53727 32.3342 3.53718C33.7617 5.06809 35.1938 6.59669 36.6166 8.13679C36.8327 8.37125 37.0557 8.51606 37.3844 8.54825C37.8303 8.59422 38.2694 8.69996 38.821 8.7988C38.1636 8.09311 37.5798 7.47248 37.0005 6.84494C36.6856 6.50474 36.6925 6.17833 37.0051 5.93238C37.2763 5.7209 37.5361 5.75768 37.8303 6.0703C38.7429 7.04723 39.6508 8.03105 40.5657 9.00568C40.8163 9.27232 41.1197 9.49069 41.3404 9.77573C41.6047 10.1159 41.8093 10.5044 42.0391 10.8722C42.0391 11.125 42.0391 11.3779 42.0391 11.6284C41.9932 11.925 41.938 12.2215 41.9035 12.518C41.7794 13.5685 41.2001 14.0719 40.1313 14.0466C40.0577 14.0443 39.9841 14.0466 39.8761 14.0466C39.7635 14.9086 39.6531 15.7545 39.5428 16.6004C39.4348 17.4371 39.3474 18.2784 39.2187 19.1129C38.975 20.7104 37.7774 21.931 36.0305 22.2919C34.38 22.6344 32.702 22.7057 31.0217 22.6137C29.9666 22.5562 28.9023 22.4804 27.8679 22.2827C26.1623 21.9563 24.9211 20.7012 24.7073 19.2163C24.5395 18.0555 24.3947 16.8924 24.2522 15.7292C24.1487 14.8879 23.4706 14.2811 22.6293 14.2972C21.7926 14.3133 21.1651 14.9063 21.0662 15.7476C20.9352 16.8487 20.7881 17.9497 20.6387 19.0485C20.4433 20.4966 19.6181 21.492 18.2918 22C17.5516 22.285 16.7356 22.4206 15.9425 22.5103C13.8669 22.7401 11.7866 22.6988 9.72008 22.3815C8.35008 22.1701 7.20535 21.5655 6.50197 20.3128C6.40312 20.1381 6.36405 19.8576 6.43301 19.6783C6.59391 19.2623 7.18926 19.237 7.40764 19.6392C7.95702 20.6575 8.86038 21.1058 9.94535 21.2667C12.2946 21.6115 14.6461 21.6046 16.993 21.2391C18.4458 21.0115 19.3422 20.1404 19.533 18.8255C19.625 18.1888 19.6985 17.5498 19.779 16.913C19.9422 15.6373 20.0985 14.3615 20.2663 13.0858C20.356 12.4146 20.2042 12.1158 19.5422 11.9434C18.8733 11.7687 18.1906 11.6353 17.5079 11.5273C15.5839 11.2239 13.6462 11.1434 11.6418 11.2699C11.6418 11.4216 11.6418 11.5664 11.6418 11.7112C11.6418 12.4307 11.651 13.1501 11.6372 13.8696C11.6234 14.6144 11.1659 15.0649 10.4189 15.0695C9.3477 15.0787 8.27423 15.0718 7.20306 15.0718C7.06514 15.0718 6.92952 15.0718 6.73873 15.0718C6.81458 15.6718 6.87895 16.2303 6.9548 16.7889C7.01687 17.2509 6.87895 17.5015 6.51116 17.5636C6.12729 17.6279 5.90432 17.4325 5.83536 16.9521C5.7618 16.4395 5.67675 15.9292 5.63767 15.4143C5.61699 15.1247 5.49975 15.0419 5.23541 15.0695C5.07221 15.0856 4.9067 15.0603 4.7435 15.0741C4.04241 15.1408 3.55279 14.858 3.27926 14.2052C3.27466 13.0973 3.27466 11.987 3.27466 10.8768ZM31.9343 11.1411C30.6171 11.2584 29.2954 11.3457 27.9829 11.502C27.2358 11.5917 26.4957 11.7664 25.7624 11.9503C25.2475 12.079 24.9303 12.3916 25.0429 13.0697C25.2544 14.3363 25.3785 15.6189 25.5394 16.8947C25.6176 17.5199 25.6911 18.1451 25.7808 18.7704C25.9762 20.1541 26.8818 21.023 28.3805 21.2529C30.4241 21.5678 32.4744 21.6046 34.5271 21.377C35.1961 21.3035 35.8765 21.1679 36.5063 20.9334C37.3729 20.6116 37.9521 19.9565 38.0832 19.0117C38.3613 16.9889 38.6119 14.9615 38.8624 12.9364C38.9268 12.4215 38.782 12.2031 38.2969 12.0054C38.1452 11.9434 37.9866 11.8997 37.828 11.8606C35.8902 11.4055 33.9249 11.2193 31.9343 11.1411ZM40.0623 12.8858C40.6117 12.9571 40.7036 12.8904 40.7749 12.3686C40.814 12.0813 40.8324 11.7916 40.8829 11.5066C40.968 11.0308 40.7841 10.6883 40.3726 10.4722C40.152 10.3573 39.9152 10.247 39.6715 10.2033C38.2257 9.93204 36.7844 9.59643 35.3248 9.43782C31.709 9.04935 28.1277 9.22635 24.62 10.3021C23.2637 10.7182 21.8938 10.7596 20.5306 10.2837C18.7055 9.6447 16.8137 9.38266 14.8921 9.29071C12.6049 9.18038 10.3292 9.29991 8.06965 9.67459C7.33408 9.79641 6.60771 9.96422 5.87444 10.1113C7.56624 10.1826 9.24656 10.2561 10.9177 10.1642C13.2577 10.0355 15.5816 10.0585 17.8918 10.44C18.671 10.5688 19.4595 10.7251 20.1996 10.994C21.1674 11.3457 21.5512 12.1272 21.4018 13.1318C21.388 13.2214 21.3926 13.3157 21.3857 13.4398C22.2477 13.0398 23.0799 13.0582 23.9327 13.4352C23.9143 13.0927 23.8476 12.7755 23.8936 12.4743C24.0476 11.4721 24.7625 11.0101 25.6658 10.7986C29.8103 9.824 33.9617 9.83779 38.1107 10.7618C39.3888 11.0446 39.8439 11.5618 40.0623 12.8858ZM6.58012 8.70455C6.58702 8.72984 6.59621 8.75512 6.60311 8.77811C7.05824 8.69766 7.52257 8.64019 7.96851 8.52526C8.20757 8.4632 8.46961 8.34826 8.63512 8.17586C10.12 6.61048 11.5751 5.01981 13.0646 3.45903C13.3336 3.17859 13.6899 2.93953 14.0507 2.79702C14.6277 2.57175 15.1886 2.73036 15.7012 3.06826C16.6689 3.70728 17.6366 4.34401 18.609 4.97614C18.8756 5.14854 19.1331 5.15314 19.3376 4.8704C19.5307 4.60146 19.5009 4.25896 19.271 4.04518C19.2158 3.99461 19.1515 3.95324 19.0871 3.91186C17.9309 3.14411 16.7792 2.37636 15.6207 1.61321C14.6369 0.967288 13.6715 1.09142 12.8715 1.95111C11.9176 2.97631 10.9614 3.99921 10.0074 5.02211C8.86498 6.25189 7.72255 7.47937 6.58012 8.70455ZM4.42398 13.9156C6.45599 13.9156 8.45582 13.9156 10.4786 13.9156C10.4786 13.0559 10.4786 12.2192 10.4786 11.3641C8.45122 11.3641 6.4445 11.3641 4.42398 11.3641C4.42398 12.2215 4.42398 13.049 4.42398 13.9156Z" fill="black"/>
<path d="M6.55931 31.8635C4.93417 31.8612 3.63083 30.5602 3.62623 28.935C3.62164 27.2961 4.94796 25.9767 6.5823 25.9905C8.20975 26.0043 9.49929 27.3122 9.49469 28.9396C9.4901 30.5671 8.18676 31.8658 6.55931 31.8635ZM8.36146 28.9373C8.36606 27.9305 7.57532 27.1306 6.57311 27.126C5.57089 27.1214 4.76866 27.9144 4.76407 28.9166C4.75947 29.9212 5.5525 30.7234 6.55472 30.728C7.55693 30.7326 8.35686 29.9418 8.36146 28.9373Z" fill="black"/>
<path d="M50.135 18.6324C48.9902 19.7772 47.1306 19.7841 45.9836 18.6462C44.8297 17.5038 44.8343 15.6097 45.9974 14.465C47.1536 13.3249 49.004 13.334 50.1464 14.4834C51.2889 15.635 51.2843 17.4854 50.135 18.6324ZM49.3235 17.8371C50.0384 17.1291 50.0476 16.0005 49.3419 15.2902C48.6385 14.5776 47.5053 14.5707 46.7927 15.2741C46.0824 15.9752 46.0732 17.1176 46.7697 17.8279C47.4639 18.5313 48.6178 18.5359 49.3235 17.8371Z" fill="black"/>
<path d="M8.29028 25.7628C7.82135 25.7559 7.52482 25.4066 7.66044 25.0595C7.92249 24.3951 8.22132 23.7446 8.54313 23.1079C8.67415 22.8482 8.94539 22.7723 9.22813 22.9033C9.52465 23.0389 9.65108 23.301 9.53385 23.586C9.2672 24.2365 8.97068 24.8733 8.65116 25.4985C8.57991 25.641 8.36613 25.71 8.29028 25.7628Z" fill="black"/>
<path d="M40.4689 31.2475C39.3196 32.3946 37.476 32.3969 36.3244 31.2498C35.1636 30.0936 35.1659 28.2225 36.3336 27.0778C37.4944 25.9377 39.3311 25.9491 40.4781 27.1031C41.6251 28.257 41.6205 30.0982 40.4689 31.2475ZM39.6736 27.9053C38.9656 27.1904 37.8392 27.1835 37.1289 27.8892C36.4164 28.5949 36.4095 29.7235 37.1152 30.4361C37.8208 31.1487 38.9495 31.1556 39.6598 30.4499C40.3746 29.7419 40.3815 28.6179 39.6736 27.9053Z" fill="black"/>
<path d="M37.3796 25.71C37.0417 26.0364 36.5843 25.9997 36.4371 25.6594C36.1521 25.0043 35.9039 24.3331 35.6809 23.655C35.5912 23.3792 35.7292 23.1332 36.0211 23.0252C36.3268 22.9126 36.6026 23.0091 36.7199 23.2918C36.9911 23.9401 37.2302 24.5998 37.4463 25.2687C37.4968 25.4204 37.3957 25.6204 37.3796 25.71Z" fill="black"/>
<path d="M-5.13858 19.7219C-6.28561 18.5726 -6.28791 16.7291 -5.14088 15.5775C-3.98465 14.4167 -2.11355 14.4189 -0.968822 15.5867C0.17131 16.7475 0.159817 18.5841 -0.994107 19.7311C-2.15033 20.8759 -3.99155 20.8736 -5.13858 19.7219ZM-1.79634 18.9266C-1.08146 18.2186 -1.07456 17.0923 -1.78025 16.382C-2.48593 15.6694 -3.61457 15.6625 -4.32715 16.3682C-5.03974 17.0739 -5.04663 18.2025 -4.34095 18.9128C-3.63296 19.6277 -2.50892 19.6323 -1.79634 18.9266Z" fill="black"/>
<path d="M0.396663 16.6325C0.0702539 16.2946 0.107033 15.8372 0.447233 15.6901C1.10235 15.405 1.77356 15.1568 2.45166 14.9338C2.7275 14.8442 2.97345 14.9821 3.08149 15.274C3.19412 15.5797 3.09758 15.8556 2.81485 15.9728C2.16663 16.244 1.50691 16.4831 0.838004 16.6992C0.688592 16.7498 0.488609 16.6486 0.396663 16.6325Z" fill="black"/>
<path d="M44.5836 15.5545C44.4663 15.5614 44.2342 15.635 44.0457 15.5752C43.448 15.3867 42.8619 15.1591 42.278 14.9293C41.924 14.7891 41.7907 14.4902 41.9102 14.1753C42.0229 13.8765 42.3102 13.7432 42.655 13.865C43.2596 14.0765 43.8595 14.2971 44.4526 14.5385C44.864 14.7086 44.9583 15.1729 44.5836 15.5545Z" fill="black"/>
<path d="M6.58008 8.70464C7.72251 7.47716 8.86494 6.25197 10.0074 5.02449C10.9613 3.99929 11.9175 2.97869 12.8715 1.95349C13.6714 1.0938 14.6369 0.967371 15.6207 1.61559C16.7792 2.37645 17.9331 3.14649 19.0871 3.91424C19.1491 3.95562 19.2158 3.997 19.2709 4.04757C19.5008 4.26134 19.5307 4.60384 19.3376 4.87278C19.133 5.15552 18.8756 5.15322 18.6089 4.97852C17.6366 4.34639 16.6689 3.70737 15.7011 3.07064C15.1885 2.73274 14.6277 2.57413 14.0507 2.7994C13.6898 2.94191 13.3335 3.18097 13.0646 3.46141C11.5773 5.0199 10.1223 6.61286 8.63737 8.17595C8.47187 8.35064 8.20982 8.46328 7.97076 8.52534C7.52253 8.64028 7.0605 8.69774 6.60536 8.77819C6.59617 8.75521 6.58927 8.72992 6.58008 8.70464Z" fill="white"/>
<path d="M37.6439 14.5156C37.5266 14.711 37.4669 14.8696 37.3588 14.9776C35.5728 16.7729 33.7844 18.5658 31.9892 20.3519C31.7065 20.6323 31.4076 20.6254 31.1594 20.3703C30.9157 20.1197 30.9203 19.8255 31.2053 19.5404C32.9845 17.7544 34.766 15.9752 36.5474 14.1915C36.7313 14.0076 36.952 13.8858 37.1864 14.0306C37.3611 14.1409 37.4807 14.3386 37.6439 14.5156Z" fill="black"/>
<path d="M34.6833 20.4599C34.5385 20.3312 34.3247 20.2232 34.2512 20.0554C34.1845 19.906 34.2006 19.6186 34.304 19.5106C34.9844 18.7865 35.6901 18.0831 36.4073 17.3958C36.6303 17.1844 36.9084 17.2464 37.1199 17.4579C37.3314 17.6694 37.3957 17.9498 37.1842 18.1705C36.4878 18.8992 35.7683 19.6025 35.0511 20.3082C34.9798 20.3772 34.8511 20.3933 34.6833 20.4599Z" fill="black"/>
<path d="M6.55235 12.0743C6.8167 12.0743 7.08104 12.0628 7.34309 12.0766C7.6718 12.095 7.85339 12.2996 7.86948 12.6099C7.88327 12.9064 7.71547 13.1478 7.41895 13.1708C6.84428 13.2121 6.26272 13.2282 5.68806 13.1984C5.38004 13.1823 5.20534 12.9386 5.22373 12.6145C5.24212 12.3088 5.42142 12.1226 5.72254 12.095C5.99608 12.0697 6.27422 12.0904 6.55235 12.0904C6.55235 12.0835 6.55235 12.0789 6.55235 12.0743Z" fill="black"/>
<path d="M9.70608 12.6444C9.71068 12.9594 9.48311 13.2099 9.17739 13.2191C8.86477 13.2306 8.63031 13.0053 8.61652 12.6812C8.60043 12.3387 8.83029 12.0882 9.159 12.0905C9.46702 12.0905 9.70148 12.3249 9.70608 12.6444Z" fill="black"/>
</svg>
