<svg width="127" height="34" viewBox="0 0 127 34" fill="none" xmlns="http://www.w3.org/2000/svg">
<path d="M18.0059 33.8801H21.2048V19.4724H18.0059V33.8801ZM41.8684 33.8801H55.4894V31.468H45.0837V27.9113H51.9598V25.4973H45.0837V21.9053H55.1707V19.4724H41.8684V33.8801ZM69.4113 23.7565C69.4113 24.4562 69.1766 24.92 68.7052 25.1471C68.2358 25.3749 67.6452 25.491 66.9436 25.491H61.1218V21.9255H66.9436C67.6452 21.9255 68.2358 22.0643 68.7052 22.3356C69.1766 22.6082 69.4113 23.0839 69.4113 23.7565V23.7565ZM72.6178 23.7565C72.6178 22.1892 72.13 21.0882 71.1495 20.4572C70.1672 19.8231 68.6983 19.5102 66.7392 19.5102H57.9141V33.8599H61.1294L61.1218 27.9107H66.7392C68.6983 27.9107 70.1672 27.6116 71.1495 27.0103C72.13 26.4128 72.6178 25.325 72.6178 23.7565V23.7565ZM74.551 33.8965H88.63V31.4888H77.7114V19.4648L74.551 19.473V33.8965ZM91.0346 33.8801H104.654V31.468H94.2499V27.8968H101.125V25.4828H94.2499V21.9059H104.336V19.473H91.0346V33.8801Z" fill="white"/>
<path d="M16.2143 21.0409C15.7746 20.7658 15.0717 20.3935 14.0357 20.039C13.4584 19.8389 12.8097 19.6459 12.0211 19.5159C11.2538 19.3885 10.4178 19.285 9.49664 19.285C8.31045 19.285 7.15644 19.4396 6.02893 19.743C4.90458 20.0509 3.90641 20.5147 3.03192 21.1337C2.1631 21.7545 1.45831 22.523 0.927684 23.4373C0.3939 24.3534 0.128906 25.4203 0.128906 26.645C0.128906 27.8628 0.3939 28.9347 0.927684 29.8603C1.45831 30.7859 2.1511 31.5607 2.9972 32.1829C3.84394 32.8018 4.8112 33.2568 5.90148 33.5394C6.99303 33.8221 8.0833 34 9.1963 34C10.2834 34 11.1983 33.9243 12.0842 33.7508C12.965 33.5741 13.8262 33.3198 14.4931 33.0656C14.4931 33.0656 15.3247 32.7242 16.297 32.2043L14.3871 30.2869C14.0281 30.4812 13.6111 30.6831 13.1309 30.8743C12.5763 31.0939 11.9554 31.2629 11.2778 31.4144C10.5989 31.5664 9.65373 31.6434 9.00195 31.6434C8.29781 31.6434 7.60819 31.5279 6.93244 31.3008C6.25354 31.0718 5.64783 30.7342 5.11405 30.2869C4.58152 29.8427 4.15122 29.3057 3.82629 28.6868C3.49756 28.0659 3.33415 27.3618 3.33415 26.5781C3.33415 25.7913 3.47799 25.0942 3.77075 24.484C4.0591 23.8739 4.47237 23.3628 5.003 22.9502C5.53994 22.5344 6.16205 22.2258 6.87818 22.0164C7.59052 21.8119 8.38426 21.7084 9.25308 21.7084C9.97993 21.7084 10.9251 21.7659 11.5308 21.8876C11.8614 21.952 12.1662 22.0258 12.4476 22.1059C12.4476 22.1059 13.2659 22.3243 14.302 22.9615L16.2143 21.0409Z" fill="white"/>
<path d="M125.366 20.5355C125.317 20.55 125.248 20.5607 125.154 20.5607H124.959V20.1153H125.143C125.266 20.1153 125.354 20.1273 125.409 20.1588C125.464 20.1891 125.491 20.2503 125.491 20.3411C125.492 20.4345 125.449 20.4995 125.366 20.5355V20.5355ZM125.616 20.7462C125.57 20.6787 125.498 20.6396 125.402 20.6251C125.476 20.6125 125.537 20.5948 125.58 20.5652C125.662 20.5141 125.703 20.4333 125.703 20.3216C125.703 20.167 125.637 20.0629 125.509 20.0093C125.438 19.9809 125.327 19.9676 125.177 19.9676H124.741V21.1999H124.959V20.714H125.13C125.248 20.714 125.327 20.7273 125.374 20.7532C125.452 20.7992 125.488 20.8939 125.488 21.0358V21.1343L125.495 21.1734C125.495 21.1791 125.495 21.1854 125.498 21.1885V21.2005H125.703L125.696 21.1854C125.691 21.1734 125.688 21.1526 125.686 21.1197V20.9374C125.686 20.8743 125.659 20.8119 125.616 20.7462V20.7462ZM126.159 20.586C126.159 20.8554 126.066 21.085 125.883 21.2743C125.691 21.4642 125.464 21.5614 125.194 21.5614C124.927 21.5614 124.696 21.4642 124.511 21.2743C124.323 21.0857 124.23 20.8554 124.23 20.586C124.23 20.3197 124.326 20.0926 124.511 19.9039C124.701 19.7127 124.931 19.6187 125.194 19.6187C125.464 19.6187 125.691 19.7127 125.883 19.9039C126.066 20.0926 126.159 20.3197 126.159 20.586ZM126.321 20.5847C126.321 20.2749 126.21 20.0105 125.991 19.7935C125.774 19.572 125.507 19.4642 125.195 19.4642C124.887 19.4642 124.624 19.572 124.406 19.7935C124.187 20.0105 124.076 20.2749 124.076 20.5847C124.076 20.8958 124.184 21.1633 124.4 21.3835C124.62 21.6031 124.884 21.7141 125.195 21.7141C125.507 21.7141 125.774 21.6031 125.991 21.3835C126.21 21.162 126.321 20.8958 126.321 20.5847" fill="white"/>
<path d="M106.127 19.4643L120.264 33.8259H124.18L110.03 19.4643H106.127Z" fill="white"/>
<path d="M124.178 19.4643L110.042 33.8259H106.125L120.275 19.4643H124.178Z" fill="white"/>
<path d="M39.4231 33.8455V19.4377H36.6507V29.8553L26.4274 19.4478V19.4377H23.6562V33.8455H26.4274V23.4575L36.6507 33.8423V33.8455H39.4231Z" fill="white"/>
<path d="M91.3724 7.54681C91.3724 3.55542 79.8701 0.285835 65.2908 1.49389e-05L65.1665 1.10418C77.1861 1.38684 86.6377 4.28224 86.6377 7.8143C86.6377 11.4334 76.7255 14.3857 64.2888 14.544L64.3759 15.1062C79.3887 14.9434 91.3724 11.6221 91.3724 7.54681" fill="#FFCB05"/>
<path d="M80.9096 8.4471C80.9096 11.1614 73.4701 13.3779 64.115 13.5123L64.2021 14.0688C75.1017 13.9237 83.7849 11.3381 83.7849 8.17198C83.7849 5.08663 75.5446 2.55461 65.0412 2.29025L64.9182 3.40138C73.8897 3.64493 80.9096 5.81162 80.9096 8.4471" fill="#FFCB05"/>
<path d="M78.0777 8.79116C78.0777 6.60492 72.256 4.80606 64.7918 4.58397L64.6675 5.69383C70.6167 5.89447 75.2321 7.32672 75.2321 9.06751C75.2321 10.8802 70.235 12.3604 63.9375 12.462L64.0246 13.0154C71.854 12.9024 78.0777 11.0538 78.0777 8.79116" fill="#FFCB05"/>
<path d="M35.0759 7.54681C35.0759 3.55542 46.5782 0.285835 61.1607 1.49389e-05L61.2837 1.10418C49.2628 1.38684 39.8112 4.28224 39.8112 7.8143C39.8112 11.4334 49.7234 14.3857 62.1601 14.544L62.073 15.1062C47.0608 14.9434 35.0759 11.6221 35.0759 7.54681Z" fill="#FFCB05"/>
<path d="M45.5378 8.4471C45.5378 11.1614 52.9799 13.3779 62.3324 13.5123L62.246 14.0688C51.3463 13.9237 42.6638 11.3381 42.6638 8.17198C42.6638 5.08663 50.904 2.55461 61.4075 2.29025L61.533 3.40138C52.5578 3.64493 45.5378 5.81162 45.5378 8.4471" fill="#FFCB05"/>
<path d="M48.3708 8.79116C48.3708 6.60492 54.1914 4.80606 61.6555 4.58397L61.7792 5.69383C55.8312 5.89447 51.2152 7.32672 51.2152 9.06751C51.2152 10.8802 56.2129 12.3604 62.5092 12.462L62.4221 13.0154C54.5933 12.9024 48.3708 11.0538 48.3708 8.79116" fill="#FFCB05"/>
</svg>
