<svg width="183" height="20" viewBox="0 0 183 20" fill="none" xmlns="http://www.w3.org/2000/svg">
<path d="M19.8064 14.9491H19.5896C19.5376 14.9491 19.4942 14.9776 19.474 15.019C18.3929 17.4992 16.2046 18.8662 13.3139 18.8662H6.76653V12.8132H9.74972C12.4756 12.8132 14.1811 13.898 14.1985 15.6455C14.1985 15.7051 14.2534 15.7543 14.3228 15.7543H14.5396C14.609 15.7543 14.6639 15.7051 14.6639 15.6429V9.5977C14.6639 9.53556 14.609 9.48637 14.5396 9.48637H14.3228C14.2534 9.48637 14.1985 9.53556 14.1985 9.5977C14.1985 11.5187 12.7849 12.4119 9.74972 12.4119H6.76653V6.72912H13.2937C15.5109 6.72912 17.4216 8.10128 18.4044 10.3977C18.4218 10.4417 18.468 10.4676 18.5201 10.4676H18.7369C18.7744 10.4676 18.812 10.4521 18.8351 10.4236C18.8583 10.3951 18.8669 10.3589 18.8554 10.3252L17.5286 6.17767C17.5141 6.13107 17.465 6.09741 17.41 6.09741H17.1932C17.1585 6.09741 17.1267 6.11036 17.1007 6.13366C17.0892 6.14401 17.0805 6.15955 17.0747 6.17249C16.8001 6.30971 14.6957 6.30971 13.2937 6.30971H9.21494C8.75243 6.30971 7.91702 6.31747 7.07584 6.32783C6.22886 6.3356 5.37611 6.34595 4.89915 6.34595C4.42508 6.34595 3.65905 6.33819 2.89012 6.32783C2.1212 6.32006 1.35517 6.30971 0.878206 6.30971C0.808829 6.30971 0.753906 6.3589 0.753906 6.42103V6.61521C0.753906 6.67734 0.808829 6.72653 0.878206 6.72653H2.9913V18.861H0.878206C0.808829 18.861 0.753906 18.9102 0.753906 18.9724V19.1665C0.753906 19.2287 0.808829 19.2779 0.878206 19.2779C1.33493 19.2779 2.10675 19.2701 2.87856 19.2597C3.65037 19.252 4.42219 19.2416 4.87602 19.2416C5.35299 19.2416 6.19129 19.2494 7.0238 19.2597C7.84765 19.2675 8.6686 19.2779 9.13111 19.2779H13.3082C15.1408 19.2779 17.4158 19.2779 17.6789 19.4694C17.6789 19.4927 17.6875 19.5186 17.7049 19.5368C17.728 19.5626 17.7627 19.5782 17.8032 19.5782H18.02C18.072 19.5782 18.1183 19.5497 18.1356 19.5057L19.9163 15.0915C19.9307 15.0578 19.9249 15.019 19.9018 14.9905C19.8787 14.962 19.8469 14.9491 19.8064 14.9491Z" fill="#E9EAF0"/>
<path d="M51.9745 16.7924H51.7577C51.6883 16.7924 51.6334 16.8416 51.6334 16.9037C51.6334 18.2707 50.2834 18.8843 49.3237 18.8843C47.8003 18.8843 47.3812 17.463 46.9736 16.0908C46.9274 15.9303 46.8782 15.7724 46.832 15.617C46.3463 14.0377 44.8692 13.362 43.4846 13.085C46.1382 12.663 47.4303 11.5886 47.4303 9.81514C47.4303 6.29932 42.2791 6.29932 38.5184 6.29932H27.7708C27.7014 6.29932 27.6465 6.34851 27.6465 6.41064V6.60481C27.6465 6.66695 27.7014 6.71614 27.7708 6.71614H30.1816V18.8688H27.7708C27.7014 18.8688 27.6465 18.918 27.6465 18.9801V19.1743C27.6465 19.2364 27.7014 19.2856 27.7708 19.2856C28.4588 19.2856 29.1728 19.2778 29.8897 19.2675C30.6152 19.2597 31.3495 19.2493 32.0663 19.2493C32.7543 19.2493 33.4712 19.2571 34.191 19.2675C34.9252 19.2752 35.6624 19.2856 36.3792 19.2856C36.4486 19.2856 36.5035 19.2364 36.5035 19.1743V18.9801C36.5035 18.918 36.4486 18.8688 36.3792 18.8688H33.9684V13.3465H39.2295C41.4611 13.3465 42.1751 14.7212 42.6145 16.2073C43.2128 18.2112 43.8285 19.4409 47.3407 19.5859C47.4303 19.5885 47.5489 19.5937 47.6905 19.5937C48.5635 19.5937 50.3066 19.4746 51.327 18.5995C51.8415 18.1594 52.1017 17.5898 52.1017 16.9063C52.0988 16.8416 52.0439 16.7924 51.9745 16.7924ZM33.9655 6.71355H38.5126C40.7904 6.71355 43.1203 7.08119 43.1203 9.81255C43.1203 12.5517 40.9061 12.9271 38.5126 12.9271H33.9655V6.71355V6.71355Z" fill="#E9EAF0"/>
<path d="M78.5184 14.9491H78.3016C78.2495 14.9491 78.2062 14.9776 78.1859 15.019C77.1048 17.4992 74.9166 18.8662 72.0259 18.8662H65.4785V12.8132H68.4617C71.1876 12.8132 72.8931 13.898 72.9104 15.6455C72.9104 15.7051 72.9654 15.7543 73.0347 15.7543H73.2515C73.3209 15.7543 73.3758 15.7051 73.3758 15.6429V9.5977C73.3758 9.53556 73.3209 9.48637 73.2515 9.48637H73.0347C72.9654 9.48637 72.9104 9.53556 72.9104 9.5977C72.9104 11.5187 71.4969 12.4119 68.4617 12.4119H65.4785V6.72912H72.0057C74.2228 6.72912 76.1336 8.10128 77.1164 10.3977C77.1337 10.4417 77.18 10.4676 77.232 10.4676H77.4488C77.4864 10.4676 77.524 10.4521 77.5471 10.4236C77.5702 10.3951 77.5789 10.3589 77.5673 10.3252L76.2405 6.17767C76.2261 6.13107 76.1769 6.09741 76.122 6.09741H75.9052C75.8705 6.09741 75.8387 6.11036 75.8127 6.13366C75.8011 6.14401 75.7924 6.15955 75.7867 6.17249C75.5121 6.30971 73.4076 6.30971 72.0057 6.30971H67.9269C67.4644 6.30971 66.629 6.31747 65.7878 6.32783C64.9408 6.3356 64.0881 6.34595 63.6111 6.34595C63.137 6.34595 62.371 6.33819 61.605 6.32783C60.836 6.32006 60.07 6.30971 59.5931 6.30971C59.5237 6.30971 59.4688 6.3589 59.4688 6.42103V6.61521C59.4688 6.67734 59.5237 6.72653 59.5931 6.72653H61.7061V18.861H59.5931C59.5237 18.861 59.4688 18.9102 59.4688 18.9724V19.1665C59.4688 19.2287 59.5237 19.2779 59.5931 19.2779C60.0498 19.2779 60.8216 19.2701 61.5934 19.2597C62.3652 19.252 63.137 19.2416 63.5909 19.2416C64.0678 19.2416 64.9061 19.2494 65.7386 19.2597C66.5625 19.2675 67.3834 19.2779 67.846 19.2779H72.023C73.8557 19.2779 76.1307 19.2779 76.3937 19.4694C76.3937 19.4927 76.4024 19.5186 76.4197 19.5368C76.4429 19.5626 76.4775 19.5782 76.518 19.5782H76.7348C76.7868 19.5782 76.8331 19.5497 76.8504 19.5057L78.6311 15.0915C78.6456 15.0578 78.6398 15.019 78.6167 14.9905C78.5964 14.9672 78.5588 14.9491 78.5184 14.9491Z" fill="#E9EAF0"/>
<path d="M108.4 12.79C108.4 8.3421 103.113 6.31494 98.2017 6.31494H94.3629C93.7992 6.31494 93.1604 6.32271 92.5186 6.33306C91.8798 6.34083 91.2439 6.35119 90.6802 6.35119C90.1281 6.35119 89.4054 6.34342 88.6798 6.33306C87.9456 6.3253 87.2085 6.31494 86.6419 6.31494C86.5725 6.31494 86.5176 6.36413 86.5176 6.42627V6.62044C86.5176 6.68258 86.5725 6.73177 86.6419 6.73177H88.755V18.8663H86.6419C86.5725 18.8663 86.5176 18.9155 86.5176 18.9776V19.1718C86.5176 19.2339 86.5725 19.2831 86.6419 19.2831C87.1651 19.2831 87.882 19.2753 88.6047 19.265C89.3331 19.2572 90.0645 19.2468 90.5992 19.2468C91.1196 19.2468 91.7902 19.2546 92.4608 19.265C93.1401 19.2727 93.8223 19.2831 94.36 19.2831H98.1988C100.722 19.2831 103.2 18.7446 104.998 17.8048C107.224 16.6449 108.4 14.9103 108.4 12.79ZM104.093 12.79C104.093 16.9867 101.142 18.8663 98.2191 18.8663H92.5244V6.73177H98.2191C101.144 6.73177 104.093 8.60618 104.093 12.79Z" fill="#E9EAF0"/>
<path d="M125.242 19.1718V18.9776C125.242 18.9155 125.187 18.8663 125.118 18.8663H122.707V6.73177H125.118C125.187 6.73177 125.242 6.68258 125.242 6.62044V6.42627C125.242 6.36413 125.187 6.31494 125.118 6.31494C124.415 6.31494 123.687 6.32271 122.958 6.33306C122.233 6.34083 121.504 6.35119 120.802 6.35119C120.097 6.35119 119.374 6.34342 118.651 6.33306C117.934 6.3253 117.218 6.31494 116.527 6.31494C116.457 6.31494 116.402 6.36413 116.402 6.42627V6.62044C116.402 6.68258 116.457 6.73177 116.527 6.73177H118.937V18.8663H116.527C116.457 18.8663 116.402 18.9155 116.402 18.9776V19.1718C116.402 19.2339 116.457 19.2831 116.527 19.2831C117.218 19.2831 117.934 19.2753 118.651 19.265C119.374 19.2572 120.097 19.2468 120.802 19.2468C121.504 19.2468 122.23 19.2546 122.958 19.265C123.687 19.2727 124.415 19.2831 125.118 19.2831C125.187 19.2831 125.242 19.2339 125.242 19.1718Z" fill="#E9EAF0"/>
<path d="M150.45 6.16479C150.436 6.11819 150.386 6.08453 150.331 6.08453H150.115C150.077 6.08453 150.042 6.10006 150.019 6.12336C150.011 6.13372 150.002 6.14666 149.996 6.15961C149.655 6.31495 146.796 6.31495 145.562 6.31495H137.228C136.286 6.31495 134.863 6.31495 134.739 6.1855C134.742 6.15443 134.73 6.12336 134.707 6.10265C134.684 6.07935 134.652 6.06641 134.618 6.06641H134.401C134.346 6.06641 134.297 6.10006 134.282 6.14666L132.976 10.3304C132.964 10.3641 132.973 10.4003 132.996 10.4262C133.019 10.4547 133.057 10.4702 133.094 10.4702H133.311C133.363 10.4702 133.407 10.4418 133.427 10.4003C134.462 8.02108 135.667 6.72918 139.072 6.72918H140.434V18.8637H138.023C137.954 18.8637 137.899 18.9129 137.899 18.975V19.1692C137.899 19.2313 137.954 19.2805 138.023 19.2805C138.711 19.2805 139.425 19.2727 140.142 19.2624C140.867 19.2546 141.602 19.2443 142.318 19.2443C143.009 19.2443 143.726 19.252 144.449 19.2624C145.177 19.2702 145.909 19.2805 146.614 19.2805C146.683 19.2805 146.738 19.2313 146.738 19.1692V18.975C146.738 18.9129 146.683 18.8637 146.614 18.8637H144.223V6.72918H145.683C148.791 6.72918 150.418 7.79066 151.306 10.3926C151.32 10.4392 151.369 10.4702 151.424 10.4702H151.641C151.679 10.4702 151.716 10.4547 151.739 10.4262C151.762 10.3978 151.771 10.3615 151.759 10.3304L150.45 6.16479Z" fill="#E9EAF0"/>
<path d="M182.379 18.8663H179.934L171.438 6.42109C171.429 6.41073 171.421 6.40038 171.412 6.39261C171.397 6.34601 171.348 6.31494 171.293 6.31494C171.025 6.31494 170.747 6.32271 170.467 6.33306C170.192 6.34083 169.914 6.35119 169.649 6.35119C169.391 6.35119 168.229 6.34342 167.067 6.33306C165.902 6.3253 164.74 6.31494 164.483 6.31494C164.414 6.31494 164.359 6.36413 164.359 6.42627V6.62044C164.359 6.68258 164.414 6.73177 164.483 6.73177H167.27L158.93 18.8663H156.464C156.395 18.8663 156.34 18.9155 156.34 18.9776V19.1718C156.34 19.2002 156.354 19.2287 156.377 19.2494C156.401 19.2701 156.432 19.2831 156.464 19.2831C157.158 19.2831 157.461 19.2753 157.753 19.265C158.048 19.2572 158.355 19.2468 159.057 19.2468C159.757 19.2468 160.101 19.2546 160.43 19.265C160.763 19.2727 161.104 19.2831 161.809 19.2831C161.841 19.2831 161.873 19.2701 161.896 19.2494C161.919 19.2287 161.933 19.2002 161.933 19.1718V18.9776C161.933 18.9155 161.878 18.8663 161.809 18.8663H159.476L162.295 14.7628H172.903L175.702 18.8663H173.349C173.279 18.8663 173.224 18.9155 173.224 18.9776V19.1718C173.224 19.2339 173.279 19.2831 173.349 19.2831C174.297 19.2831 175.083 19.2727 175.843 19.265C176.523 19.2572 177.167 19.2494 177.861 19.2494C178.422 19.2494 179.303 19.2598 180.174 19.2676C181.021 19.2753 181.856 19.2857 182.373 19.2857C182.443 19.2857 182.498 19.2365 182.498 19.1744V18.9802C182.503 18.9155 182.449 18.8663 182.379 18.8663ZM172.62 14.3459H162.592L167.637 7.02691L172.62 14.3459Z" fill="#E9EAF0"/>
<path d="M163.721 2.52207C163.406 2.42627 163.019 2.12078 162.9 1.80233C162.73 1.33114 162.88 0.787456 163.241 0.432767C163.412 0.259306 163.623 0.135035 163.854 0.0677222C164.36 -0.0798491 164.953 0.0185318 165.294 0.316263L169.962 4.39907L169.771 4.45344L163.721 2.52207Z" fill="#E9EAF0"/>
</svg>
