<svg width="48" height="44" viewBox="0 0 48 44" fill="none" xmlns="http://www.w3.org/2000/svg">
<path d="M47.8889 42.6477C47.5039 43.1744 47.3086 43.2395 46.7071 43.002C42.706 41.4238 38.7068 39.8436 34.7076 38.2654C33.6293 37.8402 32.8862 37.099 32.5567 35.9766C32.4897 35.7487 32.3901 35.6453 32.1392 35.6606C31.7849 35.6816 31.4286 35.6663 30.9977 35.6663C30.9977 35.8579 30.9977 36.0207 30.9977 36.1835C30.9977 37.2886 31.0015 38.3918 30.9957 39.497C30.9919 40.0754 30.7506 40.3301 30.1779 40.3301C27.2225 40.3359 24.2672 40.334 21.3138 40.3301C20.8005 40.3301 20.5055 40.0562 20.5132 39.6272C20.5189 39.2078 20.8234 38.9377 21.3387 38.9358C23.8899 38.93 26.4392 38.9339 28.9904 38.9339C29.1743 38.9339 29.3581 38.9339 29.5707 38.9339C29.5707 33.8046 29.5707 28.7099 29.5707 23.5749C23.0433 23.5749 16.5063 23.5749 9.94057 23.5749C9.94057 24.4693 9.94057 25.3638 9.94057 26.3349C10.1244 26.3349 10.3198 26.3349 10.5133 26.3349C16.0505 26.3349 21.5857 26.3349 27.1229 26.3349C28.0078 26.3349 28.2013 26.5226 28.2013 27.3902C28.2013 29.9721 28.2013 32.5539 28.2013 35.1358C28.2013 35.9287 28.0002 36.1317 27.2149 36.1337C21.647 36.1356 16.0792 36.1337 10.5113 36.1337C10.3275 36.1337 10.1455 36.1337 9.93674 36.1337C9.93674 37.076 9.93674 37.9705 9.93674 38.9339C10.1187 38.9339 10.2968 38.9339 10.4769 38.9339C13.0128 38.9339 15.5467 38.9319 18.0826 38.9358C18.2665 38.9358 18.4599 38.9415 18.6323 38.9971C18.9713 39.1082 19.1188 39.3725 19.0805 39.723C19.0441 40.0562 18.8468 40.2593 18.5174 40.3167C18.3814 40.3397 18.2378 40.334 18.0979 40.334C15.2364 40.334 12.3749 40.3359 9.51345 40.334C8.69752 40.334 8.50982 40.1405 8.50982 39.3074C8.50982 38.2692 8.50982 37.2292 8.50982 36.1337C7.91416 36.1337 7.36063 36.1337 6.80518 36.1337C5.87817 36.1337 5.73069 35.9862 5.70962 35.0592C5.7077 34.9691 5.69621 34.8791 5.68663 34.7623C5.20972 34.7623 4.74812 34.7623 4.26355 34.7623C4.19268 34.9557 4.1333 35.1626 4.04711 35.358C3.47635 36.6489 2.48996 37.371 1.08411 37.5261C0.649328 37.574 0.323723 37.4418 0.113037 37.0511C0.113037 33.163 0.113037 29.2749 0.113037 25.3868C0.388844 24.9673 0.77574 24.8945 1.24691 24.9731C2.70064 25.2144 3.66597 26.0207 4.14863 27.4113C4.1831 27.5109 4.21949 27.6105 4.25972 27.7177C4.73663 27.7177 5.19631 27.7177 5.71153 27.7177C5.71153 27.5166 5.7077 27.3366 5.71153 27.1546C5.72686 26.6107 5.9701 26.3521 6.51214 26.3406C7.16143 26.3272 7.81073 26.3368 8.50982 26.3368C8.50982 25.2565 8.50982 24.2203 8.50982 23.1841C8.50982 22.3357 8.70518 22.1365 9.54601 22.1365C16.3531 22.1365 23.1601 22.1365 29.9672 22.1365C30.8023 22.1365 30.9977 22.3376 30.9977 23.1899C30.9977 24.3697 30.9977 25.5496 30.9977 26.7639C31.4937 26.7639 31.9649 26.7639 32.4744 26.7639C32.8153 25.247 33.9051 24.5 35.2918 23.9675C39.0861 22.5138 42.8573 20.9968 46.6382 19.5048C47.3028 19.2424 47.4426 19.275 47.8889 19.7844C47.8889 27.4055 47.8889 35.0266 47.8889 42.6477ZM46.4601 41.3989C46.4601 34.5976 46.4601 27.8614 46.4601 21.0945C46.3662 21.1271 46.3088 21.1443 46.2532 21.1654C42.57 22.6172 38.8869 24.0652 35.2056 25.5208C34.2614 25.8943 33.7998 26.603 33.7998 27.6162C33.7998 30.0123 33.7979 32.4064 33.7998 34.8025C33.8017 35.9172 34.2403 36.5704 35.2784 36.986C37.0654 37.7023 38.8543 38.411 40.6451 39.1177C42.5643 39.8724 44.4854 40.6232 46.4601 41.3989ZM7.13653 34.6933C10.1991 34.6933 13.2292 34.6933 16.2745 34.6933C14.4243 32.3605 14.4454 30.0621 16.2899 27.7579C13.2119 27.7579 10.1876 27.7579 7.13845 27.7579C7.13653 30.0755 7.13653 32.3681 7.13653 34.6933ZM19.7853 34.7278C21.7256 34.7336 23.2808 33.1936 23.2942 31.2534C23.3076 29.3304 21.7409 27.7465 19.8179 27.735C17.9007 27.7235 16.3205 29.2921 16.309 31.2209C16.2975 33.1534 17.8509 34.7202 19.7853 34.7278ZM23.3134 27.7599C25.1693 30.0927 25.1693 32.393 23.3287 34.6991C24.497 34.6991 25.6347 34.6991 26.7782 34.6991C26.7782 32.372 26.7782 30.0793 26.7782 27.7599C25.6252 27.7599 24.497 27.7599 23.3134 27.7599ZM1.52846 36.0053C2.3961 35.6261 2.87685 35.0132 2.89409 34.1532C2.9324 32.2111 2.92282 30.2689 2.89792 28.3268C2.88643 27.4592 2.28693 26.7218 1.52846 26.536C1.52846 29.6733 1.52846 32.8048 1.52846 36.0053ZM31.0283 28.2234C31.0283 30.2632 31.0283 32.2475 31.0283 34.2279C31.4976 34.2279 31.9362 34.2279 32.369 34.2279C32.369 32.2072 32.369 30.223 32.369 28.2234C31.9113 28.2234 31.4822 28.2234 31.0283 28.2234ZM4.34016 29.1561C4.34016 30.5735 4.34016 31.9372 4.34016 33.2951C4.80941 33.2951 5.24994 33.2951 5.68089 33.2951C5.68089 31.895 5.68089 30.5352 5.68089 29.1561C5.22121 29.1561 4.79409 29.1561 4.34016 29.1561Z" fill="#001B70"/>
<path d="M0.112999 9.61214C0.222173 9.06819 0.304532 8.51658 0.446266 7.9822C1.54566 3.80871 5.14456 0.75568 9.37934 0.387938C13.7061 0.0125343 17.7608 2.3703 19.588 6.32545C19.6455 6.44994 19.7029 6.57252 19.8025 6.78129C20.9402 4.18603 22.7177 2.29177 25.267 1.19237C27.8278 0.0872319 30.4345 0.052756 33.0279 1.06405C37.1822 2.68633 39.8349 6.91728 39.4729 11.2651C39.0899 15.8446 35.8281 19.5967 31.4324 20.518C26.7916 21.4891 21.9113 19.2079 19.8102 14.3468C19.7317 14.4924 19.6646 14.6035 19.611 14.7184C17.757 18.7138 13.8152 21.0332 9.43297 20.7038C4.75 20.3552 0.781448 16.5571 0.201104 11.878C0.183866 11.742 0.141729 11.6117 0.111084 11.4777C0.112999 10.8571 0.112999 10.2346 0.112999 9.61214ZM19.0977 10.5602C19.113 5.7202 15.1943 1.77846 10.3466 1.7574C5.50272 1.73633 1.538 5.65125 1.5131 10.4817C1.4882 15.3524 5.40504 19.3113 10.2681 19.3305C15.1368 19.3516 19.0824 15.4328 19.0977 10.5602ZM20.5055 10.5372C20.4978 15.3792 24.4204 19.3152 29.2662 19.3324C34.1292 19.3477 38.0881 15.4098 38.0901 10.5526C38.092 5.71062 34.1713 1.77463 29.3255 1.75931C24.4587 1.74399 20.5112 5.6704 20.5055 10.5372Z" fill="#001B70"/>
<path d="M11.3866 33.3277C10.2201 33.3219 9.2912 32.3757 9.31035 31.2093C9.32759 30.0659 10.2604 29.1389 11.3961 29.135C12.5492 29.1312 13.4973 30.0831 13.4953 31.2419C13.4934 32.4121 12.5626 33.3334 11.3866 33.3277ZM10.7143 31.2208C10.7066 31.6039 10.9843 31.9046 11.3617 31.9256C11.7639 31.9467 12.0799 31.6556 12.0895 31.2553C12.0991 30.8665 11.7792 30.5351 11.3961 30.539C11.0322 30.5428 10.7219 30.8512 10.7143 31.2208Z" fill="#001B70"/>
<path d="M19.7891 33.3277C18.6207 33.3239 17.6937 32.3815 17.709 31.2151C17.7244 30.0716 18.6533 29.1427 19.791 29.1351C20.944 29.1274 21.894 30.0774 21.894 31.2381C21.894 32.4083 20.9632 33.3315 19.7891 33.3277ZM20.4882 31.2477C20.4939 30.8588 20.1702 30.5313 19.7872 30.539C19.4214 30.5466 19.1168 30.8588 19.113 31.2285C19.1092 31.6116 19.3888 31.9104 19.768 31.9257C20.1702 31.941 20.4824 31.648 20.4882 31.2477Z" fill="#001B70"/>
<path d="M6.81861 10.5429C6.81861 8.60464 8.37002 7.05322 10.3102 7.05322C12.239 7.05322 13.8134 8.62187 13.8115 10.5468C13.8095 12.4698 12.2351 14.0384 10.3064 14.0365C8.37002 14.0365 6.81669 12.4813 6.81861 10.5429ZM8.21871 10.5315C8.21296 11.7055 9.13615 12.6364 10.3064 12.6364C11.4671 12.6383 12.419 11.6883 12.4114 10.5334C12.4037 9.39566 11.4767 8.46673 10.3332 8.45141C9.16296 8.438 8.22254 9.3631 8.21871 10.5315Z" fill="#001B70"/>
<path d="M32.7846 10.5429C32.7846 12.4813 31.2332 14.0346 29.2968 14.0365C27.37 14.0365 25.7937 12.4659 25.7917 10.5449C25.7917 8.62379 27.3681 7.05131 29.2949 7.05322C31.2351 7.05514 32.7846 8.60464 32.7846 10.5429ZM31.3845 10.5832C31.3979 9.40333 30.4939 8.47057 29.3198 8.45524C28.161 8.43992 27.2014 9.37651 27.1899 10.5334C27.1804 11.6826 28.1323 12.6383 29.291 12.6383C30.446 12.6383 31.3711 11.7285 31.3845 10.5832Z" fill="#001B70"/>
<path d="M10.7144 31.2208C10.722 30.8531 11.0323 30.5428 11.3962 30.539C11.7793 30.5351 12.0992 30.8665 12.0896 31.2553C12.08 31.6556 11.764 31.9467 11.3618 31.9257C10.9844 31.9046 10.7067 31.602 10.7144 31.2208Z" fill="white"/>
<path d="M20.4883 31.2476C20.4825 31.6479 20.1703 31.9429 19.7681 31.9256C19.3889 31.9103 19.1092 31.6115 19.1131 31.2285C19.1169 30.8588 19.4234 30.5466 19.7873 30.539C20.1703 30.5313 20.494 30.8569 20.4883 31.2476Z" fill="white"/>
<path d="M11.0055 10.566C10.9921 10.949 10.6512 11.2536 10.2623 11.2306C9.8812 11.2076 9.60922 10.9088 9.62071 10.5238C9.6322 10.1235 9.94823 9.83622 10.3524 9.86112C10.722 9.88219 11.0189 10.204 11.0055 10.566Z" fill="#001B70"/>
<path d="M29.3064 11.2325C28.9176 11.2382 28.5882 10.9146 28.5958 10.5334C28.6035 10.1695 28.9138 9.86304 29.2834 9.85921C29.6857 9.85347 29.9883 10.1561 29.9806 10.5583C29.9768 10.9414 29.6895 11.2268 29.3064 11.2325Z" fill="#001B70"/>
</svg>
