<svg width="43" height="39" viewBox="0 0 43 39" fill="none" xmlns="http://www.w3.org/2000/svg">
<path d="M43 38.0829C42.6535 38.5569 42.4777 38.6155 41.9364 38.4018C38.3354 36.9813 34.7361 35.5592 31.1369 34.1388C30.1664 33.7561 29.4975 33.089 29.201 32.0789C29.1407 31.8737 29.0511 31.7807 28.8252 31.7945C28.5063 31.8134 28.1857 31.7996 27.7979 31.7996C27.7979 31.972 27.7979 32.1185 27.7979 32.2651C27.7979 33.2597 27.8013 34.2526 27.7961 35.2472C27.7927 35.7678 27.5755 35.9971 27.0601 35.9971C24.4003 36.0022 21.7405 36.0005 19.0824 35.9971C18.6204 35.9971 18.3549 35.7506 18.3618 35.3644C18.367 34.9869 18.6411 34.7439 19.1048 34.7421C21.4009 34.737 23.6952 34.7404 25.9913 34.7404C26.1568 34.7404 26.3223 34.7404 26.5136 34.7404C26.5136 30.1241 26.5136 25.5388 26.5136 20.9173C20.639 20.9173 14.7557 20.9173 8.84649 20.9173C8.84649 21.7223 8.84649 22.5273 8.84649 23.4013C9.01197 23.4013 9.1878 23.4013 9.3619 23.4013C14.3454 23.4013 19.3271 23.4013 24.3106 23.4013C25.107 23.4013 25.2811 23.5702 25.2811 24.3511C25.2811 26.6748 25.2811 28.9985 25.2811 31.3221C25.2811 32.0358 25.1001 32.2185 24.3934 32.2202C19.3823 32.222 14.3712 32.2202 9.36018 32.2202C9.1947 32.2202 9.03094 32.2202 8.84304 32.2202C8.84304 33.0683 8.84304 33.8734 8.84304 34.7404C9.0068 34.7404 9.16712 34.7404 9.32915 34.7404C11.6115 34.7404 13.892 34.7387 16.1743 34.7421C16.3398 34.7421 16.5139 34.7473 16.6691 34.7973C16.9742 34.8973 17.1069 35.1352 17.0724 35.4506C17.0397 35.7506 16.8621 35.9333 16.5656 35.985C16.4432 36.0057 16.314 36.0005 16.1881 36.0005C13.6128 36.0005 11.0374 36.0022 8.46208 36.0005C7.72775 36.0005 7.55882 35.8264 7.55882 35.0766C7.55882 34.1423 7.55882 33.2062 7.55882 32.2202C7.02272 32.2202 6.52454 32.2202 6.02464 32.2202C5.19033 32.2202 5.05759 32.0875 5.03863 31.2532C5.03691 31.1722 5.02656 31.0911 5.01795 30.986C4.58872 30.986 4.17329 30.986 3.73717 30.986C3.67339 31.1601 3.61995 31.3463 3.54238 31.5221C3.02869 32.6839 2.14094 33.3338 0.875672 33.4734C0.484371 33.5165 0.191326 33.3976 0.00170898 33.0459C0.00170898 29.5466 0.00170898 26.0473 0.00170898 22.548C0.249935 22.1705 0.598141 22.105 1.02219 22.1757C2.33055 22.3929 3.19934 23.1186 3.63374 24.3701C3.66477 24.4597 3.69752 24.5494 3.73372 24.6459C4.16294 24.6459 4.57665 24.6459 5.04036 24.6459C5.04036 24.4649 5.03691 24.3029 5.04036 24.1391C5.05415 23.6495 5.27307 23.4168 5.7609 23.4065C6.34527 23.3944 6.92963 23.403 7.55882 23.403C7.55882 22.4308 7.55882 21.4982 7.55882 20.5657C7.55882 19.802 7.73464 19.6228 8.49139 19.6228C14.6177 19.6228 20.7441 19.6228 26.8705 19.6228C27.622 19.6228 27.7979 19.8038 27.7979 20.5708C27.7979 21.6327 27.7979 22.6946 27.7979 23.7874C28.2443 23.7874 28.6684 23.7874 29.1269 23.7874C29.4337 22.4222 30.4146 21.7499 31.6626 21.2707C35.0774 19.9623 38.4716 18.5971 41.8744 17.2543C42.4725 17.0181 42.5983 17.0474 43 17.5059C43 24.3649 43 31.2239 43 38.0829ZM41.714 36.9589C41.714 30.8378 41.714 24.7752 41.714 18.685C41.6296 18.7143 41.5779 18.7298 41.5279 18.7488C38.213 20.0554 34.8982 21.3586 31.585 22.6687C30.7352 23.0048 30.3198 23.6426 30.3198 24.5545C30.3198 26.711 30.318 28.8657 30.3198 31.0222C30.3215 32.0254 30.7162 32.6133 31.6505 32.9873C33.2588 33.632 34.8689 34.2698 36.4806 34.9059C38.2078 35.5851 39.9368 36.2608 41.714 36.9589ZM6.32286 30.9239C9.0792 30.9239 11.8062 30.9239 14.5471 30.9239C12.8819 28.8244 12.9008 26.7558 14.5609 24.6821C11.7907 24.6821 9.06886 24.6821 6.32458 24.6821C6.32286 26.7679 6.32286 28.8313 6.32286 30.9239ZM17.7068 30.955C19.453 30.9601 20.8527 29.5742 20.8648 27.828C20.8768 26.0973 19.4668 24.6717 17.7361 24.6614C16.0106 24.6511 14.5884 26.0628 14.5781 27.7987C14.5678 29.538 15.9658 30.9481 17.7068 30.955ZM20.882 24.6838C22.5524 26.7834 22.5524 28.8537 20.8958 30.9291C21.9473 30.9291 22.9712 30.9291 24.0003 30.9291C24.0003 28.8347 24.0003 26.7713 24.0003 24.6838C22.9626 24.6838 21.9473 24.6838 20.882 24.6838ZM1.27559 32.1047C2.05647 31.7634 2.48914 31.2118 2.50466 30.4378C2.53913 28.6899 2.53051 26.942 2.5081 25.1941C2.49776 24.4132 1.95821 23.7495 1.27559 23.5823C1.27559 26.4059 1.27559 29.2243 1.27559 32.1047ZM27.8254 25.101C27.8254 26.9368 27.8254 28.7227 27.8254 30.5051C28.2478 30.5051 28.6425 30.5051 29.0321 30.5051C29.0321 28.6865 29.0321 26.9006 29.0321 25.101C28.6201 25.101 28.234 25.101 27.8254 25.101ZM3.80612 25.9405C3.80612 27.2161 3.80612 28.4434 3.80612 29.6656C4.22845 29.6656 4.62492 29.6656 5.01277 29.6656C5.01277 28.4055 5.01277 27.1816 5.01277 25.9405C4.59906 25.9405 4.21466 25.9405 3.80612 25.9405Z" fill="black"/>
<path d="M0.00172377 8.35089C0.0999799 7.86133 0.174103 7.36488 0.301664 6.88394C1.29112 3.1278 4.53013 0.380076 8.34143 0.0491076C12.2355 -0.288756 15.8847 1.83323 17.5292 5.39286C17.581 5.50491 17.6327 5.61523 17.7223 5.80313C18.7462 3.46739 20.3459 1.76256 22.6403 0.7731C24.945 -0.221528 27.2911 -0.252556 29.6251 0.657606C33.364 2.11766 35.7515 5.92551 35.4257 9.83852C35.0809 13.9601 32.1453 17.337 28.1892 18.1662C24.0124 19.0401 19.6202 16.9871 17.7292 12.6121C17.6585 12.7431 17.5982 12.8431 17.5499 12.9465C15.8813 16.5424 12.3337 18.6299 8.3897 18.3334C4.17503 18.0196 0.603327 14.6014 0.0810183 10.3901C0.0655041 10.2677 0.0275807 10.1505 0 10.0299C0.00172379 9.47136 0.00172377 8.91112 0.00172377 8.35089ZM17.088 9.20417C17.1017 4.84815 13.5749 1.30058 9.21195 1.28162C4.85248 1.26266 1.28423 4.78609 1.26182 9.13349C1.23941 13.5171 4.76456 17.0802 9.14127 17.0974C13.5232 17.1164 17.0742 13.5895 17.088 9.20417ZM18.3549 9.18348C18.348 13.5412 21.8784 17.0836 26.2396 17.0991C30.6163 17.1129 34.1794 13.5688 34.1811 9.19727C34.1828 4.83953 30.6542 1.29713 26.293 1.28334C21.9128 1.26955 18.3601 4.80333 18.3549 9.18348Z" fill="black"/>
<path d="M10.1479 29.6949C9.09812 29.6897 8.26208 28.8382 8.27931 27.7884C8.29483 26.7593 9.13432 25.925 10.1565 25.9215C11.1942 25.9181 12.0475 26.7748 12.0458 27.8177C12.0441 28.8709 11.2063 29.7001 10.1479 29.6949ZM9.54285 27.7987C9.53596 28.1435 9.78591 28.4141 10.1255 28.4331C10.4875 28.452 10.7719 28.19 10.7805 27.8298C10.7892 27.4798 10.5013 27.1816 10.1565 27.1851C9.829 27.1885 9.54975 27.466 9.54285 27.7987Z" fill="black"/>
<path d="M17.7103 29.6949C16.6588 29.6915 15.8245 28.8434 15.8383 27.7936C15.8521 26.7645 16.6881 25.9284 17.7121 25.9216C18.7498 25.9147 19.6048 26.7697 19.6048 27.8143C19.6048 28.8675 18.767 29.6984 17.7103 29.6949ZM18.3395 27.8229C18.3447 27.473 18.0534 27.1782 17.7086 27.1851C17.3794 27.192 17.1053 27.473 17.1018 27.8057C17.0984 28.1504 17.3501 28.4193 17.6914 28.4331C18.0534 28.4469 18.3344 28.1832 18.3395 27.8229Z" fill="black"/>
<path d="M6.03662 9.1886C6.03662 7.44412 7.43289 6.04785 9.1791 6.04785C10.915 6.04785 12.3319 7.45964 12.3302 9.19205C12.3285 10.9227 10.9115 12.3345 9.17565 12.3328C7.43289 12.3328 6.0349 10.9331 6.03662 9.1886ZM7.29672 9.17826C7.29154 10.2349 8.12241 11.0727 9.17565 11.0727C10.2203 11.0744 11.077 10.2194 11.0701 9.17998C11.0632 8.15605 10.2289 7.32001 9.19978 7.30622C8.14655 7.29415 7.30016 8.12675 7.29672 9.17826Z" fill="black"/>
<path d="M29.4061 9.1886C29.4061 10.9331 28.0098 12.3311 26.2671 12.3328C24.533 12.3328 23.1143 10.9193 23.1125 9.19033C23.1125 7.46136 24.5312 6.04613 26.2654 6.04785C28.0116 6.04958 29.4061 7.44412 29.4061 9.1886ZM28.146 9.2248C28.1581 8.16295 27.3445 7.32346 26.2878 7.30967C25.2449 7.29588 24.3813 8.13881 24.3709 9.17998C24.3623 10.2143 25.219 11.0744 26.2619 11.0744C27.3014 11.0744 28.134 10.2556 28.146 9.2248Z" fill="black"/>
<path d="M9.54286 27.7988C9.54976 27.4678 9.82901 27.1885 10.1565 27.1851C10.5013 27.1816 10.7892 27.4799 10.7805 27.8298C10.7719 28.1901 10.4875 28.4521 10.1255 28.4331C9.78592 28.4142 9.53597 28.1418 9.54286 27.7988Z" fill="white"/>
<path d="M18.3395 27.8229C18.3344 28.1831 18.0534 28.4486 17.6914 28.4331C17.3501 28.4193 17.0984 28.1504 17.1018 27.8056C17.1053 27.4729 17.3811 27.192 17.7086 27.1851C18.0534 27.1782 18.3447 27.4712 18.3395 27.8229Z" fill="white"/>
<path d="M9.80497 9.20932C9.7929 9.55407 9.48607 9.82816 9.13614 9.80747C8.7931 9.78679 8.54832 9.51787 8.55867 9.17139C8.56901 8.81112 8.85343 8.55255 9.21715 8.57496C9.54985 8.59392 9.81703 8.88352 9.80497 9.20932Z" fill="black"/>
<path d="M26.2759 9.80927C25.9259 9.81444 25.6295 9.52312 25.6363 9.18009C25.6432 8.85257 25.9225 8.57676 26.2552 8.57331C26.6172 8.56814 26.8895 8.8405 26.8826 9.2025C26.8792 9.54726 26.6206 9.8041 26.2759 9.80927Z" fill="black"/>
</svg>
