<svg width="363" height="44" viewBox="0 0 363 44" fill="none" xmlns="http://www.w3.org/2000/svg">
<path d="M19.0525 25.9491H18.8357C18.7837 25.9491 18.7403 25.9776 18.7201 26.019C17.639 28.4992 15.4507 29.8662 12.56 29.8662H6.01263V23.8132H8.99581C11.7217 23.8132 13.4272 24.898 13.4446 26.6455C13.4446 26.7051 13.4995 26.7543 13.5689 26.7543H13.7857C13.8551 26.7543 13.91 26.7051 13.91 26.6429V20.5977C13.91 20.5356 13.8551 20.4864 13.7857 20.4864H13.5689C13.4995 20.4864 13.4446 20.5356 13.4446 20.5977C13.4446 22.5187 12.031 23.4119 8.99581 23.4119H6.01263V17.7291H12.5398C14.7569 17.7291 16.6677 19.1013 17.6505 21.3977C17.6679 21.4417 17.7141 21.4676 17.7662 21.4676H17.983C18.0205 21.4676 18.0581 21.4521 18.0812 21.4236C18.1044 21.3951 18.113 21.3589 18.1015 21.3252L16.7746 17.1777C16.7602 17.1311 16.7111 17.0974 16.6561 17.0974H16.4393C16.4046 17.0974 16.3728 17.1104 16.3468 17.1337C16.3353 17.144 16.3266 17.1595 16.3208 17.1725C16.0462 17.3097 13.9418 17.3097 12.5398 17.3097H8.46104C7.99853 17.3097 7.16312 17.3175 6.32193 17.3278C5.47496 17.3356 4.62221 17.346 4.14524 17.346C3.67117 17.346 2.90514 17.3382 2.13622 17.3278C1.36729 17.3201 0.601262 17.3097 0.124299 17.3097C0.0549228 17.3097 0 17.3589 0 17.421V17.6152C0 17.6773 0.0549228 17.7265 0.124299 17.7265H2.23739V29.861H0.124299C0.0549228 29.861 0 29.9102 0 29.9724V30.1665C0 30.2287 0.0549228 30.2779 0.124299 30.2779C0.581028 30.2779 1.35284 30.2701 2.12465 30.2597C2.89647 30.252 3.66828 30.2416 4.12212 30.2416C4.59908 30.2416 5.43738 30.2494 6.2699 30.2597C7.09374 30.2675 7.9147 30.2779 8.37721 30.2779H12.5542C14.3869 30.2779 16.6619 30.2779 16.925 30.4694C16.925 30.4927 16.9336 30.5186 16.951 30.5368C16.9741 30.5626 17.0088 30.5782 17.0493 30.5782H17.2661C17.3181 30.5782 17.3643 30.5497 17.3817 30.5057L19.1624 26.0915C19.1768 26.0578 19.171 26.019 19.1479 25.9905C19.1248 25.962 19.093 25.9491 19.0525 25.9491Z" fill="#E9EAF0"/>
<path d="M51.2201 27.7924H51.0033C50.9339 27.7924 50.879 27.8416 50.879 27.9037C50.879 29.2707 49.529 29.8843 48.5693 29.8843C47.0459 29.8843 46.6268 28.463 46.2192 27.0908C46.173 26.9303 46.1238 26.7724 46.0776 26.617C45.5919 25.0377 44.1148 24.362 42.7302 24.085C45.3838 23.663 46.6759 22.5886 46.6759 20.8151C46.6759 17.2993 41.5247 17.2993 37.764 17.2993H27.0164C26.947 17.2993 26.8921 17.3485 26.8921 17.4106V17.6048C26.8921 17.667 26.947 17.7161 27.0164 17.7161H29.4272V29.8688H27.0164C26.947 29.8688 26.8921 29.918 26.8921 29.9801V30.1743C26.8921 30.2364 26.947 30.2856 27.0164 30.2856C27.7044 30.2856 28.4184 30.2778 29.1353 30.2675C29.8608 30.2597 30.5951 30.2493 31.3119 30.2493C31.9999 30.2493 32.7168 30.2571 33.4366 30.2675C34.1708 30.2752 34.908 30.2856 35.6249 30.2856C35.6942 30.2856 35.7492 30.2364 35.7492 30.1743V29.9801C35.7492 29.918 35.6942 29.8688 35.6249 29.8688H33.214V24.3465H38.4751C40.7067 24.3465 41.4207 25.7212 41.8601 27.2073C42.4584 29.2112 43.0741 30.4409 46.5863 30.5859C46.6759 30.5885 46.7945 30.5937 46.9361 30.5937C47.8091 30.5937 49.5522 30.4746 50.5726 29.5995C51.0871 29.1594 51.3473 28.5898 51.3473 27.9063C51.3444 27.8416 51.2895 27.7924 51.2201 27.7924ZM33.2111 17.7136H37.7582C40.036 17.7136 42.3659 18.0812 42.3659 20.8125C42.3659 23.5517 40.1517 23.9271 37.7582 23.9271H33.2111V17.7136Z" fill="#E9EAF0"/>
<path d="M77.7649 25.9491H77.5481C77.4961 25.9491 77.4528 25.9776 77.4325 26.019C76.3514 28.4992 74.1632 29.8662 71.2725 29.8662H64.7251V23.8132H67.7083C70.4342 23.8132 72.1397 24.898 72.157 26.6455C72.157 26.7051 72.2119 26.7543 72.2813 26.7543H72.4981C72.5675 26.7543 72.6224 26.7051 72.6224 26.6429V20.5977C72.6224 20.5356 72.5675 20.4864 72.4981 20.4864H72.2813C72.2119 20.4864 72.157 20.5356 72.157 20.5977C72.157 22.5187 70.7435 23.4119 67.7083 23.4119H64.7251V17.7291H71.2522C73.4694 17.7291 75.3801 19.1013 76.363 21.3977C76.3803 21.4417 76.4266 21.4676 76.4786 21.4676H76.6954C76.733 21.4676 76.7705 21.4521 76.7937 21.4236C76.8168 21.3951 76.8255 21.3589 76.8139 21.3252L75.4871 17.1777C75.4726 17.1311 75.4235 17.0974 75.3686 17.0974H75.1518C75.1171 17.0974 75.0853 17.1104 75.0593 17.1337C75.0477 17.144 75.039 17.1595 75.0332 17.1725C74.7586 17.3097 72.6542 17.3097 71.2522 17.3097H67.1735C66.711 17.3097 65.8756 17.3175 65.0344 17.3278C64.1874 17.3356 63.3346 17.346 62.8577 17.346C62.3836 17.346 61.6176 17.3382 60.8515 17.3278C60.0826 17.3201 59.3166 17.3097 58.8396 17.3097C58.7703 17.3097 58.7153 17.3589 58.7153 17.421V17.6152C58.7153 17.6773 58.7703 17.7265 58.8396 17.7265H60.9527V29.861H58.8396C58.7703 29.861 58.7153 29.9102 58.7153 29.9724V30.1665C58.7153 30.2287 58.7703 30.2779 58.8396 30.2779C59.2964 30.2779 60.0682 30.2701 60.84 30.2597C61.6118 30.252 62.3836 30.2416 62.8375 30.2416C63.3144 30.2416 64.1527 30.2494 64.9852 30.2597C65.8091 30.2675 66.63 30.2779 67.0925 30.2779H71.2696C73.1023 30.2779 75.3772 30.2779 75.6403 30.4694C75.6403 30.4927 75.649 30.5186 75.6663 30.5368C75.6894 30.5626 75.7241 30.5782 75.7646 30.5782H75.9814C76.0334 30.5782 76.0797 30.5497 76.097 30.5057L77.8777 26.0915C77.8921 26.0578 77.8864 26.019 77.8632 25.9905C77.843 25.9672 77.8054 25.9491 77.7649 25.9491Z" fill="#E9EAF0"/>
<path d="M107.646 23.79C107.646 19.3421 102.359 17.3149 97.4478 17.3149H93.609C93.0453 17.3149 92.4065 17.3227 91.7647 17.3331C91.1259 17.3408 90.4899 17.3512 89.9263 17.3512C89.3741 17.3512 88.6515 17.3434 87.9259 17.3331C87.1917 17.3253 86.4546 17.3149 85.888 17.3149C85.8186 17.3149 85.7637 17.3641 85.7637 17.4263V17.6204C85.7637 17.6826 85.8186 17.7318 85.888 17.7318H88.0011V29.8663H85.888C85.8186 29.8663 85.7637 29.9155 85.7637 29.9776V30.1718C85.7637 30.2339 85.8186 30.2831 85.888 30.2831C86.4112 30.2831 87.1281 30.2753 87.8507 30.265C88.5792 30.2572 89.3106 30.2468 89.8453 30.2468C90.3657 30.2468 91.0363 30.2546 91.7069 30.265C92.3862 30.2727 93.0684 30.2831 93.6061 30.2831H97.4449C99.9685 30.2831 102.446 29.7446 104.244 28.8048C106.47 27.6449 107.646 25.9103 107.646 23.79ZM103.339 23.79C103.339 27.9867 100.388 29.8663 97.4652 29.8663H91.7705V17.7318H97.4652C100.391 17.7318 103.339 19.6062 103.339 23.79Z" fill="#E9EAF0"/>
<path d="M124.487 30.1718V29.9776C124.487 29.9155 124.432 29.8663 124.363 29.8663H121.952V17.7318H124.363C124.432 17.7318 124.487 17.6826 124.487 17.6204V17.4263C124.487 17.3641 124.432 17.3149 124.363 17.3149C123.66 17.3149 122.932 17.3227 122.204 17.3331C121.478 17.3408 120.75 17.3512 120.047 17.3512C119.342 17.3512 118.619 17.3434 117.896 17.3331C117.18 17.3253 116.463 17.3149 115.772 17.3149C115.702 17.3149 115.647 17.3641 115.647 17.4263V17.6204C115.647 17.6826 115.702 17.7318 115.772 17.7318H118.183V29.8663H115.772C115.702 29.8663 115.647 29.9155 115.647 29.9776V30.1718C115.647 30.2339 115.702 30.2831 115.772 30.2831C116.463 30.2831 117.18 30.2753 117.896 30.265C118.619 30.2572 119.342 30.2468 120.047 30.2468C120.75 30.2468 121.475 30.2546 122.204 30.265C122.932 30.2727 123.66 30.2831 124.363 30.2831C124.432 30.2831 124.487 30.2339 124.487 30.1718Z" fill="#E9EAF0"/>
<path d="M149.697 17.1648C149.683 17.1182 149.633 17.0845 149.579 17.0845H149.362C149.324 17.0845 149.289 17.1001 149.266 17.1234C149.258 17.1337 149.249 17.1467 149.243 17.1596C148.902 17.3149 146.043 17.3149 144.809 17.3149H136.475C135.533 17.3149 134.11 17.3149 133.986 17.1855C133.989 17.1544 133.978 17.1234 133.954 17.1027C133.931 17.0794 133.899 17.0664 133.865 17.0664H133.648C133.593 17.0664 133.544 17.1001 133.529 17.1467L132.223 21.3304C132.211 21.3641 132.22 21.4003 132.243 21.4262C132.266 21.4547 132.304 21.4702 132.341 21.4702H132.558C132.61 21.4702 132.654 21.4418 132.674 21.4003C133.709 19.0211 134.914 17.7292 138.319 17.7292H139.681V29.8637H137.27C137.201 29.8637 137.146 29.9129 137.146 29.975V30.1692C137.146 30.2313 137.201 30.2805 137.27 30.2805C137.958 30.2805 138.672 30.2727 139.389 30.2624C140.114 30.2546 140.849 30.2443 141.566 30.2443C142.256 30.2443 142.973 30.252 143.696 30.2624C144.424 30.2702 145.156 30.2805 145.861 30.2805C145.931 30.2805 145.985 30.2313 145.985 30.1692V29.975C145.985 29.9129 145.931 29.8637 145.861 29.8637H143.471V17.7292H144.93C148.038 17.7292 149.665 18.7907 150.553 21.3926C150.567 21.4392 150.616 21.4702 150.671 21.4702H150.888C150.926 21.4702 150.963 21.4547 150.986 21.4262C151.009 21.3978 151.018 21.3615 151.007 21.3304L149.697 17.1648Z" fill="#E9EAF0"/>
<path d="M181.625 29.8663H179.179L170.683 17.4211C170.675 17.4107 170.666 17.4004 170.657 17.3926C170.643 17.346 170.594 17.3149 170.539 17.3149C170.27 17.3149 169.993 17.3227 169.712 17.3331C169.438 17.3408 169.16 17.3512 168.894 17.3512C168.637 17.3512 167.475 17.3434 166.313 17.3331C165.148 17.3253 163.986 17.3149 163.729 17.3149C163.659 17.3149 163.604 17.3641 163.604 17.4263V17.6204C163.604 17.6826 163.659 17.7318 163.729 17.7318H166.515L158.176 29.8663H155.71C155.64 29.8663 155.585 29.9155 155.585 29.9776V30.1718C155.585 30.2002 155.6 30.2287 155.623 30.2494C155.646 30.2701 155.678 30.2831 155.71 30.2831C156.404 30.2831 156.707 30.2753 156.999 30.265C157.294 30.2572 157.6 30.2468 158.303 30.2468C159.002 30.2468 159.346 30.2546 159.676 30.265C160.008 30.2727 160.349 30.2831 161.055 30.2831C161.086 30.2831 161.118 30.2701 161.141 30.2494C161.164 30.2287 161.179 30.2002 161.179 30.1718V29.9776C161.179 29.9155 161.124 29.8663 161.055 29.8663H158.722L161.54 25.7627H172.149L174.947 29.8663H172.594C172.525 29.8663 172.47 29.9155 172.47 29.9776V30.1718C172.47 30.2339 172.525 30.2831 172.594 30.2831C173.542 30.2831 174.329 30.2727 175.089 30.265C175.768 30.2572 176.413 30.2494 177.107 30.2494C177.667 30.2494 178.549 30.2598 179.419 30.2676C180.266 30.2753 181.102 30.2857 181.619 30.2857C181.688 30.2857 181.743 30.2365 181.743 30.1744V29.9802C181.749 29.9155 181.694 29.8663 181.625 29.8663ZM171.866 25.3459H161.838L166.882 18.0269L171.866 25.3459Z" fill="#E9EAF0"/>
<path d="M162.968 13.5221C162.653 13.4263 162.266 13.1208 162.147 12.8023C161.977 12.3311 162.127 11.7875 162.488 11.4328C162.659 11.2593 162.87 11.135 163.101 11.0677C163.607 10.9202 164.2 11.0185 164.541 11.3163L169.209 15.3991L169.019 15.4534L162.968 13.5221Z" fill="#E9EAF0"/>
<path d="M206.013 1.08H209.079V43.122H206.013V1.08Z" fill="#E9EAF0"/>
<path d="M254.252 33.8801H257.451V19.4724H254.252V33.8801ZM278.115 33.8801H291.736V31.468H281.33V27.9113H288.206V25.4973H281.33V21.9053H291.417V19.4724H278.115V33.8801ZM305.658 23.7565C305.658 24.4562 305.423 24.92 304.952 25.1471C304.482 25.3749 303.892 25.491 303.19 25.491H297.368V21.9255H303.19C303.892 21.9255 304.482 22.0643 304.952 22.3356C305.423 22.6082 305.658 23.0839 305.658 23.7565ZM308.864 23.7565C308.864 22.1892 308.377 21.0882 307.396 20.4572C306.414 19.8231 304.945 19.5102 302.986 19.5102H294.161V33.8599H297.376L297.368 27.9107H302.986C304.945 27.9107 306.414 27.6116 307.396 27.0103C308.377 26.4128 308.864 25.325 308.864 23.7565ZM310.798 33.8965H324.877V31.4888H313.958V19.4648L310.798 19.473V33.8965ZM327.281 33.8801H340.901V31.468H330.496V27.8968H337.371V25.4828H330.496V21.9059H340.582V19.473H327.281V33.8801Z" fill="white"/>
<path d="M252.46 21.0409C252.021 20.7658 251.318 20.3935 250.282 20.039C249.704 19.8389 249.056 19.6459 248.267 19.5159C247.5 19.3885 246.664 19.285 245.743 19.285C244.557 19.285 243.403 19.4396 242.275 19.743C241.151 20.0509 240.153 20.5147 239.278 21.1337C238.409 21.7545 237.704 22.523 237.174 23.4373C236.64 24.3534 236.375 25.4203 236.375 26.645C236.375 27.8628 236.64 28.9347 237.174 29.8603C237.704 30.7859 238.397 31.5607 239.243 32.1829C240.09 32.8018 241.057 33.2568 242.148 33.5394C243.239 33.8221 244.329 34 245.442 34C246.53 34 247.444 33.9243 248.33 33.7508C249.211 33.5741 250.072 33.3198 250.739 33.0656C250.739 33.0656 251.571 32.7242 252.543 32.2043L250.633 30.2869C250.274 30.4812 249.857 30.6831 249.377 30.8743C248.822 31.0939 248.202 31.2629 247.524 31.4144C246.845 31.5664 245.9 31.6434 245.248 31.6434C244.544 31.6434 243.854 31.5279 243.179 31.3008C242.5 31.0718 241.894 30.7342 241.36 30.2869C240.828 29.8427 240.397 29.3057 240.072 28.6868C239.744 28.0659 239.58 27.3618 239.58 26.5781C239.58 25.7913 239.724 25.0942 240.017 24.484C240.305 23.8739 240.718 23.3628 241.249 22.9502C241.786 22.5344 242.408 22.2258 243.124 22.0164C243.837 21.8119 244.63 21.7084 245.499 21.7084C246.226 21.7084 247.171 21.7659 247.777 21.8876C248.108 21.952 248.412 22.0258 248.694 22.1059C248.694 22.1059 249.512 22.3243 250.548 22.9615L252.46 21.0409Z" fill="white"/>
<path d="M361.612 20.5355C361.563 20.55 361.494 20.5607 361.4 20.5607H361.205V20.1153H361.389C361.512 20.1153 361.599 20.1273 361.655 20.1588C361.709 20.1891 361.737 20.2503 361.737 20.3411C361.738 20.4345 361.695 20.4995 361.612 20.5355ZM361.862 20.7462C361.816 20.6787 361.743 20.6396 361.648 20.6251C361.721 20.6125 361.782 20.5948 361.826 20.5652C361.908 20.5141 361.949 20.4333 361.949 20.3216C361.949 20.167 361.883 20.0629 361.755 20.0093C361.684 19.9809 361.573 19.9676 361.422 19.9676H360.987V21.1999H361.205V20.714H361.375C361.494 20.714 361.573 20.7273 361.62 20.7532C361.697 20.7992 361.733 20.8939 361.733 21.0358V21.1343L361.741 21.1734C361.741 21.1791 361.741 21.1854 361.744 21.1885V21.2005H361.949L361.941 21.1854C361.937 21.1734 361.934 21.1526 361.931 21.1197V20.9374C361.931 20.8743 361.904 20.8119 361.862 20.7462ZM362.405 20.586C362.405 20.8554 362.312 21.085 362.128 21.2743C361.937 21.4642 361.71 21.5614 361.44 21.5614C361.172 21.5614 360.942 21.4642 360.756 21.2743C360.568 21.0857 360.476 20.8554 360.476 20.586C360.476 20.3197 360.572 20.0926 360.756 19.9039C360.946 19.7127 361.177 19.6187 361.44 19.6187C361.709 19.6187 361.937 19.7127 362.128 19.9039C362.312 20.0926 362.405 20.3197 362.405 20.586ZM362.567 20.5847C362.567 20.2749 362.456 20.0105 362.237 19.7935C362.02 19.572 361.752 19.4642 361.44 19.4642C361.133 19.4642 360.869 19.572 360.651 19.7935C360.433 20.0105 360.322 20.2749 360.322 20.5847C360.322 20.8958 360.43 21.1633 360.646 21.3835C360.866 21.6031 361.129 21.7141 361.44 21.7141C361.752 21.7141 362.02 21.6031 362.237 21.3835C362.456 21.162 362.567 20.8958 362.567 20.5847Z" fill="white"/>
<path d="M342.373 19.4643L356.51 33.8259H360.426L346.276 19.4643H342.373Z" fill="white"/>
<path d="M360.425 19.4643L346.289 33.8259H342.372L356.522 19.4643H360.425Z" fill="white"/>
<path d="M275.669 33.8455V19.4377H272.897V29.8553L262.673 19.4478V19.4377H259.902V33.8455H262.673V23.4575L272.897 33.8423V33.8455H275.669Z" fill="white"/>
<path d="M327.618 7.54681C327.618 3.55542 316.116 0.285835 301.537 1.52588e-05L301.412 1.10418C313.432 1.38684 322.884 4.28224 322.884 7.8143C322.884 11.4334 312.971 14.3857 300.535 14.544L300.622 15.1062C315.635 14.9434 327.618 11.6221 327.618 7.54681Z" fill="#FFCB05"/>
<path d="M317.155 8.4471C317.155 11.1614 309.715 13.3779 300.36 13.5123L300.447 14.0688C311.347 13.9237 320.03 11.3381 320.03 8.17198C320.03 5.08663 311.79 2.55461 301.287 2.29025L301.164 3.40138C310.135 3.64493 317.155 5.81162 317.155 8.4471Z" fill="#FFCB05"/>
<path d="M314.324 8.79116C314.324 6.60492 308.502 4.80606 301.038 4.58397L300.914 5.69383C306.863 5.89447 311.478 7.32672 311.478 9.06751C311.478 10.8802 306.481 12.3604 300.184 12.462L300.271 13.0154C308.1 12.9024 314.324 11.0538 314.324 8.79116Z" fill="#FFCB05"/>
<path d="M271.322 7.54681C271.322 3.55542 282.824 0.285835 297.407 1.52588e-05L297.53 1.10418C285.509 1.38684 276.058 4.28224 276.058 7.8143C276.058 11.4334 285.97 14.3857 298.406 14.544L298.319 15.1062C283.307 14.9434 271.322 11.6221 271.322 7.54681Z" fill="#FFCB05"/>
<path d="M281.785 8.4471C281.785 11.1614 289.227 13.3779 298.579 13.5123L298.493 14.0688C287.593 13.9237 278.911 11.3381 278.911 8.17198C278.911 5.08663 287.151 2.55461 297.654 2.29025L297.78 3.40138C288.805 3.64493 281.785 5.81162 281.785 8.4471Z" fill="#FFCB05"/>
<path d="M284.618 8.79116C284.618 6.60492 290.438 4.80606 297.902 4.58397L298.026 5.69383C292.078 5.89447 287.462 7.32672 287.462 9.06751C287.462 10.8802 292.46 12.3604 298.756 12.462L298.669 13.0154C290.84 12.9024 284.618 11.0538 284.618 8.79116Z" fill="#FFCB05"/>
</svg>
