<svg width="364" height="51" viewBox="0 0 364 51" fill="none" xmlns="http://www.w3.org/2000/svg">
<path d="M19.8064 32.9491H19.5896C19.5376 32.9491 19.4942 32.9776 19.474 33.019C18.3929 35.4992 16.2046 36.8662 13.3139 36.8662H6.76653V30.8132H9.74972C12.4756 30.8132 14.1811 31.898 14.1985 33.6455C14.1985 33.7051 14.2534 33.7543 14.3228 33.7543H14.5396C14.609 33.7543 14.6639 33.7051 14.6639 33.6429V27.5977C14.6639 27.5356 14.609 27.4864 14.5396 27.4864H14.3228C14.2534 27.4864 14.1985 27.5356 14.1985 27.5977C14.1985 29.5187 12.7849 30.4119 9.74972 30.4119H6.76653V24.7291H13.2937C15.5109 24.7291 17.4216 26.1013 18.4044 28.3977C18.4218 28.4417 18.468 28.4676 18.5201 28.4676H18.7369C18.7744 28.4676 18.812 28.4521 18.8351 28.4236C18.8583 28.3951 18.8669 28.3589 18.8554 28.3252L17.5286 24.1777C17.5141 24.1311 17.465 24.0974 17.41 24.0974H17.1932C17.1585 24.0974 17.1267 24.1104 17.1007 24.1337C17.0892 24.144 17.0805 24.1595 17.0747 24.1725C16.8001 24.3097 14.6957 24.3097 13.2937 24.3097H9.21494C8.75243 24.3097 7.91702 24.3175 7.07584 24.3278C6.22886 24.3356 5.37611 24.346 4.89915 24.346C4.42508 24.346 3.65905 24.3382 2.89012 24.3278C2.1212 24.3201 1.35517 24.3097 0.878206 24.3097C0.808829 24.3097 0.753906 24.3589 0.753906 24.421V24.6152C0.753906 24.6773 0.808829 24.7265 0.878206 24.7265H2.9913V36.861H0.878206C0.808829 36.861 0.753906 36.9102 0.753906 36.9724V37.1665C0.753906 37.2287 0.808829 37.2779 0.878206 37.2779C1.33493 37.2779 2.10675 37.2701 2.87856 37.2597C3.65037 37.252 4.42219 37.2416 4.87602 37.2416C5.35299 37.2416 6.19129 37.2494 7.0238 37.2597C7.84765 37.2675 8.6686 37.2779 9.13111 37.2779H13.3082C15.1408 37.2779 17.4158 37.2779 17.6789 37.4694C17.6789 37.4927 17.6875 37.5186 17.7049 37.5368C17.728 37.5626 17.7627 37.5782 17.8032 37.5782H18.02C18.072 37.5782 18.1183 37.5497 18.1356 37.5057L19.9163 33.0915C19.9307 33.0578 19.9249 33.019 19.9018 32.9905C19.8787 32.962 19.8469 32.9491 19.8064 32.9491Z" fill="#E9EAF0"/>
<path d="M51.9745 34.7924H51.7577C51.6883 34.7924 51.6334 34.8416 51.6334 34.9037C51.6334 36.2707 50.2834 36.8843 49.3237 36.8843C47.8003 36.8843 47.3812 35.463 46.9736 34.0908C46.9274 33.9303 46.8782 33.7724 46.832 33.617C46.3463 32.0377 44.8692 31.362 43.4846 31.085C46.1382 30.663 47.4303 29.5886 47.4303 27.8151C47.4303 24.2993 42.2791 24.2993 38.5184 24.2993H27.7708C27.7014 24.2993 27.6465 24.3485 27.6465 24.4106V24.6048C27.6465 24.667 27.7014 24.7161 27.7708 24.7161H30.1816V36.8688H27.7708C27.7014 36.8688 27.6465 36.918 27.6465 36.9801V37.1743C27.6465 37.2364 27.7014 37.2856 27.7708 37.2856C28.4588 37.2856 29.1728 37.2778 29.8897 37.2675C30.6152 37.2597 31.3495 37.2493 32.0663 37.2493C32.7543 37.2493 33.4712 37.2571 34.191 37.2675C34.9252 37.2752 35.6624 37.2856 36.3792 37.2856C36.4486 37.2856 36.5035 37.2364 36.5035 37.1743V36.9801C36.5035 36.918 36.4486 36.8688 36.3792 36.8688H33.9684V31.3465H39.2295C41.4611 31.3465 42.1751 32.7212 42.6145 34.2073C43.2128 36.2112 43.8285 37.4409 47.3407 37.5859C47.4303 37.5885 47.5489 37.5937 47.6905 37.5937C48.5635 37.5937 50.3066 37.4746 51.327 36.5995C51.8415 36.1594 52.1017 35.5898 52.1017 34.9063C52.0988 34.8416 52.0439 34.7924 51.9745 34.7924ZM33.9655 24.7136H38.5126C40.7904 24.7136 43.1203 25.0812 43.1203 27.8125C43.1203 30.5517 40.9061 30.9271 38.5126 30.9271H33.9655V24.7136Z" fill="#E9EAF0"/>
<path d="M78.5184 32.9491H78.3016C78.2495 32.9491 78.2062 32.9776 78.1859 33.019C77.1048 35.4992 74.9166 36.8662 72.0259 36.8662H65.4785V30.8132H68.4617C71.1876 30.8132 72.8931 31.898 72.9104 33.6455C72.9104 33.7051 72.9654 33.7543 73.0347 33.7543H73.2515C73.3209 33.7543 73.3758 33.7051 73.3758 33.6429V27.5977C73.3758 27.5356 73.3209 27.4864 73.2515 27.4864H73.0347C72.9654 27.4864 72.9104 27.5356 72.9104 27.5977C72.9104 29.5187 71.4969 30.4119 68.4617 30.4119H65.4785V24.7291H72.0057C74.2228 24.7291 76.1336 26.1013 77.1164 28.3977C77.1337 28.4417 77.18 28.4676 77.232 28.4676H77.4488C77.4864 28.4676 77.524 28.4521 77.5471 28.4236C77.5702 28.3951 77.5789 28.3589 77.5673 28.3252L76.2405 24.1777C76.2261 24.1311 76.1769 24.0974 76.122 24.0974H75.9052C75.8705 24.0974 75.8387 24.1104 75.8127 24.1337C75.8011 24.144 75.7924 24.1595 75.7867 24.1725C75.5121 24.3097 73.4076 24.3097 72.0057 24.3097H67.9269C67.4644 24.3097 66.629 24.3175 65.7878 24.3278C64.9408 24.3356 64.0881 24.346 63.6111 24.346C63.137 24.346 62.371 24.3382 61.605 24.3278C60.836 24.3201 60.07 24.3097 59.5931 24.3097C59.5237 24.3097 59.4688 24.3589 59.4688 24.421V24.6152C59.4688 24.6773 59.5237 24.7265 59.5931 24.7265H61.7061V36.861H59.5931C59.5237 36.861 59.4688 36.9102 59.4688 36.9724V37.1665C59.4688 37.2287 59.5237 37.2779 59.5931 37.2779C60.0498 37.2779 60.8216 37.2701 61.5934 37.2597C62.3652 37.252 63.137 37.2416 63.5909 37.2416C64.0678 37.2416 64.9061 37.2494 65.7386 37.2597C66.5625 37.2675 67.3834 37.2779 67.846 37.2779H72.023C73.8557 37.2779 76.1307 37.2779 76.3937 37.4694C76.3937 37.4927 76.4024 37.5186 76.4197 37.5368C76.4429 37.5626 76.4775 37.5782 76.518 37.5782H76.7348C76.7868 37.5782 76.8331 37.5497 76.8504 37.5057L78.6311 33.0915C78.6456 33.0578 78.6398 33.019 78.6166 32.9905C78.5964 32.9672 78.5588 32.9491 78.5184 32.9491Z" fill="#E9EAF0"/>
<path d="M108.4 30.79C108.4 26.3421 103.113 24.3149 98.2017 24.3149H94.3629C93.7992 24.3149 93.1604 24.3227 92.5186 24.3331C91.8798 24.3408 91.2439 24.3512 90.6802 24.3512C90.1281 24.3512 89.4054 24.3434 88.6798 24.3331C87.9456 24.3253 87.2085 24.3149 86.6419 24.3149C86.5725 24.3149 86.5176 24.3641 86.5176 24.4263V24.6204C86.5176 24.6826 86.5725 24.7318 86.6419 24.7318H88.755V36.8663H86.6419C86.5725 36.8663 86.5176 36.9155 86.5176 36.9776V37.1718C86.5176 37.2339 86.5725 37.2831 86.6419 37.2831C87.1651 37.2831 87.882 37.2753 88.6047 37.265C89.3331 37.2572 90.0645 37.2468 90.5992 37.2468C91.1196 37.2468 91.7902 37.2546 92.4608 37.265C93.1401 37.2727 93.8223 37.2831 94.36 37.2831H98.1988C100.722 37.2831 103.2 36.7446 104.998 35.8048C107.224 34.6449 108.4 32.9103 108.4 30.79ZM104.093 30.79C104.093 34.9867 101.142 36.8663 98.2191 36.8663H92.5244V24.7318H98.2191C101.144 24.7318 104.093 26.6062 104.093 30.79Z" fill="#E9EAF0"/>
<path d="M125.242 37.1718V36.9776C125.242 36.9155 125.187 36.8663 125.118 36.8663H122.707V24.7318H125.118C125.187 24.7318 125.242 24.6826 125.242 24.6204V24.4263C125.242 24.3641 125.187 24.3149 125.118 24.3149C124.415 24.3149 123.687 24.3227 122.958 24.3331C122.233 24.3408 121.504 24.3512 120.802 24.3512C120.097 24.3512 119.374 24.3434 118.651 24.3331C117.934 24.3253 117.218 24.3149 116.527 24.3149C116.457 24.3149 116.402 24.3641 116.402 24.4263V24.6204C116.402 24.6826 116.457 24.7318 116.527 24.7318H118.937V36.8663H116.527C116.457 36.8663 116.402 36.9155 116.402 36.9776V37.1718C116.402 37.2339 116.457 37.2831 116.527 37.2831C117.218 37.2831 117.934 37.2753 118.651 37.265C119.374 37.2572 120.097 37.2468 120.802 37.2468C121.504 37.2468 122.23 37.2546 122.958 37.265C123.687 37.2727 124.415 37.2831 125.118 37.2831C125.187 37.2831 125.242 37.2339 125.242 37.1718Z" fill="#E9EAF0"/>
<path d="M150.45 24.1648C150.436 24.1182 150.386 24.0845 150.331 24.0845H150.115C150.077 24.0845 150.042 24.1001 150.019 24.1234C150.011 24.1337 150.002 24.1467 149.996 24.1596C149.655 24.3149 146.796 24.3149 145.562 24.3149H137.228C136.286 24.3149 134.863 24.3149 134.739 24.1855C134.742 24.1544 134.73 24.1234 134.707 24.1027C134.684 24.0794 134.652 24.0664 134.618 24.0664H134.401C134.346 24.0664 134.297 24.1001 134.282 24.1467L132.976 28.3304C132.964 28.3641 132.973 28.4003 132.996 28.4262C133.019 28.4547 133.057 28.4702 133.094 28.4702H133.311C133.363 28.4702 133.407 28.4418 133.427 28.4003C134.462 26.0211 135.667 24.7292 139.072 24.7292H140.434V36.8637H138.023C137.954 36.8637 137.899 36.9129 137.899 36.975V37.1692C137.899 37.2313 137.954 37.2805 138.023 37.2805C138.711 37.2805 139.425 37.2727 140.142 37.2624C140.867 37.2546 141.602 37.2443 142.318 37.2443C143.009 37.2443 143.726 37.252 144.449 37.2624C145.177 37.2702 145.909 37.2805 146.614 37.2805C146.683 37.2805 146.738 37.2313 146.738 37.1692V36.975C146.738 36.9129 146.683 36.8637 146.614 36.8637H144.223V24.7292H145.683C148.791 24.7292 150.418 25.7907 151.306 28.3926C151.32 28.4392 151.369 28.4702 151.424 28.4702H151.641C151.679 28.4702 151.716 28.4547 151.739 28.4262C151.762 28.3978 151.771 28.3615 151.759 28.3304L150.45 24.1648Z" fill="#E9EAF0"/>
<path d="M182.379 36.8663H179.934L171.438 24.4211C171.429 24.4107 171.421 24.4004 171.412 24.3926C171.397 24.346 171.348 24.3149 171.293 24.3149C171.025 24.3149 170.747 24.3227 170.467 24.3331C170.192 24.3408 169.914 24.3512 169.649 24.3512C169.391 24.3512 168.229 24.3434 167.067 24.3331C165.902 24.3253 164.74 24.3149 164.483 24.3149C164.414 24.3149 164.359 24.3641 164.359 24.4263V24.6204C164.359 24.6826 164.414 24.7318 164.483 24.7318H167.27L158.93 36.8663H156.464C156.395 36.8663 156.34 36.9155 156.34 36.9776V37.1718C156.34 37.2002 156.354 37.2287 156.377 37.2494C156.401 37.2701 156.432 37.2831 156.464 37.2831C157.158 37.2831 157.461 37.2753 157.753 37.265C158.048 37.2572 158.355 37.2468 159.057 37.2468C159.757 37.2468 160.101 37.2546 160.43 37.265C160.763 37.2727 161.104 37.2831 161.809 37.2831C161.841 37.2831 161.873 37.2701 161.896 37.2494C161.919 37.2287 161.933 37.2002 161.933 37.1718V36.9776C161.933 36.9155 161.878 36.8663 161.809 36.8663H159.476L162.295 32.7627H172.903L175.702 36.8663H173.349C173.279 36.8663 173.224 36.9155 173.224 36.9776V37.1718C173.224 37.2339 173.279 37.2831 173.349 37.2831C174.297 37.2831 175.083 37.2727 175.843 37.265C176.523 37.2572 177.167 37.2494 177.861 37.2494C178.422 37.2494 179.303 37.2598 180.174 37.2676C181.021 37.2753 181.856 37.2857 182.373 37.2857C182.443 37.2857 182.498 37.2365 182.498 37.1744V36.9802C182.503 36.9155 182.449 36.8663 182.379 36.8663ZM172.62 32.3459H162.592L167.637 25.0269L172.62 32.3459Z" fill="#E9EAF0"/>
<path d="M163.721 20.5221C163.406 20.4263 163.019 20.1208 162.9 19.8023C162.73 19.3311 162.88 18.7875 163.241 18.4328C163.412 18.2593 163.623 18.135 163.854 18.0677C164.36 17.9202 164.953 18.0185 165.294 18.3163L169.962 22.3991L169.771 22.4534L163.721 20.5221Z" fill="#E9EAF0"/>
<path d="M206.766 8.08H209.832V50.122H206.766V8.08Z" fill="#E9EAF0"/>
<path d="M255.006 40.8801H258.205V26.4724H255.006V40.8801ZM278.868 40.8801H292.489V38.468H282.084V34.9113H288.96V32.4973H282.084V28.9053H292.171V26.4724H278.868V40.8801ZM306.411 30.7565C306.411 31.4562 306.177 31.92 305.705 32.1471C305.236 32.3749 304.645 32.491 303.944 32.491H298.122V28.9255H303.944C304.645 28.9255 305.236 29.0643 305.705 29.3356C306.177 29.6082 306.411 30.0839 306.411 30.7565ZM309.618 30.7565C309.618 29.1892 309.13 28.0882 308.15 27.4572C307.167 26.8231 305.698 26.5102 303.739 26.5102H294.914V40.8599H298.129L298.122 34.9107H303.739C305.698 34.9107 307.167 34.6116 308.15 34.0103C309.13 33.4128 309.618 32.325 309.618 30.7565ZM311.551 40.8965H325.63V38.4888H314.711V26.4648L311.551 26.473V40.8965ZM328.035 40.8801H341.654V38.468H331.25V34.8968H338.125V32.4828H331.25V28.9059H341.336V26.473H328.035V40.8801Z" fill="white"/>
<path d="M253.214 28.0409C252.775 27.7658 252.072 27.3935 251.036 27.039C250.458 26.8389 249.81 26.6459 249.021 26.5159C248.254 26.3885 247.418 26.285 246.497 26.285C245.31 26.285 244.156 26.4396 243.029 26.743C241.905 27.0509 240.906 27.5147 240.032 28.1337C239.163 28.7545 238.458 29.523 237.928 30.4373C237.394 31.3534 237.129 32.4203 237.129 33.645C237.129 34.8628 237.394 35.9347 237.928 36.8603C238.458 37.7859 239.151 38.5607 239.997 39.1829C240.844 39.8018 241.811 40.2568 242.901 40.5394C243.993 40.8221 245.083 41 246.196 41C247.283 41 248.198 40.9243 249.084 40.7508C249.965 40.5741 250.826 40.3198 251.493 40.0656C251.493 40.0656 252.325 39.7242 253.297 39.2043L251.387 37.2869C251.028 37.4812 250.611 37.6831 250.131 37.8743C249.576 38.0939 248.955 38.2629 248.278 38.4144C247.599 38.5664 246.654 38.6434 246.002 38.6434C245.298 38.6434 244.608 38.5279 243.932 38.3008C243.254 38.0718 242.648 37.7342 242.114 37.2869C241.582 36.8427 241.151 36.3057 240.826 35.6868C240.498 35.0659 240.334 34.3618 240.334 33.5781C240.334 32.7913 240.478 32.0942 240.771 31.484C241.059 30.8739 241.472 30.3628 242.003 29.9502C242.54 29.5344 243.162 29.2258 243.878 29.0164C244.591 28.8119 245.384 28.7084 246.253 28.7084C246.98 28.7084 247.925 28.7659 248.531 28.8876C248.861 28.952 249.166 29.0258 249.448 29.1059C249.448 29.1059 250.266 29.3243 251.302 29.9615L253.214 28.0409Z" fill="white"/>
<path d="M362.366 27.5355C362.317 27.55 362.248 27.5607 362.154 27.5607H361.959V27.1153H362.143C362.266 27.1153 362.354 27.1273 362.409 27.1588C362.464 27.1891 362.491 27.2503 362.491 27.3411C362.492 27.4345 362.449 27.4995 362.366 27.5355ZM362.616 27.7462C362.57 27.6787 362.498 27.6396 362.402 27.6251C362.476 27.6125 362.537 27.5948 362.58 27.5652C362.662 27.5141 362.703 27.4333 362.703 27.3216C362.703 27.167 362.637 27.0629 362.509 27.0093C362.438 26.9809 362.327 26.9676 362.177 26.9676H361.741V28.1999H361.959V27.714H362.13C362.248 27.714 362.327 27.7273 362.374 27.7532C362.452 27.7992 362.488 27.8939 362.488 28.0358V28.1343L362.495 28.1734C362.495 28.1791 362.495 28.1854 362.498 28.1885V28.2005H362.703L362.696 28.1854C362.691 28.1734 362.688 28.1526 362.686 28.1197V27.9374C362.686 27.8743 362.659 27.8119 362.616 27.7462ZM363.159 27.586C363.159 27.8554 363.066 28.085 362.883 28.2743C362.691 28.4642 362.464 28.5614 362.194 28.5614C361.927 28.5614 361.696 28.4642 361.511 28.2743C361.323 28.0857 361.23 27.8554 361.23 27.586C361.23 27.3197 361.326 27.0926 361.511 26.9039C361.701 26.7127 361.931 26.6187 362.194 26.6187C362.464 26.6187 362.691 26.7127 362.883 26.9039C363.066 27.0926 363.159 27.3197 363.159 27.586ZM363.321 27.5847C363.321 27.2749 363.21 27.0105 362.991 26.7935C362.774 26.572 362.507 26.4642 362.195 26.4642C361.887 26.4642 361.624 26.572 361.406 26.7935C361.187 27.0105 361.076 27.2749 361.076 27.5847C361.076 27.8958 361.184 28.1633 361.4 28.3835C361.62 28.6031 361.884 28.7141 362.195 28.7141C362.507 28.7141 362.774 28.6031 362.991 28.3835C363.21 28.162 363.321 27.8958 363.321 27.5847Z" fill="white"/>
<path d="M343.127 26.4643L357.264 40.8259H361.18L347.03 26.4643H343.127Z" fill="white"/>
<path d="M361.178 26.4643L347.042 40.8259H343.125L357.275 26.4643H361.178Z" fill="white"/>
<path d="M276.423 40.8455V26.4377H273.651V36.8553L263.427 26.4478V26.4377H260.656V40.8455H263.427V30.4575L273.651 40.8423V40.8455H276.423Z" fill="white"/>
<path d="M328.372 14.5468C328.372 10.5554 316.87 7.28584 302.291 7.00002L302.166 8.10418C314.186 8.38684 323.638 11.2822 323.638 14.8143C323.638 18.4334 313.725 21.3857 301.289 21.544L301.376 22.1062C316.389 21.9434 328.372 18.6221 328.372 14.5468Z" fill="#FFCB05"/>
<path d="M317.91 15.4471C317.91 18.1614 310.47 20.3779 301.115 20.5123L301.202 21.0688C312.102 20.9237 320.785 18.3381 320.785 15.172C320.785 12.0866 312.545 9.55461 302.041 9.29025L301.918 10.4014C310.89 10.6449 317.91 12.8116 317.91 15.4471Z" fill="#FFCB05"/>
<path d="M315.078 15.7912C315.078 13.6049 309.256 11.8061 301.792 11.584L301.667 12.6938C307.617 12.8945 312.232 14.3267 312.232 16.0675C312.232 17.8802 307.235 19.3604 300.938 19.462L301.025 20.0154C308.854 19.9024 315.078 18.0538 315.078 15.7912Z" fill="#FFCB05"/>
<path d="M272.076 14.5468C272.076 10.5554 283.578 7.28584 298.161 7.00002L298.284 8.10418C286.263 8.38684 276.811 11.2822 276.811 14.8143C276.811 18.4334 286.723 21.3857 299.16 21.544L299.073 22.1062C284.061 21.9434 272.076 18.6221 272.076 14.5468Z" fill="#FFCB05"/>
<path d="M282.538 15.4471C282.538 18.1614 289.98 20.3779 299.332 20.5123L299.246 21.0688C288.346 20.9237 279.664 18.3381 279.664 15.172C279.664 12.0866 287.904 9.55461 298.407 9.29025L298.533 10.4014C289.558 10.6449 282.538 12.8116 282.538 15.4471Z" fill="#FFCB05"/>
<path d="M285.371 15.7912C285.371 13.6049 291.191 11.8061 298.656 11.584L298.779 12.6938C292.831 12.8945 288.215 14.3267 288.215 16.0675C288.215 17.8802 293.213 19.3604 299.509 19.462L299.422 20.0154C291.593 19.9024 285.371 18.0538 285.371 15.7912Z" fill="#FFCB05"/>
</svg>
