<svg width="364" height="44" viewBox="0 0 364 44" fill="none" xmlns="http://www.w3.org/2000/svg">
<path d="M19.8064 25.9491H19.5896C19.5376 25.9491 19.4942 25.9776 19.474 26.019C18.3929 28.4992 16.2046 29.8662 13.3139 29.8662H6.76653V23.8132H9.74972C12.4756 23.8132 14.1811 24.898 14.1985 26.6455C14.1985 26.7051 14.2534 26.7543 14.3228 26.7543H14.5396C14.609 26.7543 14.6639 26.7051 14.6639 26.6429V20.5977C14.6639 20.5356 14.609 20.4864 14.5396 20.4864H14.3228C14.2534 20.4864 14.1985 20.5356 14.1985 20.5977C14.1985 22.5187 12.7849 23.4119 9.74972 23.4119H6.76653V17.7291H13.2937C15.5109 17.7291 17.4216 19.1013 18.4044 21.3977C18.4218 21.4417 18.468 21.4676 18.5201 21.4676H18.7369C18.7744 21.4676 18.812 21.4521 18.8351 21.4236C18.8583 21.3951 18.8669 21.3589 18.8554 21.3252L17.5286 17.1777C17.5141 17.1311 17.465 17.0974 17.41 17.0974H17.1932C17.1585 17.0974 17.1267 17.1104 17.1007 17.1337C17.0892 17.144 17.0805 17.1595 17.0747 17.1725C16.8001 17.3097 14.6957 17.3097 13.2937 17.3097H9.21494C8.75243 17.3097 7.91702 17.3175 7.07584 17.3278C6.22886 17.3356 5.37611 17.346 4.89915 17.346C4.42508 17.346 3.65905 17.3382 2.89012 17.3278C2.1212 17.3201 1.35517 17.3097 0.878206 17.3097C0.808829 17.3097 0.753906 17.3589 0.753906 17.421V17.6152C0.753906 17.6773 0.808829 17.7265 0.878206 17.7265H2.9913V29.861H0.878206C0.808829 29.861 0.753906 29.9102 0.753906 29.9724V30.1665C0.753906 30.2287 0.808829 30.2779 0.878206 30.2779C1.33493 30.2779 2.10675 30.2701 2.87856 30.2597C3.65037 30.252 4.42219 30.2416 4.87602 30.2416C5.35299 30.2416 6.19129 30.2494 7.0238 30.2597C7.84765 30.2675 8.6686 30.2779 9.13111 30.2779H13.3082C15.1408 30.2779 17.4158 30.2779 17.6789 30.4694C17.6789 30.4927 17.6875 30.5186 17.7049 30.5368C17.728 30.5626 17.7627 30.5782 17.8032 30.5782H18.02C18.072 30.5782 18.1183 30.5497 18.1356 30.5057L19.9163 26.0915C19.9307 26.0578 19.9249 26.019 19.9018 25.9905C19.8787 25.962 19.8469 25.9491 19.8064 25.9491Z" fill="#E9EAF0"/>
<path d="M51.9745 27.7924H51.7577C51.6883 27.7924 51.6334 27.8416 51.6334 27.9037C51.6334 29.2707 50.2834 29.8843 49.3237 29.8843C47.8003 29.8843 47.3812 28.463 46.9736 27.0908C46.9274 26.9303 46.8782 26.7724 46.832 26.617C46.3463 25.0377 44.8692 24.362 43.4846 24.085C46.1382 23.663 47.4303 22.5886 47.4303 20.8151C47.4303 17.2993 42.2791 17.2993 38.5184 17.2993H27.7708C27.7014 17.2993 27.6465 17.3485 27.6465 17.4106V17.6048C27.6465 17.667 27.7014 17.7161 27.7708 17.7161H30.1816V29.8688H27.7708C27.7014 29.8688 27.6465 29.918 27.6465 29.9801V30.1743C27.6465 30.2364 27.7014 30.2856 27.7708 30.2856C28.4588 30.2856 29.1728 30.2778 29.8897 30.2675C30.6152 30.2597 31.3495 30.2493 32.0663 30.2493C32.7543 30.2493 33.4712 30.2571 34.191 30.2675C34.9252 30.2752 35.6624 30.2856 36.3792 30.2856C36.4486 30.2856 36.5035 30.2364 36.5035 30.1743V29.9801C36.5035 29.918 36.4486 29.8688 36.3792 29.8688H33.9684V24.3465H39.2295C41.4611 24.3465 42.1751 25.7212 42.6145 27.2073C43.2128 29.2112 43.8285 30.4409 47.3407 30.5859C47.4303 30.5885 47.5489 30.5937 47.6905 30.5937C48.5635 30.5937 50.3066 30.4746 51.327 29.5995C51.8415 29.1594 52.1017 28.5898 52.1017 27.9063C52.0988 27.8416 52.0439 27.7924 51.9745 27.7924ZM33.9655 17.7136H38.5126C40.7904 17.7136 43.1203 18.0812 43.1203 20.8125C43.1203 23.5517 40.9061 23.9271 38.5126 23.9271H33.9655V17.7136V17.7136Z" fill="#E9EAF0"/>
<path d="M78.5184 25.9491H78.3016C78.2495 25.9491 78.2062 25.9776 78.1859 26.019C77.1048 28.4992 74.9166 29.8662 72.0259 29.8662H65.4785V23.8132H68.4617C71.1876 23.8132 72.8931 24.898 72.9104 26.6455C72.9104 26.7051 72.9654 26.7543 73.0347 26.7543H73.2515C73.3209 26.7543 73.3758 26.7051 73.3758 26.6429V20.5977C73.3758 20.5356 73.3209 20.4864 73.2515 20.4864H73.0347C72.9654 20.4864 72.9104 20.5356 72.9104 20.5977C72.9104 22.5187 71.4969 23.4119 68.4617 23.4119H65.4785V17.7291H72.0057C74.2228 17.7291 76.1336 19.1013 77.1164 21.3977C77.1337 21.4417 77.18 21.4676 77.232 21.4676H77.4488C77.4864 21.4676 77.524 21.4521 77.5471 21.4236C77.5702 21.3951 77.5789 21.3589 77.5673 21.3252L76.2405 17.1777C76.2261 17.1311 76.1769 17.0974 76.122 17.0974H75.9052C75.8705 17.0974 75.8387 17.1104 75.8127 17.1337C75.8011 17.144 75.7924 17.1595 75.7867 17.1725C75.5121 17.3097 73.4076 17.3097 72.0057 17.3097H67.9269C67.4644 17.3097 66.629 17.3175 65.7878 17.3278C64.9408 17.3356 64.0881 17.346 63.6111 17.346C63.137 17.346 62.371 17.3382 61.605 17.3278C60.836 17.3201 60.07 17.3097 59.5931 17.3097C59.5237 17.3097 59.4688 17.3589 59.4688 17.421V17.6152C59.4688 17.6773 59.5237 17.7265 59.5931 17.7265H61.7061V29.861H59.5931C59.5237 29.861 59.4688 29.9102 59.4688 29.9724V30.1665C59.4688 30.2287 59.5237 30.2779 59.5931 30.2779C60.0498 30.2779 60.8216 30.2701 61.5934 30.2597C62.3652 30.252 63.137 30.2416 63.5909 30.2416C64.0678 30.2416 64.9061 30.2494 65.7386 30.2597C66.5625 30.2675 67.3834 30.2779 67.846 30.2779H72.023C73.8557 30.2779 76.1307 30.2779 76.3937 30.4694C76.3937 30.4927 76.4024 30.5186 76.4197 30.5368C76.4429 30.5626 76.4775 30.5782 76.518 30.5782H76.7348C76.7868 30.5782 76.8331 30.5497 76.8504 30.5057L78.6311 26.0915C78.6456 26.0578 78.6398 26.019 78.6167 25.9905C78.5964 25.9672 78.5588 25.9491 78.5184 25.9491Z" fill="#E9EAF0"/>
<path d="M108.4 23.79C108.4 19.3421 103.113 17.3149 98.2017 17.3149H94.3629C93.7992 17.3149 93.1604 17.3227 92.5186 17.3331C91.8798 17.3408 91.2439 17.3512 90.6802 17.3512C90.1281 17.3512 89.4054 17.3434 88.6798 17.3331C87.9456 17.3253 87.2085 17.3149 86.6419 17.3149C86.5725 17.3149 86.5176 17.3641 86.5176 17.4263V17.6204C86.5176 17.6826 86.5725 17.7318 86.6419 17.7318H88.755V29.8663H86.6419C86.5725 29.8663 86.5176 29.9155 86.5176 29.9776V30.1718C86.5176 30.2339 86.5725 30.2831 86.6419 30.2831C87.1651 30.2831 87.882 30.2753 88.6047 30.265C89.3331 30.2572 90.0645 30.2468 90.5992 30.2468C91.1196 30.2468 91.7902 30.2546 92.4608 30.265C93.1401 30.2727 93.8223 30.2831 94.36 30.2831H98.1988C100.722 30.2831 103.2 29.7446 104.998 28.8048C107.224 27.6449 108.4 25.9103 108.4 23.79ZM104.093 23.79C104.093 27.9867 101.142 29.8663 98.2191 29.8663H92.5244V17.7318H98.2191C101.144 17.7318 104.093 19.6062 104.093 23.79Z" fill="#E9EAF0"/>
<path d="M125.242 30.1718V29.9776C125.242 29.9155 125.187 29.8663 125.118 29.8663H122.707V17.7318H125.118C125.187 17.7318 125.242 17.6826 125.242 17.6204V17.4263C125.242 17.3641 125.187 17.3149 125.118 17.3149C124.415 17.3149 123.687 17.3227 122.958 17.3331C122.233 17.3408 121.504 17.3512 120.802 17.3512C120.097 17.3512 119.374 17.3434 118.651 17.3331C117.934 17.3253 117.218 17.3149 116.527 17.3149C116.457 17.3149 116.402 17.3641 116.402 17.4263V17.6204C116.402 17.6826 116.457 17.7318 116.527 17.7318H118.937V29.8663H116.527C116.457 29.8663 116.402 29.9155 116.402 29.9776V30.1718C116.402 30.2339 116.457 30.2831 116.527 30.2831C117.218 30.2831 117.934 30.2753 118.651 30.265C119.374 30.2572 120.097 30.2468 120.802 30.2468C121.504 30.2468 122.23 30.2546 122.958 30.265C123.687 30.2727 124.415 30.2831 125.118 30.2831C125.187 30.2831 125.242 30.2339 125.242 30.1718Z" fill="#E9EAF0"/>
<path d="M150.45 17.1648C150.436 17.1182 150.386 17.0845 150.331 17.0845H150.115C150.077 17.0845 150.042 17.1001 150.019 17.1234C150.011 17.1337 150.002 17.1467 149.996 17.1596C149.655 17.3149 146.796 17.3149 145.562 17.3149H137.228C136.286 17.3149 134.863 17.3149 134.739 17.1855C134.742 17.1544 134.73 17.1234 134.707 17.1027C134.684 17.0794 134.652 17.0664 134.618 17.0664H134.401C134.346 17.0664 134.297 17.1001 134.282 17.1467L132.976 21.3304C132.964 21.3641 132.973 21.4003 132.996 21.4262C133.019 21.4547 133.057 21.4702 133.094 21.4702H133.311C133.363 21.4702 133.407 21.4418 133.427 21.4003C134.462 19.0211 135.667 17.7292 139.072 17.7292H140.434V29.8637H138.023C137.954 29.8637 137.899 29.9129 137.899 29.975V30.1692C137.899 30.2313 137.954 30.2805 138.023 30.2805C138.711 30.2805 139.425 30.2727 140.142 30.2624C140.867 30.2546 141.602 30.2443 142.318 30.2443C143.009 30.2443 143.726 30.252 144.449 30.2624C145.177 30.2702 145.909 30.2805 146.614 30.2805C146.683 30.2805 146.738 30.2313 146.738 30.1692V29.975C146.738 29.9129 146.683 29.8637 146.614 29.8637H144.223V17.7292H145.683C148.791 17.7292 150.418 18.7907 151.306 21.3926C151.32 21.4392 151.369 21.4702 151.424 21.4702H151.641C151.679 21.4702 151.716 21.4547 151.739 21.4262C151.762 21.3978 151.771 21.3615 151.759 21.3304L150.45 17.1648Z" fill="#E9EAF0"/>
<path d="M182.379 29.8663H179.934L171.438 17.4211C171.429 17.4107 171.421 17.4004 171.412 17.3926C171.397 17.346 171.348 17.3149 171.293 17.3149C171.025 17.3149 170.747 17.3227 170.467 17.3331C170.192 17.3408 169.914 17.3512 169.649 17.3512C169.391 17.3512 168.229 17.3434 167.067 17.3331C165.902 17.3253 164.74 17.3149 164.483 17.3149C164.414 17.3149 164.359 17.3641 164.359 17.4263V17.6204C164.359 17.6826 164.414 17.7318 164.483 17.7318H167.27L158.93 29.8663H156.464C156.395 29.8663 156.34 29.9155 156.34 29.9776V30.1718C156.34 30.2002 156.354 30.2287 156.377 30.2494C156.401 30.2701 156.432 30.2831 156.464 30.2831C157.158 30.2831 157.461 30.2753 157.753 30.265C158.048 30.2572 158.355 30.2468 159.057 30.2468C159.757 30.2468 160.101 30.2546 160.43 30.265C160.763 30.2727 161.104 30.2831 161.809 30.2831C161.841 30.2831 161.873 30.2701 161.896 30.2494C161.919 30.2287 161.933 30.2002 161.933 30.1718V29.9776C161.933 29.9155 161.878 29.8663 161.809 29.8663H159.476L162.295 25.7628H172.903L175.702 29.8663H173.349C173.279 29.8663 173.224 29.9155 173.224 29.9776V30.1718C173.224 30.2339 173.279 30.2831 173.349 30.2831C174.297 30.2831 175.083 30.2727 175.843 30.265C176.523 30.2572 177.167 30.2494 177.861 30.2494C178.422 30.2494 179.303 30.2598 180.174 30.2676C181.021 30.2753 181.856 30.2857 182.373 30.2857C182.443 30.2857 182.498 30.2365 182.498 30.1744V29.9802C182.503 29.9155 182.449 29.8663 182.379 29.8663ZM172.62 25.3459H162.592L167.637 18.0269L172.62 25.3459Z" fill="#E9EAF0"/>
<path d="M163.721 13.5221C163.406 13.4263 163.019 13.1208 162.9 12.8023C162.73 12.3311 162.88 11.7875 163.241 11.4328C163.412 11.2593 163.623 11.135 163.854 11.0677C164.36 10.9202 164.953 11.0185 165.294 11.3163L169.962 15.3991L169.771 15.4534L163.721 13.5221Z" fill="#E9EAF0"/>
<path d="M206.766 1.08H209.832V43.122H206.766V1.08Z" fill="#E9EAF0"/>
<path d="M255.006 33.8801H258.205V19.4724H255.006V33.8801ZM278.868 33.8801H292.489V31.468H282.084V27.9113H288.96V25.4973H282.084V21.9053H292.171V19.4724H278.868V33.8801ZM306.411 23.7565C306.411 24.4562 306.177 24.92 305.705 25.1471C305.236 25.3749 304.645 25.491 303.944 25.491H298.122V21.9255H303.944C304.645 21.9255 305.236 22.0643 305.705 22.3356C306.177 22.6082 306.411 23.0839 306.411 23.7565V23.7565ZM309.618 23.7565C309.618 22.1892 309.13 21.0882 308.15 20.4572C307.167 19.8231 305.698 19.5102 303.739 19.5102H294.914V33.8599H298.129L298.122 27.9107H303.739C305.698 27.9107 307.167 27.6116 308.15 27.0103C309.13 26.4128 309.618 25.325 309.618 23.7565V23.7565ZM311.551 33.8965H325.63V31.4888H314.711V19.4648L311.551 19.473V33.8965ZM328.035 33.8801H341.654V31.468H331.25V27.8968H338.125V25.4828H331.25V21.9059H341.336V19.473H328.035V33.8801Z" fill="white"/>
<path d="M253.214 21.0409C252.775 20.7658 252.072 20.3935 251.036 20.039C250.458 19.8389 249.81 19.6459 249.021 19.5159C248.254 19.3885 247.418 19.285 246.497 19.285C245.31 19.285 244.156 19.4396 243.029 19.743C241.905 20.0509 240.906 20.5147 240.032 21.1337C239.163 21.7545 238.458 22.523 237.928 23.4373C237.394 24.3534 237.129 25.4203 237.129 26.645C237.129 27.8628 237.394 28.9347 237.928 29.8603C238.458 30.7859 239.151 31.5607 239.997 32.1829C240.844 32.8018 241.811 33.2568 242.901 33.5394C243.993 33.8221 245.083 34 246.196 34C247.283 34 248.198 33.9243 249.084 33.7508C249.965 33.5741 250.826 33.3198 251.493 33.0656C251.493 33.0656 252.325 32.7242 253.297 32.2043L251.387 30.2869C251.028 30.4812 250.611 30.6831 250.131 30.8743C249.576 31.0939 248.955 31.2629 248.278 31.4144C247.599 31.5664 246.654 31.6434 246.002 31.6434C245.298 31.6434 244.608 31.5279 243.932 31.3008C243.254 31.0718 242.648 30.7342 242.114 30.2869C241.582 29.8427 241.151 29.3057 240.826 28.6868C240.498 28.0659 240.334 27.3618 240.334 26.5781C240.334 25.7913 240.478 25.0942 240.771 24.484C241.059 23.8739 241.472 23.3628 242.003 22.9502C242.54 22.5344 243.162 22.2258 243.878 22.0164C244.591 21.8119 245.384 21.7084 246.253 21.7084C246.98 21.7084 247.925 21.7659 248.531 21.8876C248.861 21.952 249.166 22.0258 249.448 22.1059C249.448 22.1059 250.266 22.3243 251.302 22.9615L253.214 21.0409Z" fill="white"/>
<path d="M362.366 20.5355C362.317 20.55 362.248 20.5607 362.154 20.5607H361.959V20.1153H362.143C362.266 20.1153 362.354 20.1273 362.409 20.1588C362.464 20.1891 362.491 20.2503 362.491 20.3411C362.492 20.4345 362.449 20.4995 362.366 20.5355V20.5355ZM362.616 20.7462C362.57 20.6787 362.498 20.6396 362.402 20.6251C362.476 20.6125 362.537 20.5948 362.58 20.5652C362.662 20.5141 362.703 20.4333 362.703 20.3216C362.703 20.167 362.637 20.0629 362.509 20.0093C362.438 19.9809 362.327 19.9676 362.177 19.9676H361.741V21.1999H361.959V20.714H362.13C362.248 20.714 362.327 20.7273 362.374 20.7532C362.452 20.7992 362.488 20.8939 362.488 21.0358V21.1343L362.495 21.1734C362.495 21.1791 362.495 21.1854 362.498 21.1885V21.2005H362.703L362.696 21.1854C362.691 21.1734 362.688 21.1526 362.686 21.1197V20.9374C362.686 20.8743 362.659 20.8119 362.616 20.7462V20.7462ZM363.159 20.586C363.159 20.8554 363.066 21.085 362.883 21.2743C362.691 21.4642 362.464 21.5614 362.194 21.5614C361.927 21.5614 361.696 21.4642 361.511 21.2743C361.323 21.0857 361.23 20.8554 361.23 20.586C361.23 20.3197 361.326 20.0926 361.511 19.9039C361.701 19.7127 361.931 19.6187 362.194 19.6187C362.464 19.6187 362.691 19.7127 362.883 19.9039C363.066 20.0926 363.159 20.3197 363.159 20.586ZM363.321 20.5847C363.321 20.2749 363.21 20.0105 362.991 19.7935C362.774 19.572 362.507 19.4642 362.195 19.4642C361.887 19.4642 361.624 19.572 361.406 19.7935C361.187 20.0105 361.076 20.2749 361.076 20.5847C361.076 20.8958 361.184 21.1633 361.4 21.3835C361.62 21.6031 361.884 21.7141 362.195 21.7141C362.507 21.7141 362.774 21.6031 362.991 21.3835C363.21 21.162 363.321 20.8958 363.321 20.5847" fill="white"/>
<path d="M343.127 19.4643L357.264 33.8259H361.18L347.03 19.4643H343.127Z" fill="white"/>
<path d="M361.178 19.4643L347.042 33.8259H343.125L357.275 19.4643H361.178Z" fill="white"/>
<path d="M276.423 33.8455V19.4377H273.651V29.8553L263.427 19.4478V19.4377H260.656V33.8455H263.427V23.4575L273.651 33.8423V33.8455H276.423Z" fill="white"/>
<path d="M328.372 7.54681C328.372 3.55542 316.87 0.285835 302.291 1.49389e-05L302.166 1.10418C314.186 1.38684 323.638 4.28224 323.638 7.8143C323.638 11.4334 313.725 14.3857 301.289 14.544L301.376 15.1062C316.389 14.9434 328.372 11.6221 328.372 7.54681" fill="#FFCB05"/>
<path d="M317.91 8.4471C317.91 11.1614 310.47 13.3779 301.115 13.5123L301.202 14.0688C312.102 13.9237 320.785 11.3381 320.785 8.17198C320.785 5.08663 312.545 2.55461 302.041 2.29025L301.918 3.40138C310.89 3.64493 317.91 5.81162 317.91 8.4471" fill="#FFCB05"/>
<path d="M315.078 8.79116C315.078 6.60492 309.256 4.80606 301.792 4.58397L301.667 5.69383C307.617 5.89447 312.232 7.32672 312.232 9.06751C312.232 10.8802 307.235 12.3604 300.938 12.462L301.025 13.0154C308.854 12.9024 315.078 11.0538 315.078 8.79116" fill="#FFCB05"/>
<path d="M272.076 7.54681C272.076 3.55542 283.578 0.285835 298.161 1.49389e-05L298.284 1.10418C286.263 1.38684 276.811 4.28224 276.811 7.8143C276.811 11.4334 286.723 14.3857 299.16 14.544L299.073 15.1062C284.061 14.9434 272.076 11.6221 272.076 7.54681Z" fill="#FFCB05"/>
<path d="M282.538 8.4471C282.538 11.1614 289.98 13.3779 299.332 13.5123L299.246 14.0688C288.346 13.9237 279.664 11.3381 279.664 8.17198C279.664 5.08663 287.904 2.55461 298.407 2.29025L298.533 3.40138C289.558 3.64493 282.538 5.81162 282.538 8.4471" fill="#FFCB05"/>
<path d="M285.371 8.79116C285.371 6.60492 291.191 4.80606 298.656 4.58397L298.779 5.69383C292.831 5.89447 288.215 7.32672 288.215 9.06751C288.215 10.8802 293.213 12.3604 299.509 12.462L299.422 13.0154C291.593 12.9024 285.371 11.0538 285.371 8.79116" fill="#FFCB05"/>
</svg>