<svg xmlns="http://www.w3.org/2000/svg" viewBox="0 0 237 34" fill="none">
<path d="M36.1757 1.06141L33.7482 2.12225L33.774 2.43292C33.7911 2.66025 33.834 2.7436 33.9284 2.72844C33.997 2.71329 34.2715 2.65267 34.5374 2.59205C34.9491 2.50112 35.0606 2.50112 35.3093 2.58447C36.0813 2.87241 36.2786 3.7817 36.2786 7.14607C36.2786 8.70702 36.1671 14.9887 36.107 16.3299C36.0985 16.6254 36.0641 17.709 36.0298 18.7243C35.9526 21.3537 35.8326 22.0584 35.4551 22.3691C35.2493 22.5358 34.5459 22.7707 34.057 22.8465C33.7311 22.8919 33.6796 22.9222 33.6453 23.1192C33.5938 23.4375 33.671 23.5208 34.0313 23.483C35.0863 23.3466 40.5673 23.2859 40.7732 23.3996C40.8246 23.4299 40.859 23.3314 40.859 23.1344C40.859 22.9525 40.8332 22.8161 40.7989 22.801C40.756 22.801 40.6617 22.7858 40.5931 22.7783C40.5244 22.7631 40.1813 22.7252 39.8382 22.6949C38.9805 22.6191 38.6631 22.4903 38.483 22.1266C38.3458 21.869 38.3286 21.5431 38.3286 19.7094C38.3286 17.8984 38.3972 15.5115 38.5173 13.746C38.5259 13.4884 38.543 13.208 38.543 13.1171C38.5516 12.9883 38.7146 12.8973 39.2979 12.6927C40.2414 12.3745 41.4337 12.0865 42.2142 11.9956C44.8475 11.7001 46.0312 12.7079 46.3486 15.5115C46.4343 16.2693 46.4343 19.8913 46.3571 20.8081C46.3228 21.1946 46.2285 21.6947 46.1513 21.922C45.9283 22.5812 45.6967 22.7631 44.6245 23.1344C44.41 23.2026 44.3672 23.3314 44.4872 23.5057C44.5473 23.5815 44.6588 23.5815 45.0019 23.5133C45.4222 23.4299 46.4429 23.3996 49.771 23.3693L51.2549 23.3617V22.8389L50.3971 22.801C49.4536 22.7555 48.9304 22.6116 48.7674 22.3463C48.7074 22.2327 48.6816 21.7553 48.6902 20.9521C48.7331 18.4213 48.7245 15.2312 48.6645 14.6553C48.4672 12.8367 47.8925 11.6698 46.8718 11.0712C46.2628 10.6999 45.8425 10.6165 44.7274 10.6165C43.192 10.6241 41.8196 10.9727 38.7918 12.1093L38.4573 12.2381L38.5002 10.7984C38.5345 10.0028 38.5688 8.8131 38.5945 8.14629C38.6631 6.16859 38.7317 4.68341 38.7746 4.18331C38.8518 3.26644 38.9205 2.53143 38.9548 2.342C38.9719 2.22833 39.032 1.86462 39.092 1.51606C39.1435 1.1675 39.2292 0.758318 39.2635 0.591615C39.3407 0.311251 39.3236 0.288519 39.0663 0.13697C38.9033 0.0611964 38.7489 -0.00700028 38.6889 0.000577131C38.646 -0.00700028 37.5052 0.470376 36.1757 1.06141ZM4.31888 1.9707C2.92932 2.28138 2.62911 3.97114 3.86427 4.45609C4.68771 4.77434 5.73416 4.40305 6.08584 3.66046C6.57476 2.63751 5.57977 1.69034 4.31888 1.9707ZM193.272 8.15387C192.226 9.34352 190.759 10.5256 189.55 11.1621C189.275 11.3061 189.164 11.4122 189.138 11.5864C189.095 11.8213 189.104 11.8213 189.558 11.8213C189.816 11.8213 190.27 11.8441 190.57 11.8668L191.119 11.9198L191.094 16.4814C191.076 20.596 191.094 21.0885 191.231 21.5431C191.574 22.6646 192.294 23.3087 193.461 23.5133C194.868 23.7633 197.81 23.0132 199.354 21.9902C199.637 21.8008 199.731 21.6947 199.74 21.5204C199.74 21.3386 199.714 21.3082 199.585 21.3537C197.715 22.0281 196.652 22.2782 195.828 22.2403C194.705 22.1872 194.07 21.7174 193.735 20.7172C193.59 20.3005 193.581 19.9216 193.607 16.7997C193.615 14.8978 193.641 13.1322 193.65 12.8746C193.667 12.617 193.684 12.3063 193.684 12.2002C193.693 12.079 193.77 11.9123 193.864 11.8062L194.036 11.6167H196.66C198.101 11.6167 199.311 11.594 199.337 11.5713C199.371 11.5485 199.397 11.3061 199.414 11.0484L199.431 10.5635L196.901 10.5332C195.502 10.518 194.284 10.4801 194.19 10.465C194.096 10.4422 193.958 10.4195 193.898 10.4195C193.813 10.4119 193.796 10.2907 193.83 9.9194C193.907 9.12378 194.001 7.43401 193.967 7.43401C193.933 7.42644 193.633 7.75984 193.272 8.15387ZM5.14232 9.76028C4.07871 10.518 2.24313 11.4728 0.930771 11.9426C0.596249 12.0714 0.278882 12.185 0.244572 12.2154C0.210262 12.2381 0.227417 12.3745 0.278882 12.5109C0.356079 12.6852 0.433277 12.7534 0.527629 12.723C0.596249 12.6927 0.905038 12.6548 1.19667 12.6321C2.90359 12.4881 3.12661 13.5187 3.13518 21.5204C3.14376 23.5057 3.11803 25.4682 3.08372 25.8774C2.92932 27.5066 2.51761 28.5068 1.44542 29.7495C0.853573 30.4314 0.381812 31.1513 0.175952 31.6817C-0.0813724 32.3637 -0.0642174 32.5834 0.278882 32.8638C0.630559 33.1442 0.707756 33.1517 0.707756 32.9168C0.707756 32.2728 1.19667 31.6817 2.44899 30.7952C3.48686 30.0602 4.64482 28.9538 4.95361 28.3855C5.49399 27.4232 5.48541 27.5672 5.45111 19.4745C5.43395 15.413 5.45968 11.8441 5.50257 11.5485C5.61408 10.6847 5.6827 10.3816 5.76847 10.0861C5.89713 9.71481 5.87998 9.63904 5.69985 9.55569C5.57119 9.49507 5.45111 9.54053 5.14232 9.76028ZM137.141 10.3134C136.609 10.5938 135.546 11.1394 134.782 11.5258C134.028 11.9123 133.35 12.276 133.299 12.3518C133.238 12.4199 133.187 12.5791 133.187 12.7003C133.187 12.8973 133.204 12.9125 133.436 12.8594C133.573 12.8291 133.933 12.7912 134.251 12.7837C134.697 12.7761 134.894 12.8064 135.108 12.9276C135.786 13.2989 135.855 13.7384 135.812 17.3301C135.777 20.5354 135.683 21.2931 135.28 22.0811C135.023 22.5813 134.705 22.7858 133.968 22.9222C133.47 23.0132 133.453 23.0207 133.453 23.2784V23.536L134.328 23.4981C135.323 23.4602 137.244 23.4072 140.169 23.3314C141.301 23.3087 142.236 23.2708 142.288 23.2481C142.322 23.2329 142.348 23.0586 142.348 22.8616C142.348 22.6646 142.313 22.5206 142.279 22.5509C142.236 22.5737 141.464 22.5964 140.546 22.604C139.063 22.6191 138.865 22.604 138.719 22.4752C138.531 22.3312 138.402 22.0357 138.308 21.6113C138.025 20.1489 138.093 14.3295 138.402 13.7915C138.574 13.5035 139.457 12.9125 140.212 12.5942C140.684 12.3972 140.907 12.3518 141.387 12.3518C141.885 12.3518 142.013 12.3821 142.202 12.5412C142.391 12.7003 142.536 13.0337 142.562 13.3747C142.579 13.5944 143.72 13.2383 144.14 12.8822C144.501 12.5791 144.647 12.2987 144.647 11.882C144.647 11.253 144.363 10.8666 143.669 10.5408C143.497 10.465 143.291 10.3437 143.206 10.2907C143.077 10.1998 142.862 10.2907 141.516 10.9954C139.474 12.079 138.333 12.6548 138.291 12.6094C138.273 12.5942 138.248 11.9729 138.248 11.2303C138.239 10.4953 138.205 9.87394 138.179 9.85878C138.145 9.8209 137.682 10.0331 137.141 10.3134ZM119.712 10.3286C118.296 10.5786 116.169 11.4425 115.337 12.0941C114.462 12.7912 114.265 13.2156 114.437 13.9582L114.531 14.337L114.805 14.2234C114.968 14.1703 115.346 14.0112 115.663 13.8748C115.981 13.746 116.392 13.5869 116.581 13.5111C116.77 13.4505 116.898 13.352 116.873 13.3141C116.838 13.2762 116.787 13.0792 116.735 12.8822C116.572 12.1244 117.362 11.541 118.545 11.541C119.961 11.541 121.153 12.4881 121.47 13.8824C121.607 14.4658 121.556 17.1634 121.419 17.2392C121.367 17.2695 121.101 17.315 120.827 17.3377C118.296 17.5953 115.277 18.4364 114.48 19.0956C113.922 19.5579 113.708 20.2626 113.75 21.5053C113.785 22.7176 114.256 23.3693 115.277 23.6345C116.384 23.9149 118.091 23.5663 120.329 22.5661L121.539 22.0433L121.616 22.2478C121.839 22.7631 122.122 23.1571 122.474 23.4451C122.98 23.8543 123.057 23.8467 125.158 23.0965L126.805 22.5131L126.831 22.1569L126.857 21.7932L126.119 22.0129C124.97 22.3615 124.498 22.3085 124.206 21.8235C123.889 21.2855 123.82 20.7703 123.872 19.2548C123.898 18.4516 123.94 17.6635 123.966 17.4892C123.983 17.315 124.009 16.3981 124.018 15.4509C124.026 13.5566 123.932 12.9125 123.52 12.2002C123.211 11.6774 122.259 10.9196 121.393 10.5408C120.698 10.2452 120.432 10.2073 119.712 10.3286ZM121.479 19.2548C121.444 19.8534 121.419 20.5732 121.427 20.8612L121.436 21.3764L120.561 21.7402C118.176 22.7328 117.31 22.801 116.607 22.0811C116.221 21.6871 115.946 20.9521 115.981 20.4293C116.015 19.8913 116.392 19.3836 117.044 18.9971C117.945 18.4667 119.12 18.2015 120.715 18.1788L121.53 18.1712L121.479 19.2548ZM175.62 10.4574C173.433 10.9802 171.76 11.8365 171.048 12.7988C170.859 13.0489 170.825 13.1928 170.834 13.5944C170.851 14.3901 170.842 14.3901 172.017 13.9127C172.575 13.6854 173.098 13.4808 173.184 13.4581C173.312 13.4126 173.321 13.3671 173.218 13.0337C173.167 12.8291 173.132 12.5791 173.158 12.473C173.227 12.1547 173.741 11.7607 174.299 11.6167C175.757 11.2454 177.327 12.1169 177.859 13.6096C177.962 13.89 177.996 14.337 177.987 15.5797C177.979 16.4663 177.961 17.1937 177.944 17.2089C177.901 17.2468 177.447 17.3225 176.512 17.4362C175.217 17.5953 172.918 18.1636 171.829 18.5955C170.551 19.0956 170.139 19.8382 170.19 21.5053C170.233 22.657 170.645 23.2784 171.537 23.5739C172.695 23.9528 174.402 23.6194 176.786 22.5585C177.781 22.119 177.996 22.0508 178.03 22.1569C178.313 22.9298 179.085 23.733 179.54 23.733C179.686 23.733 180.569 23.4602 181.521 23.1192L183.254 22.5055L183.28 22.1418L183.305 21.778L182.568 22.0054C181.581 22.3085 181.135 22.3009 180.809 21.9978C180.663 21.8614 180.509 21.581 180.449 21.3537C180.303 20.8688 180.286 19.2851 180.415 17.171C180.62 13.5035 180.406 12.3745 179.334 11.4728C178.742 10.9802 178.339 10.7302 177.687 10.4574C177.009 10.2073 176.675 10.1998 175.62 10.4574ZM177.901 19.2169C177.867 19.7928 177.841 20.5126 177.841 20.8233V21.3916L176.941 21.7629C174.736 22.6722 173.87 22.7858 173.175 22.2175C172.712 21.8462 172.438 21.2628 172.42 20.6111C172.412 20.1641 172.446 20.0428 172.678 19.7094C173.15 19.035 174.453 18.4213 175.714 18.2924C175.946 18.2697 176.152 18.2394 176.169 18.2318C176.186 18.2242 176.598 18.2091 177.078 18.2015L177.97 18.1864L177.901 19.2169ZM19.3638 10.4953C18.609 10.6165 18.4374 10.6544 17.9056 10.806C16.842 11.1166 15.3667 11.9426 14.7491 12.5639C13.4196 13.9279 12.8449 15.3069 12.8535 17.1179C12.8706 20.1565 14.8091 22.3236 18.3345 23.2481C19.0121 23.4299 19.3381 23.4602 20.4703 23.483C21.654 23.5057 21.9027 23.483 22.6318 23.3163C25.471 22.6646 27.5038 20.7627 28.1214 18.1485C28.3101 17.3377 28.2329 15.7085 27.9756 14.9963C27.581 13.9203 27.0492 13.1322 26.1743 12.3518C24.7419 11.056 22.8977 10.3968 20.7791 10.4119C20.2215 10.4271 19.5868 10.4574 19.3638 10.4953ZM21.2508 11.4273C22.2801 11.7001 23.5067 12.5412 24.2272 13.4656C26.6375 16.5875 25.8913 21.0051 22.7262 22.3691C21.2937 22.9829 19.6554 22.8237 18.3259 21.9372C17.0136 21.0582 15.7698 19.035 15.4696 17.2771C15.3581 16.5799 15.4096 15.1175 15.564 14.5719C16.3188 12.0562 18.6604 10.7605 21.2508 11.4273ZM211.113 10.5408C207.905 11.1318 205.71 12.9428 205.058 15.5418C204.826 16.4739 204.869 18.0727 205.161 18.9668C205.83 21.0279 207.665 22.5434 210.359 23.2632C211.079 23.4527 211.302 23.4754 212.623 23.4754C214.313 23.483 214.965 23.3617 216.226 22.8086C218.25 21.922 219.802 20.0428 220.18 18.0196C220.309 17.2998 220.283 16.0268 220.137 15.4433C219.459 12.9201 217.203 11.0105 214.339 10.518C213.507 10.3816 211.92 10.3968 211.113 10.5408ZM213.078 11.3894C215.042 11.8289 216.697 13.5035 217.435 15.7995C217.692 16.6027 217.71 18.3227 217.478 19.1563C217.272 19.8837 216.715 20.8688 216.217 21.3689C214.845 22.748 212.632 23.1344 210.933 22.2782C207.983 20.7854 206.49 16.2844 208.034 13.5187C209.038 11.738 210.985 10.912 213.078 11.3894ZM60.8188 10.8135C59.9868 11.2 59.1119 11.5334 58.0568 11.8668C57.4049 12.079 57.2591 12.1547 57.2505 12.2911C57.242 12.3896 57.2934 12.4578 57.3878 12.4578C57.465 12.4654 57.688 12.4806 57.8853 12.5033C59.0089 12.6397 59.4378 12.9276 59.6265 13.6702C59.8152 14.428 59.7809 19.323 59.5665 20.8915C59.4035 22.1039 59.1119 22.3463 57.3706 22.6873C57.1648 22.7252 57.1305 22.7707 57.1476 22.9677L57.1648 23.2026L59.4378 23.2102C60.6815 23.2178 61.8481 23.2253 62.011 23.2405C62.9974 23.3087 64.5843 23.3541 64.5929 23.3011C64.5929 23.2632 64.61 23.1571 64.6357 23.0662C64.6701 22.8843 64.61 22.854 64.0525 22.7783C63.2634 22.6646 63.1261 22.6343 62.8345 22.5131C62.397 22.3312 62.1997 22.066 62.1225 21.5583C62.0539 21.1037 62.0539 16.9815 62.1311 15.0038C62.1569 14.3522 62.174 13.7081 62.174 13.5641C62.1826 13.3217 62.2169 13.2913 62.8431 13.0413C64.1983 12.4806 65.768 12.132 66.9088 12.1244C68.5642 12.1169 69.4306 12.8291 69.7737 14.4962C69.8852 15.0266 69.9109 15.61 69.868 17.4362C69.8509 18.6865 69.8166 19.8003 69.7908 19.9064C69.7737 20.0201 69.7308 20.3383 69.705 20.6263C69.6793 20.9142 69.6107 21.3386 69.5507 21.5659C69.3877 22.2327 68.8473 22.604 67.6293 22.8843C67.2862 22.9601 67.2433 22.998 67.2433 23.2026V23.4375L68.0667 23.3769C69.1046 23.3011 73.1532 23.3011 73.8909 23.3769L74.4398 23.4375V23.2026C74.4398 22.9147 74.4141 22.9071 73.5563 22.7252C72.3898 22.4752 72.3726 22.46 72.2697 21.7856C72.244 21.6341 72.2182 19.8837 72.2182 17.8984C72.2011 13.0413 72.081 12.3896 71.0689 11.4955C70.3055 10.8211 69.8337 10.6847 68.2126 10.6771C66.9517 10.6771 66.9088 10.6847 65.9224 10.9802C65.3734 11.1469 64.3012 11.5637 63.5464 11.8971L62.1654 12.5109L62.1826 12.0335C62.1826 11.344 62.114 10.7984 62.0025 10.6393C61.8738 10.4119 61.5822 10.4574 60.8188 10.8135ZM231.991 10.5408C229.975 10.7529 228.431 11.6016 227.728 12.8746C227.136 13.943 227.231 14.8902 228.003 15.6934C228.509 16.2162 229.16 16.5799 230.945 17.3528C231.785 17.7241 232.746 18.2015 233.08 18.4213C233.715 18.8456 234.324 19.5579 234.487 20.0504C234.71 20.7702 234.479 21.6417 233.947 22.0129C233.286 22.4752 231.794 22.6494 230.747 22.3767C229.538 22.066 228.063 20.9976 227.522 20.0428C227.385 19.8003 227.248 19.5882 227.213 19.5882C226.622 19.4972 226.604 19.5124 226.802 20.111C226.87 20.3232 226.93 20.505 226.93 20.5202C226.922 20.5278 226.973 20.8309 227.025 21.1946C227.11 21.6871 227.11 21.9675 227.042 22.2782C226.99 22.5055 226.982 22.7176 227.016 22.748C227.05 22.7783 227.419 22.8995 227.822 23.0056C229.787 23.5208 231.562 23.6042 232.935 23.2253C233.93 22.9525 235.431 22.2933 235.902 21.9144C236.915 21.1112 237.095 19.3305 236.288 18.103C235.679 17.1634 234.753 16.5648 232.231 15.4736C230.747 14.8371 230.481 14.6932 230.121 14.3446C229.632 13.8672 229.521 13.4581 229.675 12.7761C229.992 11.45 231.476 10.9348 233.115 11.5864C234.135 12.0032 235.113 12.7685 235.413 13.405C235.516 13.6323 235.585 13.6702 235.859 13.6778C236.091 13.6854 236.177 13.6551 236.177 13.5641C236.177 13.3595 235.619 10.8438 235.568 10.7908C235.542 10.7605 235.242 10.715 234.89 10.6923C234.556 10.6696 234.093 10.6241 233.87 10.6014C233.338 10.5408 232.274 10.5104 231.991 10.5408ZM107.592 10.8135C107.103 10.8969 106.031 10.9272 104.255 10.8817C103.526 10.8666 102.866 10.8817 102.814 10.912C102.754 10.9424 102.711 11.0712 102.711 11.1924C102.711 11.4349 102.651 11.4122 103.638 11.5485C104.101 11.6092 104.521 11.9047 104.65 12.2532C104.881 12.8519 104.435 14.4052 103.423 16.5496C102.908 17.6256 101.502 20.0959 101.33 20.2323C101.253 20.2929 101.116 20.0655 100.764 19.2699C99.7177 16.9058 98.4911 13.4202 98.3281 12.3745C98.2338 11.7834 98.3024 11.7531 100.198 11.4652C100.352 11.4425 100.404 11.3667 100.43 11.1545C100.447 11.003 100.447 10.8742 100.421 10.859C100.395 10.8514 99.8292 10.8666 99.1687 10.8969C98.5082 10.9272 96.9557 10.9499 95.7206 10.9575L93.4733 10.9651L93.499 11.1773C93.5161 11.3591 93.6448 11.45 94.1938 11.7077C94.7856 11.9956 94.8971 12.0865 95.1459 12.5033C96.2009 14.2234 98.9457 20.6566 99.7605 23.3011L100.009 24.1498H100.644L101.039 23.2632C101.253 22.7858 102.317 20.649 103.406 18.5349C104.487 16.4132 105.533 14.3901 105.705 14.0188C106.348 12.7306 106.931 11.9956 107.678 11.541C108.098 11.2833 108.158 11.2076 108.158 10.9802C108.158 10.8363 108.132 10.7226 108.098 10.7302C108.021 10.7378 107.815 10.7681 107.592 10.8135ZM156.998 10.8287C156.929 10.8817 153.73 10.9802 151.834 10.9802H150.153V11.1848C150.153 11.3667 150.239 11.4349 150.728 11.6698C151.045 11.8213 151.388 12.0108 151.483 12.1017C152.263 12.8367 155.531 20.399 156.543 23.8239C156.638 24.1422 156.646 24.1649 156.955 24.1346L157.264 24.1119L157.864 22.8161C158.199 22.1039 158.971 20.5353 159.606 19.323C160.232 18.1106 161.193 16.2314 161.75 15.1402C163.045 12.5942 163.483 11.9956 164.366 11.4955C164.684 11.3136 164.769 11.2303 164.778 11.0333L164.786 10.7908L164.109 10.8514C163.388 10.9196 162.393 10.9272 161.167 10.8893C160.746 10.8742 160.189 10.8666 159.914 10.8742L159.408 10.8817L159.374 11.1545C159.357 11.3136 159.374 11.4273 159.434 11.4349C160.729 11.4879 161.364 11.8895 161.364 12.6776C161.364 13.6323 160.395 16.0874 159.108 18.3834C158.379 19.6715 157.95 20.3156 157.873 20.2474C157.71 20.0959 156.441 17.0422 155.857 15.3979C155.308 13.8521 155.042 12.9352 154.974 12.4048C154.931 11.9577 154.939 11.9123 155.137 11.7986C155.36 11.6698 156.097 11.5258 156.621 11.4955C156.784 11.4879 156.955 11.4349 157.007 11.3743C157.092 11.2909 157.084 10.7453 156.998 10.8287Z" fill="white"/>
</svg>