<svg width="175" height="13" viewBox="0 0 175 13" fill="none" xmlns="http://www.w3.org/2000/svg">
<path d="M4.51546 2.72022C3.51545 2.72022 2.89912 3.18766 2.89912 3.9357C2.89912 5.93645 8.61288 4.80472 8.61288 8.93507C8.61288 10.6552 7.2299 12.0024 4.43171 12.0024C2.14893 12.0024 0.617046 11.0038 0 10.4712L1.3837 8.77114C1.89982 9.24073 3.06519 10.0854 4.50043 10.0854C5.68298 10.0854 6.26495 9.66951 6.26495 8.9909C6.26495 6.78972 0.533295 7.95509 0.533295 4.07171C0.533295 2.22272 2.09739 0.771729 4.46392 0.771729C7.39812 0.771729 8.30006 2.4704 8.54774 3.6551L6.43246 4.17121C6.38235 3.58709 5.79823 2.72022 4.51546 2.72022Z" fill="white"/>
<path d="M21.9602 4.78725C21.9602 7.385 20.1462 8.68638 17.6637 8.68638H15.7646V11.884H13.3945V0.885254H17.3423C20.2271 0.885254 21.9602 2.18807 21.9602 4.78725ZM19.5578 4.78725C19.5578 3.53598 18.7439 2.75357 17.1097 2.75357H15.7632V6.82164H17.2099C18.7117 6.82093 19.5578 6.10151 19.5578 4.78725Z" fill="white"/>
<path d="M28.8744 2.83732V5.36922H33.1414V7.21893H28.8744V9.93622H33.7892V11.8847H26.5078V0.885254H33.7885V2.83661H28.8744V2.83732Z" fill="white"/>
<path d="M41.0689 2.83732V5.36922H45.3353V7.21893H41.0689V9.93622H45.9867V11.8847H38.7031V0.885254H45.9867V2.83661H41.0689V2.83732Z" fill="white"/>
<path d="M59.8972 11.884C59.8972 11.884 59.4648 12.0007 58.6788 12.0007C55.3323 12.0007 56.2478 8.11873 53.7646 8.11873H53.265V11.884H50.8984V0.885254H54.6301C57.4977 0.885254 59.0317 2.02271 59.0317 4.60185C59.0317 6.13588 58.2121 7.16954 56.8155 7.70426C57.9973 8.25402 58.0288 10.1037 59.4118 10.1037C59.5972 10.1037 59.7504 10.0687 59.7504 10.0687L59.8972 11.884ZM54.3137 6.45442C55.7324 6.45442 56.7003 5.80301 56.7003 4.61975C56.7003 3.3878 55.8985 2.75429 54.4991 2.75429H53.265V6.45514H54.3137V6.45442Z" fill="white"/>
<path d="M68.0089 2.72022C67.0096 2.72022 66.3933 3.18766 66.3933 3.9357C66.3933 5.93645 72.1085 4.80472 72.1085 8.93507C72.1085 10.6552 70.729 12.0024 67.9251 12.0024C65.6459 12.0024 64.1105 11.0038 63.4941 10.4712L64.8764 8.77114C65.3932 9.24073 66.5608 10.0854 67.9924 10.0854C69.1771 10.0854 69.7627 9.66951 69.7627 8.9909C69.7627 6.78972 64.0267 7.95509 64.0267 4.07171C64.0267 2.22272 65.5951 0.771729 67.9616 0.771729C70.8951 0.771729 71.7906 2.4704 72.0447 3.6551L69.9273 4.17121C69.8758 3.58709 69.2952 2.72022 68.0089 2.72022Z" fill="white"/>
<path d="M91.6117 4.92961L89.4277 5.25961C89.4277 4.24384 88.8114 2.87732 87.1621 2.87732C85.5801 2.87732 84.3317 4.21378 84.3317 6.44717C84.3317 8.9805 85.8478 10.012 87.4814 10.012C88.8937 10.012 89.8458 9.08 90.2989 8.44362L91.694 9.91036C91.2144 10.6112 89.8622 12.0607 87.4126 12.0607C84.1456 12.0607 81.9473 9.93041 81.9473 6.44717C81.9473 3.00975 84.1134 0.828613 87.1285 0.828613C90.4277 0.828613 91.6117 3.15936 91.6117 4.92961Z" fill="white"/>
<path d="M105.291 11.9462C105.291 11.9462 104.858 12.0607 104.074 12.0607C100.724 12.0607 101.64 8.17879 99.1611 8.17879H98.6607V11.9462H96.2949V0.945312H100.027C102.894 0.945312 104.425 2.0799 104.425 4.66191C104.425 6.19593 103.606 7.22816 102.211 7.76074C103.393 8.31121 103.425 10.1616 104.808 10.1616C104.992 10.1616 105.144 10.1258 105.144 10.1258L105.291 11.9462ZM99.7087 6.51448C101.124 6.51448 102.09 5.85949 102.09 4.68052C102.09 3.44857 101.289 2.81292 99.8934 2.81292H98.6579V6.51448H99.7087Z" fill="white"/>
<path d="M112.087 2.89738V5.42642H116.351V7.27827H112.087V9.997H117.003V11.9476H109.723V0.945312H117.003V2.89738H112.087Z" fill="white"/>
<path d="M127.969 9.59613H123.985L123.219 11.9455H120.803L124.702 0.945312H127.251L131.135 11.9455H128.732L127.969 9.59613ZM127.401 7.813L126.333 4.54308C126.217 4.19519 126.081 3.71057 126.002 3.2961H125.953C125.887 3.71128 125.733 4.1959 125.617 4.56098L124.569 7.81371H127.401V7.813Z" fill="white"/>
<path d="M136.675 2.89738H133.328V0.945312H142.392V2.89738H139.042V11.9469H136.675V2.89738H136.675Z" fill="white"/>
<path d="M146.756 0.945312H149.072V11.9469H146.756V0.945312Z" fill="white"/>
<path d="M158.057 8.32916C158.173 8.69495 158.323 9.18028 158.389 9.5969H158.44C158.524 9.181 158.657 8.71356 158.775 8.34777L161.087 0.94751H163.491L159.673 11.9484H157.122L153.324 0.94751H155.755L158.057 8.32916Z" fill="white"/>
<path d="M170.082 2.89738V5.42642H174.35V7.27827H170.082V9.997H175V11.9476H167.719V0.945312H175V2.89738H170.082Z" fill="white"/>
</svg>
