<svg width="311" height="51" viewBox="0 0 311 51" fill="none" xmlns="http://www.w3.org/2000/svg">
<path d="M16.3427 28.2629H16.1568C16.1121 28.2629 16.0749 28.2873 16.0576 28.3229C15.1302 30.4503 13.2532 31.6229 10.7736 31.6229H5.15747V26.4308H7.71636C10.0546 26.4308 11.5175 27.3613 11.5324 28.8603C11.5324 28.9114 11.5795 28.9536 11.639 28.9536H11.825C11.8845 28.9536 11.9316 28.9114 11.9316 28.8581V23.6726C11.9316 23.6193 11.8845 23.5771 11.825 23.5771H11.639C11.5795 23.5771 11.5324 23.6193 11.5324 23.6726C11.5324 25.3204 10.3199 26.0866 7.71636 26.0866H5.15747V21.212H10.7563C12.6581 21.212 14.2971 22.389 15.1401 24.3588C15.155 24.3966 15.1947 24.4188 15.2393 24.4188H15.4253C15.4575 24.4188 15.4898 24.4055 15.5096 24.381C15.5294 24.3566 15.5369 24.3255 15.5269 24.2966L14.3888 20.739C14.3764 20.699 14.3343 20.6702 14.2872 20.6702H14.1012C14.0715 20.6702 14.0442 20.6813 14.0219 20.7013C14.0119 20.7101 14.0045 20.7235 13.9995 20.7346C13.764 20.8523 11.9589 20.8523 10.7563 20.8523H7.25765C6.86092 20.8523 6.14433 20.8589 5.42278 20.8678C4.69627 20.8745 3.9648 20.8834 3.55568 20.8834C3.14903 20.8834 2.49195 20.8767 1.83239 20.8678C1.17283 20.8612 0.515746 20.8523 0.106621 20.8523C0.0471113 20.8523 0 20.8945 0 20.9478V21.1143C0 21.1676 0.0471113 21.2098 0.106621 21.2098H1.91917V31.6185H0.106621C0.0471113 31.6185 0 31.6606 0 31.7139V31.8805C0 31.9338 0.0471113 31.976 0.106621 31.976C0.49839 31.976 1.16043 31.9693 1.82247 31.9604C2.48451 31.9538 3.14655 31.9449 3.53584 31.9449C3.94496 31.9449 4.66404 31.9516 5.37815 31.9604C6.08482 31.9671 6.78901 31.976 7.18574 31.976H10.7687C12.3407 31.976 14.2921 31.976 14.5178 32.1403C14.5178 32.1603 14.5252 32.1825 14.5401 32.1981C14.5599 32.2203 14.5897 32.2336 14.6244 32.2336H14.8104C14.855 32.2336 14.8947 32.2092 14.9095 32.1714L16.4369 28.385C16.4493 28.3562 16.4444 28.3229 16.4245 28.2984C16.4047 28.274 16.3774 28.2629 16.3427 28.2629Z" fill="#E9EAF0"/>
<path d="M43.9348 29.844H43.7488C43.6893 29.844 43.6422 29.8861 43.6422 29.9394C43.6422 31.112 42.4843 31.6383 41.661 31.6383C40.3543 31.6383 39.9948 30.4191 39.6452 29.2421C39.6055 29.1044 39.5633 28.969 39.5237 28.8357C39.1071 27.4811 37.8401 26.9015 36.6524 26.6638C38.9286 26.3019 40.0369 25.3802 40.0369 23.859C40.0369 20.8433 35.6184 20.8433 32.3925 20.8433H23.1735C23.114 20.8433 23.0669 20.8855 23.0669 20.9388V21.1053C23.0669 21.1586 23.114 21.2008 23.1735 21.2008H25.2415V31.625H23.1735C23.114 31.625 23.0669 31.6672 23.0669 31.7205V31.887C23.0669 31.9403 23.114 31.9825 23.1735 31.9825C23.7636 31.9825 24.3761 31.9759 24.991 31.967C25.6134 31.9603 26.2432 31.9514 26.8581 31.9514C27.4483 31.9514 28.0632 31.9581 28.6806 31.967C29.3104 31.9736 29.9427 31.9825 30.5576 31.9825C30.6171 31.9825 30.6642 31.9403 30.6642 31.887V31.7205C30.6642 31.6672 30.6171 31.625 30.5576 31.625H28.4897V26.8881H33.0025C34.9167 26.8881 35.5291 28.0674 35.906 29.3421C36.4193 31.0609 36.9474 32.1158 39.9601 32.2401C40.0369 32.2424 40.1386 32.2468 40.2601 32.2468C41.0089 32.2468 42.5041 32.1446 43.3794 31.394C43.8207 31.0165 44.0439 30.5279 44.0439 29.9417C44.0414 29.8861 43.9943 29.844 43.9348 29.844ZM28.4872 21.1986H32.3875C34.3414 21.1986 36.3399 21.5139 36.3399 23.8568C36.3399 26.2064 34.4406 26.5284 32.3875 26.5284H28.4872V21.1986Z" fill="#E9EAF0"/>
<path d="M66.705 28.2631H66.519C66.4744 28.2631 66.4372 28.2876 66.4198 28.3231C65.4925 30.4506 63.6155 31.6231 61.1359 31.6231H55.5197V26.431H58.0786C60.4168 26.431 61.8798 27.3615 61.8947 28.8605C61.8947 28.9116 61.9418 28.9538 62.0013 28.9538H62.1872C62.2468 28.9538 62.2939 28.9116 62.2939 28.8583V23.6729C62.2939 23.6196 62.2468 23.5774 62.1872 23.5774H62.0013C61.9418 23.5774 61.8947 23.6196 61.8947 23.6729C61.8947 25.3207 60.6822 26.0868 58.0786 26.0868H55.5197V21.2123H61.1186C63.0204 21.2123 64.6594 22.3893 65.5024 24.3591C65.5173 24.3968 65.557 24.419 65.6016 24.419H65.7875C65.8198 24.419 65.852 24.4057 65.8719 24.3813C65.8917 24.3569 65.8991 24.3258 65.8892 24.2969L64.7511 20.7393C64.7387 20.6993 64.6965 20.6704 64.6494 20.6704H64.4635C64.4337 20.6704 64.4064 20.6815 64.3841 20.7015C64.3742 20.7104 64.3668 20.7237 64.3618 20.7348C64.1263 20.8525 62.3211 20.8525 61.1186 20.8525H57.6199C57.2232 20.8525 56.5066 20.8592 55.785 20.8681C55.0585 20.8747 54.3271 20.8836 53.9179 20.8836C53.5113 20.8836 52.8542 20.8769 52.1971 20.8681C51.5376 20.8614 50.8805 20.8525 50.4714 20.8525C50.4119 20.8525 50.3647 20.8947 50.3647 20.948V21.1146C50.3647 21.1679 50.4119 21.2101 50.4714 21.2101H52.2839V31.6187H50.4714C50.4119 31.6187 50.3647 31.6609 50.3647 31.7142V31.8807C50.3647 31.934 50.4119 31.9762 50.4714 31.9762C50.8631 31.9762 51.5252 31.9696 52.1872 31.9607C52.8493 31.954 53.5113 31.9451 53.9006 31.9451C54.3097 31.9451 55.0288 31.9518 55.7429 31.9607C56.4496 31.9674 57.1538 31.9762 57.5505 31.9762H61.1334C62.7055 31.9762 64.6569 31.9762 64.8825 32.1406C64.8825 32.1606 64.89 32.1828 64.9048 32.1983C64.9247 32.2205 64.9544 32.2338 64.9891 32.2338H65.1751C65.2197 32.2338 65.2594 32.2094 65.2743 32.1717L66.8017 28.3853C66.8141 28.3564 66.8091 28.3231 66.7893 28.2987C66.7719 28.2787 66.7397 28.2631 66.705 28.2631Z" fill="#E9EAF0"/>
<path d="M92.3361 26.4108C92.3361 22.5955 87.801 20.8567 83.5883 20.8567H80.2954C79.8119 20.8567 79.2639 20.8634 78.7135 20.8722C78.1655 20.8789 77.62 20.8878 77.1365 20.8878C76.6629 20.8878 76.043 20.8811 75.4206 20.8722C74.7908 20.8656 74.1585 20.8567 73.6725 20.8567C73.613 20.8567 73.5659 20.8989 73.5659 20.9522V21.1187C73.5659 21.172 73.613 21.2142 73.6725 21.2142H75.4851V31.6229H73.6725C73.613 31.6229 73.5659 31.6651 73.5659 31.7184V31.8849C73.5659 31.9382 73.613 31.9804 73.6725 31.9804C74.1213 31.9804 74.7363 31.9738 75.3562 31.9649C75.981 31.9582 76.6083 31.9493 77.067 31.9493C77.5134 31.9493 78.0886 31.956 78.6639 31.9649C79.2466 31.9715 79.8317 31.9804 80.2929 31.9804H83.5858C85.7504 31.9804 87.8754 31.5185 89.4177 30.7124C91.3269 29.7175 92.3361 28.2296 92.3361 26.4108ZM88.6416 26.4108C88.6416 30.0106 86.11 31.6229 83.6031 31.6229H78.7184V21.2142H83.6031C86.1124 21.2142 88.6416 22.8221 88.6416 26.4108Z" fill="#E9EAF0"/>
<path d="M106.782 31.8849V31.7184C106.782 31.6651 106.735 31.6229 106.675 31.6229H104.607V21.2142H106.675C106.735 21.2142 106.782 21.172 106.782 21.1187V20.9522C106.782 20.8989 106.735 20.8567 106.675 20.8567C106.073 20.8567 105.448 20.8634 104.823 20.8722C104.2 20.8789 103.576 20.8878 102.973 20.8878C102.368 20.8878 101.748 20.8811 101.128 20.8722C100.513 20.8656 99.8985 20.8567 99.3058 20.8567C99.2463 20.8567 99.1992 20.8989 99.1992 20.9522V21.1187C99.1992 21.172 99.2463 21.2142 99.3058 21.2142H101.374V31.6229H99.3058C99.2463 31.6229 99.1992 31.6651 99.1992 31.7184V31.8849C99.1992 31.9382 99.2463 31.9804 99.3058 31.9804C99.8985 31.9804 100.513 31.9738 101.128 31.9649C101.748 31.9582 102.368 31.9493 102.973 31.9493C103.576 31.9493 104.198 31.956 104.823 31.9649C105.448 31.9715 106.073 31.9804 106.675 31.9804C106.735 31.9804 106.782 31.9382 106.782 31.8849Z" fill="#E9EAF0"/>
<path d="M128.406 20.7279C128.393 20.688 128.351 20.6591 128.304 20.6591H128.118C128.086 20.6591 128.056 20.6724 128.036 20.6924C128.029 20.7013 128.022 20.7124 128.017 20.7235C127.724 20.8567 125.272 20.8567 124.213 20.8567H117.064C116.256 20.8567 115.036 20.8567 114.929 20.7457C114.932 20.7191 114.922 20.6924 114.902 20.6746C114.882 20.6547 114.855 20.6436 114.825 20.6436H114.639C114.592 20.6436 114.55 20.6724 114.538 20.7124L113.417 24.3011C113.407 24.33 113.414 24.3611 113.434 24.3833C113.454 24.4077 113.486 24.421 113.519 24.421H113.705C113.749 24.421 113.786 24.3966 113.804 24.3611C114.691 22.3202 115.725 21.2121 118.646 21.2121H119.814V31.6207H117.746C117.687 31.6207 117.64 31.6629 117.64 31.7162V31.8828C117.64 31.9361 117.687 31.9782 117.746 31.9782C118.336 31.9782 118.949 31.9716 119.564 31.9627C120.186 31.956 120.816 31.9472 121.431 31.9472C122.023 31.9472 122.638 31.9538 123.258 31.9627C123.883 31.9694 124.51 31.9782 125.115 31.9782C125.175 31.9782 125.222 31.9361 125.222 31.8828V31.7162C125.222 31.6629 125.175 31.6207 125.115 31.6207H123.065V21.2121H124.317C126.983 21.2121 128.379 22.1226 129.14 24.3544C129.152 24.3944 129.194 24.421 129.241 24.421H129.427C129.46 24.421 129.492 24.4077 129.512 24.3833C129.532 24.3589 129.539 24.3278 129.529 24.3011L128.406 20.7279Z" fill="#E9EAF0"/>
<path d="M155.792 31.6229H153.695L146.407 20.9477C146.4 20.9389 146.392 20.93 146.385 20.9233C146.373 20.8833 146.33 20.8567 146.283 20.8567C146.053 20.8567 145.815 20.8634 145.574 20.8722C145.339 20.8789 145.101 20.8878 144.872 20.8878C144.652 20.8878 143.655 20.8811 142.658 20.8722C141.659 20.8656 140.662 20.8567 140.441 20.8567C140.382 20.8567 140.335 20.8989 140.335 20.9522V21.1187C140.335 21.172 140.382 21.2142 140.441 21.2142H142.832L135.678 31.6229H133.563C133.504 31.6229 133.457 31.6651 133.457 31.7184V31.8849C133.457 31.9093 133.469 31.9338 133.489 31.9515C133.509 31.9693 133.536 31.9804 133.563 31.9804C134.158 31.9804 134.419 31.9738 134.669 31.9649C134.922 31.9582 135.185 31.9493 135.787 31.9493C136.387 31.9493 136.682 31.956 136.965 31.9649C137.25 31.9715 137.543 31.9804 138.148 31.9804C138.175 31.9804 138.202 31.9693 138.222 31.9515C138.242 31.9338 138.254 31.9093 138.254 31.8849V31.7184C138.254 31.6651 138.207 31.6229 138.148 31.6229H136.147L138.564 28.103H147.664L150.065 31.6229H148.046C147.987 31.6229 147.94 31.6651 147.94 31.7184V31.8849C147.94 31.9382 147.987 31.9804 148.046 31.9804C148.86 31.9804 149.534 31.9715 150.186 31.9649C150.769 31.9582 151.322 31.9515 151.917 31.9515C152.398 31.9515 153.154 31.9604 153.9 31.9671C154.627 31.9738 155.344 31.9826 155.787 31.9826C155.847 31.9826 155.894 31.9404 155.894 31.8871V31.7206C155.899 31.6651 155.852 31.6229 155.792 31.6229ZM147.421 27.7454H138.82L143.147 21.4674L147.421 27.7454Z" fill="#E9EAF0"/>
<path d="M139.79 17.6033C139.52 17.5211 139.187 17.2591 139.086 16.9859C138.939 16.5818 139.068 16.1154 139.378 15.8112C139.524 15.6624 139.705 15.5558 139.904 15.498C140.338 15.3714 140.846 15.4558 141.139 15.7112L145.143 19.2133L144.98 19.26L139.79 17.6033Z" fill="#E9EAF0"/>
<path d="M176.352 8.08H179.418V50.122H176.352V8.08Z" fill="#E9EAF0"/>
<path d="M218.09 35.0658H220.834V22.7072H218.09V35.0658ZM238.559 35.0658H250.243V32.9967H241.317V29.9459H247.215V27.8752H241.317V24.7941H249.969V22.7072H238.559V35.0658ZM262.184 26.382C262.184 26.9822 261.983 27.38 261.579 27.5748C261.176 27.7702 260.67 27.8698 260.068 27.8698H255.074V24.8114H260.068C260.67 24.8114 261.176 24.9305 261.579 25.1632C261.983 25.397 262.184 25.8051 262.184 26.382ZM264.935 26.382C264.935 25.0377 264.517 24.0932 263.676 23.552C262.833 23.0081 261.573 22.7397 259.892 22.7397H252.323V35.0485H255.081L255.074 29.9454H259.892C261.573 29.9454 262.833 29.6888 263.676 29.173C264.517 28.6605 264.935 27.7275 264.935 26.382ZM266.593 35.0798H278.67V33.0146H269.304V22.7007L266.593 22.7077V35.0798ZM280.732 35.0658H292.415V32.9967H283.49V29.9335H289.387V27.8628H283.49V24.7947H292.142V22.7077H280.732V35.0658Z" fill="white"/>
<path d="M216.554 24.0527C216.176 23.8168 215.573 23.4975 214.685 23.1933C214.19 23.0217 213.633 22.8561 212.957 22.7446C212.299 22.6353 211.581 22.5465 210.791 22.5465C209.774 22.5465 208.784 22.6791 207.817 22.9395C206.852 23.2036 205.996 23.6014 205.246 24.1323C204.501 24.6649 203.896 25.3241 203.441 26.1083C202.983 26.8941 202.756 27.8093 202.756 28.8598C202.756 29.9043 202.983 30.8238 203.441 31.6178C203.896 32.4118 204.49 33.0764 205.216 33.61C205.943 34.1409 206.772 34.5312 207.707 34.7736C208.644 35.0161 209.579 35.1687 210.534 35.1687C211.466 35.1687 212.251 35.1038 213.011 34.9549C213.766 34.8034 214.505 34.5853 215.077 34.3672C215.077 34.3672 215.79 34.0744 216.624 33.6284L214.986 31.9837C214.678 32.1504 214.32 32.3236 213.909 32.4875C213.433 32.6759 212.9 32.8209 212.319 32.9508C211.737 33.0813 210.926 33.1473 210.367 33.1473C209.763 33.1473 209.171 33.0482 208.592 32.8534C208.009 32.6569 207.49 32.3674 207.032 31.9837C206.575 31.6027 206.206 31.1421 205.927 30.6111C205.645 30.0786 205.505 29.4746 205.505 28.8024C205.505 28.1275 205.629 27.5295 205.88 27.0062C206.127 26.4828 206.482 26.0444 206.937 25.6905C207.397 25.3338 207.931 25.0692 208.545 24.8895C209.156 24.7141 209.837 24.6253 210.582 24.6253C211.206 24.6253 212.017 24.6746 212.536 24.779C212.82 24.8342 213.081 24.8976 213.322 24.9663C213.322 24.9663 214.024 25.1536 214.913 25.7002L216.554 24.0527Z" fill="white"/>
<path d="M310.181 23.6192C310.139 23.6316 310.08 23.6408 310 23.6408H309.832V23.2587H309.99C310.095 23.2587 310.171 23.269 310.218 23.296C310.265 23.322 310.289 23.3745 310.289 23.4524C310.289 23.5325 310.252 23.5883 310.181 23.6192ZM310.396 23.7999C310.356 23.742 310.294 23.7084 310.212 23.696C310.275 23.6852 310.328 23.67 310.365 23.6446C310.435 23.6008 310.47 23.5314 310.47 23.4357C310.47 23.3031 310.414 23.2138 310.304 23.1678C310.243 23.1434 310.148 23.132 310.019 23.132H309.645V24.189H309.832V23.7723H309.979C310.08 23.7723 310.148 23.7837 310.188 23.8059C310.255 23.8454 310.285 23.9265 310.285 24.0483V24.1327L310.292 24.1663C310.292 24.1712 310.292 24.1766 310.295 24.1793V24.1896H310.47L310.464 24.1766C310.46 24.1663 310.458 24.1484 310.455 24.1203V23.9639C310.455 23.9098 310.432 23.8562 310.396 23.7999ZM310.861 23.6624C310.861 23.8935 310.782 24.0905 310.624 24.2529C310.46 24.4158 310.265 24.4992 310.034 24.4992C309.804 24.4992 309.607 24.4158 309.448 24.2529C309.286 24.0911 309.207 23.8935 309.207 23.6624C309.207 23.434 309.289 23.2392 309.448 23.0774C309.611 22.9134 309.808 22.8328 310.034 22.8328C310.265 22.8328 310.46 22.9134 310.624 23.0774C310.782 23.2392 310.861 23.434 310.861 23.6624ZM311 23.6614C311 23.3956 310.905 23.1689 310.717 22.9827C310.531 22.7927 310.302 22.7002 310.034 22.7002C309.77 22.7002 309.544 22.7927 309.357 22.9827C309.17 23.1689 309.075 23.3956 309.075 23.6614C309.075 23.9282 309.167 24.1577 309.353 24.3465C309.541 24.5349 309.767 24.6301 310.034 24.6301C310.302 24.6301 310.531 24.5349 310.717 24.3465C310.905 24.1566 311 23.9282 311 23.6614Z" fill="white"/>
<path d="M293.678 22.7002L305.805 35.0193H309.164L297.026 22.7002H293.678Z" fill="white"/>
<path d="M309.162 22.7002L297.037 35.0193H293.677L305.815 22.7002H309.162Z" fill="white"/>
<path d="M236.461 35.0361V22.6775H234.083V31.6135L225.314 22.6862V22.6775H222.937V35.0361H225.314V26.1256L234.083 35.0334V35.0361H236.461Z" fill="white"/>
<path d="M281.022 12.4779C281.022 9.05421 271.155 6.24965 258.649 6.00449L258.543 6.95161C268.853 7.19407 276.96 9.67766 276.96 12.7074C276.96 15.8118 268.458 18.3441 257.79 18.4799L257.865 18.9622C270.742 18.8225 281.022 15.9736 281.022 12.4779Z" fill="#FFCB05"/>
<path d="M272.047 13.2501C272.047 15.5784 265.665 17.4796 257.641 17.5949L257.715 18.0723C267.065 17.9478 274.513 15.7299 274.513 13.0141C274.513 10.3676 267.445 8.19567 258.435 7.9689L258.33 8.922C266.025 9.13091 272.047 10.9894 272.047 13.2501Z" fill="#FFCB05"/>
<path d="M269.618 13.545C269.618 11.6697 264.625 10.1267 258.222 9.93622L258.115 10.8882C263.219 11.0603 267.177 12.2889 267.177 13.7821C267.177 15.337 262.891 16.6067 257.489 16.6938L257.564 17.1685C264.28 17.0716 269.618 15.4858 269.618 13.545Z" fill="#FFCB05"/>
<path d="M232.733 12.4779C232.733 9.05421 242.599 6.24965 255.108 6.00449L255.213 6.95161C244.902 7.19407 236.795 9.67766 236.795 12.7074C236.795 15.8118 245.297 18.3441 255.965 18.4799L255.89 18.9622C243.013 18.8225 232.733 15.9736 232.733 12.4779Z" fill="#FFCB05"/>
<path d="M241.707 13.2501C241.707 15.5784 248.091 17.4796 256.113 17.5949L256.039 18.0723C246.69 17.9478 239.242 15.7299 239.242 13.0141C239.242 10.3676 246.31 8.19567 255.32 7.9689L255.428 8.922C247.729 9.13091 241.707 10.9894 241.707 13.2501Z" fill="#FFCB05"/>
<path d="M244.137 13.545C244.137 11.6697 249.129 10.1267 255.532 9.93622L255.638 10.8882C250.536 11.0603 246.576 12.2889 246.576 13.7821C246.576 15.337 250.863 16.6067 256.264 16.6938L256.19 17.1685C249.474 17.0716 244.137 15.4858 244.137 13.545Z" fill="#FFCB05"/>
</svg>
