<svg xmlns="http://www.w3.org/2000/svg" viewBox="0 0 203 16" fill="none">
<path d="M183.531 11.8409V2.26677C183.531 1.01408 183.531 0.268433 183.869 0H179.949C180.253 0.238607 180.287 0.894783 180.287 2.02817V9.18639L172.922 0H169.34C169.678 0.238607 169.678 0.984257 169.678 2.26677V11.8409C169.678 13.0936 169.678 13.8392 169.34 14.1077H173.259C172.955 13.8691 172.922 13.2129 172.922 12.1093V4.9511L180.287 14.1375H183.869C183.531 13.8392 183.531 13.0936 183.531 11.8409ZM194.072 0.0298277H188.801C189.139 0.268435 189.139 1.01408 189.139 2.2966V11.8707C189.139 13.1234 189.139 13.869 188.801 14.1375H194.072C198.836 14.1375 202.722 10.9759 202.722 7.09857C202.722 3.2212 198.836 0.0298277 194.072 0.0298277ZM194.072 11.3637H192.383V2.77382H194.072C197.045 2.77382 199.478 4.7125 199.478 7.06875C199.478 9.42499 197.045 11.3637 194.072 11.3637ZM166.367 14.1077C165.894 13.8691 165.556 13.1234 164.948 11.8409L160.353 2.26677C159.745 1.01408 159.407 0.268433 159.643 0H155.758C155.994 0.238607 155.623 0.984257 155.048 2.26677L150.487 11.8409C149.879 13.0936 149.541 13.8392 149.068 14.1077H153.325C153.021 13.8094 153.325 13.1532 153.967 11.8409L154.001 11.7812H161.4L161.434 11.8409C162.042 13.1234 162.346 13.8094 162.076 14.1077H166.367ZM155.318 8.9776L157.684 4.0265L160.049 8.9776H155.318ZM146.939 14.1077C146.399 13.8691 145.892 13.2129 144.878 11.9304L142.513 8.94777C144.338 8.1723 145.588 6.59153 145.588 4.7125C145.588 2.11765 143.121 0 140.114 0H132.985C133.323 0.238607 133.323 0.984257 133.323 2.26677V11.8409C133.323 13.0936 133.323 13.8392 132.985 14.1077H136.904C136.567 13.8691 136.567 13.1234 136.567 11.8409V9.42499H138.965L141.871 13.0638C142.243 13.5708 142.378 13.8989 142.243 14.1077H146.939ZM136.533 2.80363H140.08C141.297 2.80363 142.31 3.66859 142.31 4.7125C142.31 5.78623 141.297 6.62136 140.08 6.62136H136.533V2.80363ZM126.667 6.38274C127.241 5.72657 127.579 4.95111 127.579 4.08615C127.579 1.81938 125.282 0.0298277 122.444 0.0298277H115.652C115.99 0.268435 115.99 1.01408 115.99 2.2966V11.8707C115.99 13.1234 115.99 13.869 115.652 14.1375H123.119C126.194 14.1375 128.694 12.1988 128.694 9.75308C128.66 8.35126 127.883 7.21787 126.667 6.38274ZM119.065 2.68433H122.41C123.559 2.68433 124.437 3.31068 124.437 4.08615C124.437 4.86163 123.559 5.48797 122.41 5.48797H119.065V2.68433ZM123.086 11.4233H119.065V8.02317H123.086C124.471 8.02317 125.552 8.76882 125.552 9.72325C125.552 10.6777 124.471 11.4233 123.086 11.4233Z" fill="white"/>
<path d="M107.513 8.47073C106.668 7.81456 104.743 7.36718 103.087 7.24788C104.709 6.97945 106.567 6.35309 107.344 5.63727C108.088 4.95128 108.02 3.78807 107.243 3.10207C106.702 2.62485 106.364 2.62486 105.858 2.17747C105.351 1.73008 105.317 1.43182 104.776 0.954609C103.999 0.268613 102.749 0.298435 102.04 1.04408C101.229 1.87921 100.654 3.9372 100.519 5.51797C100.384 3.9372 99.7759 1.87921 98.9988 1.04408C98.2892 0.298435 97.0391 0.298439 96.262 0.954609C95.7214 1.43182 95.6876 1.73008 95.1808 2.17747C94.674 2.62486 94.3362 2.62485 93.7956 3.10207C93.0185 3.78807 92.9509 4.92145 93.6942 5.63727C94.4713 6.35309 96.3296 6.97945 97.9514 7.24788C96.2958 7.39701 94.3699 7.84439 93.5253 8.47073C92.7144 9.09708 92.6468 10.2603 93.3563 11.0059C93.8293 11.513 94.201 11.5726 94.6402 12.0498C95.1133 12.5271 95.1133 12.8552 95.5863 13.3622C96.2958 14.1078 97.5459 14.1973 98.323 13.5411C98.9312 13.0043 99.5056 11.9007 99.911 10.7673C99.7759 12.1692 100.114 13.6008 100.823 14.8535L101.668 14.4359C100.891 13.1236 100.654 11.5726 100.992 10.0813C101.364 11.4533 102.04 12.9148 102.783 13.5411C103.56 14.2271 104.81 14.1078 105.52 13.3622C105.993 12.8552 106.026 12.5271 106.466 12.0498C106.939 11.5726 107.277 11.513 107.75 11.0059C108.392 10.2305 108.324 9.09708 107.513 8.47073Z" fill="white"/>
<path d="M9.9672 11.811H3.58143V2.74388C3.58143 1.43154 3.58143 0.685888 3.91931 0.417455H0C0.337871 0.685888 0.337871 1.43154 0.337871 2.74388V14.9427H9.9672C11.4538 14.9427 12.3323 14.9427 12.6026 15.2409V11.5127C12.2985 11.811 11.4538 11.811 9.9672 11.811ZM26.8608 0.387637C27.1986 0.65607 27.1986 1.40171 27.1986 2.71405V8.53011C27.1986 10.6179 25.2728 12.2882 22.9077 12.2882C20.5426 12.2882 18.6167 10.6179 18.6167 8.53011V2.71405C18.6167 1.40171 18.6167 0.65607 18.9546 0.387637H15.0015C15.3394 0.65607 15.3394 1.40171 15.3394 2.71405V8.53011C15.3394 12.1987 18.7181 15.1813 22.8739 15.1813C27.0297 15.1813 30.4084 12.1987 30.4084 8.53011V2.71405C30.4084 1.40171 30.4084 0.65607 30.7463 0.387637H26.8608ZM46.9303 10.6179C46.9641 11.0057 46.2208 11.6022 45.2747 11.9601C44.599 12.1987 43.8557 12.318 43.0786 12.318C39.9702 12.318 37.4361 10.2302 37.4361 7.69499C37.4361 5.15978 39.9702 3.07197 43.0786 3.07197C43.8557 3.07197 44.599 3.19127 45.3085 3.4597C46.2546 3.81761 46.9641 4.38431 46.9303 4.80187L49.7009 2.32632C49.1603 2.23684 48.0791 1.55084 47.7412 1.34206C46.3559 0.626238 44.7679 0.208679 43.0786 0.208679C38.1794 0.208679 34.1926 3.579 34.1926 7.7248C34.1926 11.8706 38.1794 15.2409 43.0786 15.2409C44.7341 15.2409 46.3559 14.8532 47.7412 14.1374C48.0453 13.9882 49.1603 13.2724 49.7009 13.1531L46.9303 10.6179ZM67.777 12.5864L62.3372 6.44229L66.4255 2.74388C67.8783 1.43154 68.6892 0.685888 69.3312 0.417455H63.8914C64.0266 0.715714 62.6751 1.99823 61.898 2.71405L57.2692 6.91951V2.05788C57.2692 1.1631 57.3367 0.626244 57.607 0.387637H53.6539C53.958 0.596418 53.9918 1.19293 53.9918 2.14736V13.1233C53.9918 14.1076 53.9242 14.6742 53.6539 14.883H57.607C57.3367 14.6742 57.2692 14.1374 57.2692 13.2128V10.9758L60.0059 8.47045L64.8713 13.9584C65.2091 14.376 65.3105 14.6444 65.1416 14.883H70.1421C69.6015 14.6444 68.9595 13.8988 67.777 12.5864ZM84.3326 0.387637C84.5354 0.596418 84.0961 1.19293 83.319 2.14736L80.0079 6.11421L76.7643 2.23684C75.9197 1.22276 75.4804 0.626237 75.6832 0.417455H70.8178C71.3922 0.685888 72.0004 1.43154 73.1153 2.74388L78.3861 9.03715V12.6163C78.3861 13.9286 78.3861 14.6742 78.0482 14.9427H82.0013C81.6635 14.6742 81.6635 13.9286 81.6635 12.6163V9.03715L86.9343 2.74388C88.0492 1.43154 88.6574 0.685888 89.2318 0.417455H84.3326V0.387637Z" fill="white"/>
</svg>