<svg width="23" height="14" viewBox="0 0 23 14" fill="none" xmlns="http://www.w3.org/2000/svg">
<path fill-rule="evenodd" clip-rule="evenodd" d="M16.2849 13.8323C16.063 13.6063 16.0702 13.249 16.2849 13.0084L21.0386 7.5838H0.663792C0.348792 7.5838 0.0910645 7.32131 0.0910645 7.0005C0.0910645 6.67969 0.348792 6.41721 0.663792 6.41721H21.0386L16.2921 0.992604C16.0845 0.744705 16.063 0.402022 16.2849 0.175996C16.5069 -0.050029 16.8935 -0.0646113 17.1011 0.168705C17.1011 0.168705 22.7711 6.512 22.8283 6.58491C22.8856 6.65782 23.0002 6.78906 23.0002 7.0005C23.0002 7.21195 22.8856 7.35777 22.8283 7.4161C22.7711 7.47443 17.1011 13.8323 17.1011 13.8323C16.9937 13.9417 16.8433 14 16.693 14C16.5427 14 16.3995 13.9417 16.2849 13.8323Z" fill="black" fill-opacity="0.87"/>
</svg>
