<svg xmlns="http://www.w3.org/2000/svg" viewBox="0 0 175 21" fill="none">
<path d="M10.0461 10.4117L12.8367 16.8112C13.5724 18.4364 14.6886 20.1887 16.0585 20.4172L16.5913 20.4426L16.3629 20.468H12.9381C10.8579 20.468 10.1222 19.0205 9.33575 17.2429L6.26612 10.2086L3.47554 3.83455C2.94279 2.6918 1.97877 1.09194 0.837173 0.43168C0.558116 0.330102 0.279058 0.253918 0 0.253918V0.177734H3.37406C5.45431 0.177734 6.19001 1.62522 6.97645 3.37745L10.0461 10.4117Z" fill="white"/>
<path d="M10.25 6.8565L12.0005 10.7673L17.2518 0.177734H13.4718L10.25 6.8565Z" fill="white"/>
<path d="M44.6247 0H47.9227L55.0513 20.4172H51.3982L49.7746 15.5161H42.6459L40.997 20.4172H37.4453L44.6247 0ZM48.8106 12.3672L46.1976 4.39326L43.6353 12.3672H48.8106Z" fill="white"/>
<path d="M164.187 0H167.485L174.614 20.4172H170.986L169.362 15.5161H162.234L160.585 20.4172H157.033L164.187 0ZM168.398 12.3672L165.785 4.39326L163.198 12.3672H168.398Z" fill="white"/>
<path d="M79.252 0.152344H82.8036V17.1667H93.4585V20.4172H79.252V0.152344Z" fill="white"/>
<path d="M117.66 0.152344H132.679V3.32666H121.237V8.60874H131.385V11.7831H121.237V17.2175H132.831V20.3918H117.686V0.152344H117.66Z" fill="white"/>
</svg>